<?xml version="1.0" encoding="utf-8" standalone="no"?>
<!DOCTYPE svg PUBLIC "-//W3C//DTD SVG 1.1//EN"
  "http://www.w3.org/Graphics/SVG/1.1/DTD/svg11.dtd">
<svg xmlns:xlink="http://www.w3.org/1999/xlink" width="724.728787pt" height="115.168092pt" viewBox="0 0 724.728787 115.168092" xmlns="http://www.w3.org/2000/svg" version="1.1">
 <metadata>
  <rdf:RDF xmlns:dc="http://purl.org/dc/elements/1.1/" xmlns:cc="http://creativecommons.org/ns#" xmlns:rdf="http://www.w3.org/1999/02/22-rdf-syntax-ns#">
   <cc:Work>
    <dc:type rdf:resource="http://purl.org/dc/dcmitype/StillImage"/>
    <dc:date>2024-12-09T20:19:18.551429</dc:date>
    <dc:format>image/svg+xml</dc:format>
    <dc:creator>
     <cc:Agent>
      <dc:title>Matplotlib v3.9.0, https://matplotlib.org/</dc:title>
     </cc:Agent>
    </dc:creator>
   </cc:Work>
  </rdf:RDF>
 </metadata>
 <defs>
  <style type="text/css">*{stroke-linejoin: round; stroke-linecap: butt}</style>
 </defs>
 <g id="figure_1">
  <g id="patch_1">
   <path d="M 0 115.168092 
L 724.728787 115.168092 
L 724.728787 0 
L 0 0 
z
" style="fill: #ffffff"/>
  </g>
  <g id="axes_1">
   <g id="patch_2">
    <path d="M 47.928787 80.64 
L 717.528788 80.64 
L 717.528788 7.2 
L 47.928787 7.2 
z
" style="fill: #eaeaf2"/>
   </g>
   <g id="matplotlib.axis_1">
    <g id="xtick_1">
     <g id="line2d_1">
      <path d="M 69.851482 80.64 
L 69.851482 7.2 
" clip-path="url(#p91d641f283)" style="fill: none; stroke: #ffffff; stroke-linecap: round"/>
     </g>
     <g id="text_1">
      <!-- 11:00:00 -->
      <g style="fill: #262626" transform="translate(47.370306 106.832083) rotate(-30) scale(0.066 -0.066)">
       <defs>
        <path id="ArialMT-31" d="M 2384 0 
L 1822 0 
L 1822 3584 
Q 1619 3391 1289 3197 
Q 959 3003 697 2906 
L 697 3450 
Q 1169 3672 1522 3987 
Q 1875 4303 2022 4600 
L 2384 4600 
L 2384 0 
z
" transform="scale(0.015625)"/>
        <path id="ArialMT-3a" d="M 578 2678 
L 578 3319 
L 1219 3319 
L 1219 2678 
L 578 2678 
z
M 578 0 
L 578 641 
L 1219 641 
L 1219 0 
L 578 0 
z
" transform="scale(0.015625)"/>
        <path id="ArialMT-30" d="M 266 2259 
Q 266 3072 433 3567 
Q 600 4063 929 4331 
Q 1259 4600 1759 4600 
Q 2128 4600 2406 4451 
Q 2684 4303 2865 4023 
Q 3047 3744 3150 3342 
Q 3253 2941 3253 2259 
Q 3253 1453 3087 958 
Q 2922 463 2592 192 
Q 2263 -78 1759 -78 
Q 1097 -78 719 397 
Q 266 969 266 2259 
z
M 844 2259 
Q 844 1131 1108 757 
Q 1372 384 1759 384 
Q 2147 384 2411 759 
Q 2675 1134 2675 2259 
Q 2675 3391 2411 3762 
Q 2147 4134 1753 4134 
Q 1366 4134 1134 3806 
Q 844 3388 844 2259 
z
" transform="scale(0.015625)"/>
       </defs>
       <use xlink:href="#ArialMT-31"/>
       <use xlink:href="#ArialMT-31" x="48.240234"/>
       <use xlink:href="#ArialMT-3a" x="103.855469"/>
       <use xlink:href="#ArialMT-30" x="131.638672"/>
       <use xlink:href="#ArialMT-30" x="187.253906"/>
       <use xlink:href="#ArialMT-3a" x="242.869141"/>
       <use xlink:href="#ArialMT-30" x="270.652344"/>
       <use xlink:href="#ArialMT-30" x="326.267578"/>
      </g>
     </g>
    </g>
    <g id="xtick_2">
     <g id="line2d_2">
      <path d="M 151.582697 80.64 
L 151.582697 7.2 
" clip-path="url(#p91d641f283)" style="fill: none; stroke: #ffffff; stroke-linecap: round"/>
     </g>
     <g id="text_2">
      <!-- 11:00:15 -->
      <g style="fill: #262626" transform="translate(129.10152 106.832083) rotate(-30) scale(0.066 -0.066)">
       <defs>
        <path id="ArialMT-35" d="M 266 1200 
L 856 1250 
Q 922 819 1161 601 
Q 1400 384 1738 384 
Q 2144 384 2425 690 
Q 2706 997 2706 1503 
Q 2706 1984 2436 2262 
Q 2166 2541 1728 2541 
Q 1456 2541 1237 2417 
Q 1019 2294 894 2097 
L 366 2166 
L 809 4519 
L 3088 4519 
L 3088 3981 
L 1259 3981 
L 1013 2750 
Q 1425 3038 1878 3038 
Q 2478 3038 2890 2622 
Q 3303 2206 3303 1553 
Q 3303 931 2941 478 
Q 2500 -78 1738 -78 
Q 1113 -78 717 272 
Q 322 622 266 1200 
z
" transform="scale(0.015625)"/>
       </defs>
       <use xlink:href="#ArialMT-31"/>
       <use xlink:href="#ArialMT-31" x="48.240234"/>
       <use xlink:href="#ArialMT-3a" x="103.855469"/>
       <use xlink:href="#ArialMT-30" x="131.638672"/>
       <use xlink:href="#ArialMT-30" x="187.253906"/>
       <use xlink:href="#ArialMT-3a" x="242.869141"/>
       <use xlink:href="#ArialMT-31" x="270.652344"/>
       <use xlink:href="#ArialMT-35" x="326.267578"/>
      </g>
     </g>
    </g>
    <g id="xtick_3">
     <g id="line2d_3">
      <path d="M 233.313911 80.64 
L 233.313911 7.2 
" clip-path="url(#p91d641f283)" style="fill: none; stroke: #ffffff; stroke-linecap: round"/>
     </g>
     <g id="text_3">
      <!-- 11:00:30 -->
      <g style="fill: #262626" transform="translate(210.832735 106.832083) rotate(-30) scale(0.066 -0.066)">
       <defs>
        <path id="ArialMT-33" d="M 269 1209 
L 831 1284 
Q 928 806 1161 595 
Q 1394 384 1728 384 
Q 2125 384 2398 659 
Q 2672 934 2672 1341 
Q 2672 1728 2419 1979 
Q 2166 2231 1775 2231 
Q 1616 2231 1378 2169 
L 1441 2663 
Q 1497 2656 1531 2656 
Q 1891 2656 2178 2843 
Q 2466 3031 2466 3422 
Q 2466 3731 2256 3934 
Q 2047 4138 1716 4138 
Q 1388 4138 1169 3931 
Q 950 3725 888 3313 
L 325 3413 
Q 428 3978 793 4289 
Q 1159 4600 1703 4600 
Q 2078 4600 2393 4439 
Q 2709 4278 2876 4000 
Q 3044 3722 3044 3409 
Q 3044 3113 2884 2869 
Q 2725 2625 2413 2481 
Q 2819 2388 3044 2092 
Q 3269 1797 3269 1353 
Q 3269 753 2831 336 
Q 2394 -81 1725 -81 
Q 1122 -81 723 278 
Q 325 638 269 1209 
z
" transform="scale(0.015625)"/>
       </defs>
       <use xlink:href="#ArialMT-31"/>
       <use xlink:href="#ArialMT-31" x="48.240234"/>
       <use xlink:href="#ArialMT-3a" x="103.855469"/>
       <use xlink:href="#ArialMT-30" x="131.638672"/>
       <use xlink:href="#ArialMT-30" x="187.253906"/>
       <use xlink:href="#ArialMT-3a" x="242.869141"/>
       <use xlink:href="#ArialMT-33" x="270.652344"/>
       <use xlink:href="#ArialMT-30" x="326.267578"/>
      </g>
     </g>
    </g>
    <g id="xtick_4">
     <g id="line2d_4">
      <path d="M 315.045126 80.64 
L 315.045126 7.2 
" clip-path="url(#p91d641f283)" style="fill: none; stroke: #ffffff; stroke-linecap: round"/>
     </g>
     <g id="text_4">
      <!-- 11:00:45 -->
      <g style="fill: #262626" transform="translate(292.563949 106.832083) rotate(-30) scale(0.066 -0.066)">
       <defs>
        <path id="ArialMT-34" d="M 2069 0 
L 2069 1097 
L 81 1097 
L 81 1613 
L 2172 4581 
L 2631 4581 
L 2631 1613 
L 3250 1613 
L 3250 1097 
L 2631 1097 
L 2631 0 
L 2069 0 
z
M 2069 1613 
L 2069 3678 
L 634 1613 
L 2069 1613 
z
" transform="scale(0.015625)"/>
       </defs>
       <use xlink:href="#ArialMT-31"/>
       <use xlink:href="#ArialMT-31" x="48.240234"/>
       <use xlink:href="#ArialMT-3a" x="103.855469"/>
       <use xlink:href="#ArialMT-30" x="131.638672"/>
       <use xlink:href="#ArialMT-30" x="187.253906"/>
       <use xlink:href="#ArialMT-3a" x="242.869141"/>
       <use xlink:href="#ArialMT-34" x="270.652344"/>
       <use xlink:href="#ArialMT-35" x="326.267578"/>
      </g>
     </g>
    </g>
    <g id="xtick_5">
     <g id="line2d_5">
      <path d="M 396.77634 80.64 
L 396.77634 7.2 
" clip-path="url(#p91d641f283)" style="fill: none; stroke: #ffffff; stroke-linecap: round"/>
     </g>
     <g id="text_5">
      <!-- 11:01:00 -->
      <g style="fill: #262626" transform="translate(374.295164 106.832083) rotate(-30) scale(0.066 -0.066)">
       <use xlink:href="#ArialMT-31"/>
       <use xlink:href="#ArialMT-31" x="48.240234"/>
       <use xlink:href="#ArialMT-3a" x="103.855469"/>
       <use xlink:href="#ArialMT-30" x="131.638672"/>
       <use xlink:href="#ArialMT-31" x="187.253906"/>
       <use xlink:href="#ArialMT-3a" x="242.869141"/>
       <use xlink:href="#ArialMT-30" x="270.652344"/>
       <use xlink:href="#ArialMT-30" x="326.267578"/>
      </g>
     </g>
    </g>
    <g id="xtick_6">
     <g id="line2d_6">
      <path d="M 478.507556 80.64 
L 478.507556 7.2 
" clip-path="url(#p91d641f283)" style="fill: none; stroke: #ffffff; stroke-linecap: round"/>
     </g>
     <g id="text_6">
      <!-- 11:01:15 -->
      <g style="fill: #262626" transform="translate(456.026379 106.832083) rotate(-30) scale(0.066 -0.066)">
       <use xlink:href="#ArialMT-31"/>
       <use xlink:href="#ArialMT-31" x="48.240234"/>
       <use xlink:href="#ArialMT-3a" x="103.855469"/>
       <use xlink:href="#ArialMT-30" x="131.638672"/>
       <use xlink:href="#ArialMT-31" x="187.253906"/>
       <use xlink:href="#ArialMT-3a" x="242.869141"/>
       <use xlink:href="#ArialMT-31" x="270.652344"/>
       <use xlink:href="#ArialMT-35" x="326.267578"/>
      </g>
     </g>
    </g>
    <g id="xtick_7">
     <g id="line2d_7">
      <path d="M 560.238769 80.64 
L 560.238769 7.2 
" clip-path="url(#p91d641f283)" style="fill: none; stroke: #ffffff; stroke-linecap: round"/>
     </g>
     <g id="text_7">
      <!-- 11:01:30 -->
      <g style="fill: #262626" transform="translate(537.757592 106.832083) rotate(-30) scale(0.066 -0.066)">
       <use xlink:href="#ArialMT-31"/>
       <use xlink:href="#ArialMT-31" x="48.240234"/>
       <use xlink:href="#ArialMT-3a" x="103.855469"/>
       <use xlink:href="#ArialMT-30" x="131.638672"/>
       <use xlink:href="#ArialMT-31" x="187.253906"/>
       <use xlink:href="#ArialMT-3a" x="242.869141"/>
       <use xlink:href="#ArialMT-33" x="270.652344"/>
       <use xlink:href="#ArialMT-30" x="326.267578"/>
      </g>
     </g>
    </g>
    <g id="xtick_8">
     <g id="line2d_8">
      <path d="M 641.969983 80.64 
L 641.969983 7.2 
" clip-path="url(#p91d641f283)" style="fill: none; stroke: #ffffff; stroke-linecap: round"/>
     </g>
     <g id="text_8">
      <!-- 11:01:45 -->
      <g style="fill: #262626" transform="translate(619.488807 106.832083) rotate(-30) scale(0.066 -0.066)">
       <use xlink:href="#ArialMT-31"/>
       <use xlink:href="#ArialMT-31" x="48.240234"/>
       <use xlink:href="#ArialMT-3a" x="103.855469"/>
       <use xlink:href="#ArialMT-30" x="131.638672"/>
       <use xlink:href="#ArialMT-31" x="187.253906"/>
       <use xlink:href="#ArialMT-3a" x="242.869141"/>
       <use xlink:href="#ArialMT-34" x="270.652344"/>
       <use xlink:href="#ArialMT-35" x="326.267578"/>
      </g>
     </g>
    </g>
   </g>
   <g id="matplotlib.axis_2">
    <g id="ytick_1">
     <g id="line2d_9">
      <path d="M 47.928787 78.318522 
L 717.528788 78.318522 
" clip-path="url(#p91d641f283)" style="fill: none; stroke: #ffffff; stroke-linecap: round"/>
     </g>
     <g id="text_9">
      <!-- −1.0 -->
      <g style="fill: #262626" transform="translate(25.399975 80.6806) scale(0.066 -0.066)">
       <defs>
        <path id="ArialMT-2212" d="M 3381 1997 
L 356 1997 
L 356 2522 
L 3381 2522 
L 3381 1997 
z
" transform="scale(0.015625)"/>
        <path id="ArialMT-2e" d="M 581 0 
L 581 641 
L 1222 641 
L 1222 0 
L 581 0 
z
" transform="scale(0.015625)"/>
       </defs>
       <use xlink:href="#ArialMT-2212"/>
       <use xlink:href="#ArialMT-31" x="58.398438"/>
       <use xlink:href="#ArialMT-2e" x="114.013672"/>
       <use xlink:href="#ArialMT-30" x="141.796875"/>
      </g>
     </g>
    </g>
    <g id="ytick_2">
     <g id="line2d_10">
      <path d="M 47.928787 61.373437 
L 717.528788 61.373437 
" clip-path="url(#p91d641f283)" style="fill: none; stroke: #ffffff; stroke-linecap: round"/>
     </g>
     <g id="text_10">
      <!-- −0.5 -->
      <g style="fill: #262626" transform="translate(25.399975 63.735515) scale(0.066 -0.066)">
       <use xlink:href="#ArialMT-2212"/>
       <use xlink:href="#ArialMT-30" x="58.398438"/>
       <use xlink:href="#ArialMT-2e" x="114.013672"/>
       <use xlink:href="#ArialMT-35" x="141.796875"/>
      </g>
     </g>
    </g>
    <g id="ytick_3">
     <g id="line2d_11">
      <path d="M 47.928787 44.428352 
L 717.528788 44.428352 
" clip-path="url(#p91d641f283)" style="fill: none; stroke: #ffffff; stroke-linecap: round"/>
     </g>
     <g id="text_11">
      <!-- 0.0 -->
      <g style="fill: #262626" transform="translate(29.254787 46.79043) scale(0.066 -0.066)">
       <use xlink:href="#ArialMT-30"/>
       <use xlink:href="#ArialMT-2e" x="55.615234"/>
       <use xlink:href="#ArialMT-30" x="83.398438"/>
      </g>
     </g>
    </g>
    <g id="ytick_4">
     <g id="line2d_12">
      <path d="M 47.928787 27.483267 
L 717.528788 27.483267 
" clip-path="url(#p91d641f283)" style="fill: none; stroke: #ffffff; stroke-linecap: round"/>
     </g>
     <g id="text_12">
      <!-- 0.5 -->
      <g style="fill: #262626" transform="translate(29.254787 29.845345) scale(0.066 -0.066)">
       <use xlink:href="#ArialMT-30"/>
       <use xlink:href="#ArialMT-2e" x="55.615234"/>
       <use xlink:href="#ArialMT-35" x="83.398438"/>
      </g>
     </g>
    </g>
    <g id="ytick_5">
     <g id="line2d_13">
      <path d="M 47.928787 10.538182 
L 717.528788 10.538182 
" clip-path="url(#p91d641f283)" style="fill: none; stroke: #ffffff; stroke-linecap: round"/>
     </g>
     <g id="text_13">
      <!-- 1.0 -->
      <g style="fill: #262626" transform="translate(29.254787 12.90026) scale(0.066 -0.066)">
       <use xlink:href="#ArialMT-31"/>
       <use xlink:href="#ArialMT-2e" x="55.615234"/>
       <use xlink:href="#ArialMT-30" x="83.398438"/>
      </g>
     </g>
    </g>
    <g id="text_14">
     <!-- Vertical -->
     <g style="fill: #262626" transform="translate(12.353625 55.72575) rotate(-90) scale(0.072 -0.072)">
      <defs>
       <path id="ArialMT-56" d="M 1803 0 
L 28 4581 
L 684 4581 
L 1875 1253 
Q 2019 853 2116 503 
Q 2222 878 2363 1253 
L 3600 4581 
L 4219 4581 
L 2425 0 
L 1803 0 
z
" transform="scale(0.015625)"/>
       <path id="ArialMT-65" d="M 2694 1069 
L 3275 997 
Q 3138 488 2766 206 
Q 2394 -75 1816 -75 
Q 1088 -75 661 373 
Q 234 822 234 1631 
Q 234 2469 665 2931 
Q 1097 3394 1784 3394 
Q 2450 3394 2872 2941 
Q 3294 2488 3294 1666 
Q 3294 1616 3291 1516 
L 816 1516 
Q 847 969 1125 678 
Q 1403 388 1819 388 
Q 2128 388 2347 550 
Q 2566 713 2694 1069 
z
M 847 1978 
L 2700 1978 
Q 2663 2397 2488 2606 
Q 2219 2931 1791 2931 
Q 1403 2931 1139 2672 
Q 875 2413 847 1978 
z
" transform="scale(0.015625)"/>
       <path id="ArialMT-72" d="M 416 0 
L 416 3319 
L 922 3319 
L 922 2816 
Q 1116 3169 1280 3281 
Q 1444 3394 1641 3394 
Q 1925 3394 2219 3213 
L 2025 2691 
Q 1819 2813 1613 2813 
Q 1428 2813 1281 2702 
Q 1134 2591 1072 2394 
Q 978 2094 978 1738 
L 978 0 
L 416 0 
z
" transform="scale(0.015625)"/>
       <path id="ArialMT-74" d="M 1650 503 
L 1731 6 
Q 1494 -44 1306 -44 
Q 1000 -44 831 53 
Q 663 150 594 308 
Q 525 466 525 972 
L 525 2881 
L 113 2881 
L 113 3319 
L 525 3319 
L 525 4141 
L 1084 4478 
L 1084 3319 
L 1650 3319 
L 1650 2881 
L 1084 2881 
L 1084 941 
Q 1084 700 1114 631 
Q 1144 563 1211 522 
Q 1278 481 1403 481 
Q 1497 481 1650 503 
z
" transform="scale(0.015625)"/>
       <path id="ArialMT-69" d="M 425 3934 
L 425 4581 
L 988 4581 
L 988 3934 
L 425 3934 
z
M 425 0 
L 425 3319 
L 988 3319 
L 988 0 
L 425 0 
z
" transform="scale(0.015625)"/>
       <path id="ArialMT-63" d="M 2588 1216 
L 3141 1144 
Q 3050 572 2676 248 
Q 2303 -75 1759 -75 
Q 1078 -75 664 370 
Q 250 816 250 1647 
Q 250 2184 428 2587 
Q 606 2991 970 3192 
Q 1334 3394 1763 3394 
Q 2303 3394 2647 3120 
Q 2991 2847 3088 2344 
L 2541 2259 
Q 2463 2594 2264 2762 
Q 2066 2931 1784 2931 
Q 1359 2931 1093 2626 
Q 828 2322 828 1663 
Q 828 994 1084 691 
Q 1341 388 1753 388 
Q 2084 388 2306 591 
Q 2528 794 2588 1216 
z
" transform="scale(0.015625)"/>
       <path id="ArialMT-61" d="M 2588 409 
Q 2275 144 1986 34 
Q 1697 -75 1366 -75 
Q 819 -75 525 192 
Q 231 459 231 875 
Q 231 1119 342 1320 
Q 453 1522 633 1644 
Q 813 1766 1038 1828 
Q 1203 1872 1538 1913 
Q 2219 1994 2541 2106 
Q 2544 2222 2544 2253 
Q 2544 2597 2384 2738 
Q 2169 2928 1744 2928 
Q 1347 2928 1158 2789 
Q 969 2650 878 2297 
L 328 2372 
Q 403 2725 575 2942 
Q 747 3159 1072 3276 
Q 1397 3394 1825 3394 
Q 2250 3394 2515 3294 
Q 2781 3194 2906 3042 
Q 3031 2891 3081 2659 
Q 3109 2516 3109 2141 
L 3109 1391 
Q 3109 606 3145 398 
Q 3181 191 3288 0 
L 2700 0 
Q 2613 175 2588 409 
z
M 2541 1666 
Q 2234 1541 1622 1453 
Q 1275 1403 1131 1340 
Q 988 1278 909 1158 
Q 831 1038 831 891 
Q 831 666 1001 516 
Q 1172 366 1500 366 
Q 1825 366 2078 508 
Q 2331 650 2450 897 
Q 2541 1088 2541 1459 
L 2541 1666 
z
" transform="scale(0.015625)"/>
       <path id="ArialMT-6c" d="M 409 0 
L 409 4581 
L 972 4581 
L 972 0 
L 409 0 
z
" transform="scale(0.015625)"/>
      </defs>
      <use xlink:href="#ArialMT-56"/>
      <use xlink:href="#ArialMT-65" x="61.199219"/>
      <use xlink:href="#ArialMT-72" x="116.814453"/>
      <use xlink:href="#ArialMT-74" x="150.115234"/>
      <use xlink:href="#ArialMT-69" x="177.898438"/>
      <use xlink:href="#ArialMT-63" x="200.115234"/>
      <use xlink:href="#ArialMT-61" x="250.115234"/>
      <use xlink:href="#ArialMT-6c" x="305.730469"/>
     </g>
     <!-- Displacement [m] -->
     <g style="fill: #262626" transform="translate(19.968975 71.727188) rotate(-90) scale(0.072 -0.072)">
      <defs>
       <path id="ArialMT-44" d="M 494 0 
L 494 4581 
L 2072 4581 
Q 2606 4581 2888 4516 
Q 3281 4425 3559 4188 
Q 3922 3881 4101 3404 
Q 4281 2928 4281 2316 
Q 4281 1794 4159 1391 
Q 4038 988 3847 723 
Q 3656 459 3429 307 
Q 3203 156 2883 78 
Q 2563 0 2147 0 
L 494 0 
z
M 1100 541 
L 2078 541 
Q 2531 541 2789 625 
Q 3047 709 3200 863 
Q 3416 1078 3536 1442 
Q 3656 1806 3656 2325 
Q 3656 3044 3420 3430 
Q 3184 3816 2847 3947 
Q 2603 4041 2063 4041 
L 1100 4041 
L 1100 541 
z
" transform="scale(0.015625)"/>
       <path id="ArialMT-73" d="M 197 991 
L 753 1078 
Q 800 744 1014 566 
Q 1228 388 1613 388 
Q 2000 388 2187 545 
Q 2375 703 2375 916 
Q 2375 1106 2209 1216 
Q 2094 1291 1634 1406 
Q 1016 1563 777 1677 
Q 538 1791 414 1992 
Q 291 2194 291 2438 
Q 291 2659 392 2848 
Q 494 3038 669 3163 
Q 800 3259 1026 3326 
Q 1253 3394 1513 3394 
Q 1903 3394 2198 3281 
Q 2494 3169 2634 2976 
Q 2775 2784 2828 2463 
L 2278 2388 
Q 2241 2644 2061 2787 
Q 1881 2931 1553 2931 
Q 1166 2931 1000 2803 
Q 834 2675 834 2503 
Q 834 2394 903 2306 
Q 972 2216 1119 2156 
Q 1203 2125 1616 2013 
Q 2213 1853 2448 1751 
Q 2684 1650 2818 1456 
Q 2953 1263 2953 975 
Q 2953 694 2789 445 
Q 2625 197 2315 61 
Q 2006 -75 1616 -75 
Q 969 -75 630 194 
Q 291 463 197 991 
z
" transform="scale(0.015625)"/>
       <path id="ArialMT-70" d="M 422 -1272 
L 422 3319 
L 934 3319 
L 934 2888 
Q 1116 3141 1344 3267 
Q 1572 3394 1897 3394 
Q 2322 3394 2647 3175 
Q 2972 2956 3137 2557 
Q 3303 2159 3303 1684 
Q 3303 1175 3120 767 
Q 2938 359 2589 142 
Q 2241 -75 1856 -75 
Q 1575 -75 1351 44 
Q 1128 163 984 344 
L 984 -1272 
L 422 -1272 
z
M 931 1641 
Q 931 1000 1190 694 
Q 1450 388 1819 388 
Q 2194 388 2461 705 
Q 2728 1022 2728 1688 
Q 2728 2322 2467 2637 
Q 2206 2953 1844 2953 
Q 1484 2953 1207 2617 
Q 931 2281 931 1641 
z
" transform="scale(0.015625)"/>
       <path id="ArialMT-6d" d="M 422 0 
L 422 3319 
L 925 3319 
L 925 2853 
Q 1081 3097 1340 3245 
Q 1600 3394 1931 3394 
Q 2300 3394 2536 3241 
Q 2772 3088 2869 2813 
Q 3263 3394 3894 3394 
Q 4388 3394 4653 3120 
Q 4919 2847 4919 2278 
L 4919 0 
L 4359 0 
L 4359 2091 
Q 4359 2428 4304 2576 
Q 4250 2725 4106 2815 
Q 3963 2906 3769 2906 
Q 3419 2906 3187 2673 
Q 2956 2441 2956 1928 
L 2956 0 
L 2394 0 
L 2394 2156 
Q 2394 2531 2256 2718 
Q 2119 2906 1806 2906 
Q 1569 2906 1367 2781 
Q 1166 2656 1075 2415 
Q 984 2175 984 1722 
L 984 0 
L 422 0 
z
" transform="scale(0.015625)"/>
       <path id="ArialMT-6e" d="M 422 0 
L 422 3319 
L 928 3319 
L 928 2847 
Q 1294 3394 1984 3394 
Q 2284 3394 2536 3286 
Q 2788 3178 2913 3003 
Q 3038 2828 3088 2588 
Q 3119 2431 3119 2041 
L 3119 0 
L 2556 0 
L 2556 2019 
Q 2556 2363 2490 2533 
Q 2425 2703 2258 2804 
Q 2091 2906 1866 2906 
Q 1506 2906 1245 2678 
Q 984 2450 984 1813 
L 984 0 
L 422 0 
z
" transform="scale(0.015625)"/>
       <path id="ArialMT-20" transform="scale(0.015625)"/>
       <path id="ArialMT-5b" d="M 434 -1272 
L 434 4581 
L 1675 4581 
L 1675 4116 
L 997 4116 
L 997 -806 
L 1675 -806 
L 1675 -1272 
L 434 -1272 
z
" transform="scale(0.015625)"/>
       <path id="ArialMT-5d" d="M 1363 -1272 
L 122 -1272 
L 122 -806 
L 800 -806 
L 800 4116 
L 122 4116 
L 122 4581 
L 1363 4581 
L 1363 -1272 
z
" transform="scale(0.015625)"/>
      </defs>
      <use xlink:href="#ArialMT-44"/>
      <use xlink:href="#ArialMT-69" x="72.216797"/>
      <use xlink:href="#ArialMT-73" x="94.433594"/>
      <use xlink:href="#ArialMT-70" x="144.433594"/>
      <use xlink:href="#ArialMT-6c" x="200.048828"/>
      <use xlink:href="#ArialMT-61" x="222.265625"/>
      <use xlink:href="#ArialMT-63" x="277.880859"/>
      <use xlink:href="#ArialMT-65" x="327.880859"/>
      <use xlink:href="#ArialMT-6d" x="383.496094"/>
      <use xlink:href="#ArialMT-65" x="466.796875"/>
      <use xlink:href="#ArialMT-6e" x="522.412109"/>
      <use xlink:href="#ArialMT-74" x="578.027344"/>
      <use xlink:href="#ArialMT-20" x="605.810547"/>
      <use xlink:href="#ArialMT-5b" x="633.59375"/>
      <use xlink:href="#ArialMT-6d" x="661.376953"/>
      <use xlink:href="#ArialMT-5d" x="744.677734"/>
     </g>
    </g>
   </g>
   <g id="line2d_14">
    <path d="M 78.36515 77.301818 
L 82.621981 76.624013 
L 86.878814 71.201587 
L 91.135649 71.87939 
L 95.392488 58.323322 
L 99.649323 33.244595 
L 103.90615 10.538182 
L 108.162985 14.605002 
L 112.419818 22.399742 
L 116.676659 25.788758 
L 120.933492 26.466563 
L 125.190327 22.738644 
L 129.447155 33.922399 
L 133.70399 43.072745 
L 137.960828 60.695633 
L 142.217663 69.168177 
L 146.474497 65.779159 
L 150.731324 69.84598 
L 154.988159 64.08465 
L 159.244993 59.678928 
L 163.501833 53.578698 
L 167.758666 56.289911 
L 172.015501 52.900895 
L 176.272329 34.261301 
L 180.529164 16.299511 
L 184.786002 10.538182 
L 193.299671 15.282805 
L 197.5565 38.667023 
L 201.813334 51.206386 
L 206.070174 49.172976 
L 210.327007 55.273206 
L 214.583842 49.511878 
L 218.840671 52.900895 
L 223.097506 65.779159 
L 227.354339 64.423552 
L 231.611178 70.184881 
L 235.868012 60.695633 
L 240.124842 36.633613 
L 244.381675 30.872284 
L 248.63851 31.888989 
L 252.895349 32.22789 
L 257.152184 33.244595 
L 261.409017 34.939104 
L 265.665845 33.244595 
L 269.92268 29.855579 
L 274.179518 51.884189 
L 278.436353 69.507078 
L 282.693187 52.900895 
L 286.950016 36.972515 
L 291.206849 34.261301 
L 295.463684 38.328121 
L 299.720523 47.478468 
L 303.977358 67.134767 
L 308.234191 57.306617 
L 312.491021 39.683728 
L 316.747854 39.005925 
L 321.004694 47.139566 
L 325.261527 37.311417 
L 329.518362 33.922399 
L 333.77519 33.922399 
L 338.032025 37.650318 
L 342.288864 75.268408 
L 346.545699 72.218291 
L 350.802532 47.139566 
L 355.059362 25.449857 
L 359.316195 16.299511 
L 363.57303 21.721937 
L 367.829868 27.822168 
L 372.086703 37.650318 
L 376.343532 50.867484 
L 380.600365 59.678928 
L 384.8572 72.557193 
L 389.114038 73.234998 
L 393.370873 65.101356 
L 397.627707 50.189681 
L 401.884537 29.177776 
L 406.14137 29.855579 
L 410.39821 41.717139 
L 414.655043 50.189681 
L 423.168706 15.282805 
L 427.425541 14.266101 
L 435.939215 52.561993 
L 440.196048 61.373437 
L 444.452883 57.306617 
L 448.709711 66.456962 
L 452.966546 69.84598 
L 457.223384 55.273206 
L 461.480219 47.478468 
L 465.737052 35.616908 
L 469.993882 37.98922 
L 474.250715 39.005925 
L 478.507556 27.822168 
L 482.764389 23.416446 
L 487.021224 38.667023 
L 491.278052 39.344826 
L 495.534885 34.600203 
L 499.79172 43.411647 
L 508.305393 56.289911 
L 512.562222 55.273206 
L 516.819057 60.356732 
L 521.07589 68.829276 
L 525.33273 49.511878 
L 529.589563 33.583498 
L 533.846398 36.633613 
L 538.103227 47.139566 
L 542.360062 41.039335 
L 546.616899 34.261301 
L 550.873734 32.905694 
L 555.130568 25.788758 
L 559.387398 35.278006 
L 563.644231 46.122861 
L 567.901066 57.306617 
L 572.157905 63.406847 
L 576.41474 66.795865 
L 584.928403 31.211186 
L 589.185236 27.144366 
L 593.442076 45.783959 
L 597.698909 57.98442 
L 601.955744 42.733844 
L 606.212572 32.905694 
L 610.469405 34.600203 
L 614.726246 55.273206 
L 623.239914 29.855579 
L 627.496742 42.394942 
L 631.753577 53.239796 
L 636.01041 46.461762 
L 640.26725 41.039335 
L 644.524083 45.445057 
L 648.780913 41.378237 
L 653.037746 55.273206 
L 657.294581 52.900895 
L 661.55142 46.461762 
L 665.808255 46.122861 
L 670.065088 44.428352 
L 674.321918 62.05124 
L 678.578752 66.118061 
L 682.835591 50.189681 
L 687.092424 32.22789 
L 687.092424 32.22789 
" clip-path="url(#p91d641f283)" style="fill: none; stroke: #4c72b0; stroke-width: 0.5; stroke-linecap: round"/>
    <defs>
     <path id="m9980f5bc62" d="M 0 0.75 
C 0.198902 0.75 0.389685 0.670975 0.53033 0.53033 
C 0.670975 0.389685 0.75 0.198902 0.75 0 
C 0.75 -0.198902 0.670975 -0.389685 0.53033 -0.53033 
C 0.389685 -0.670975 0.198902 -0.75 0 -0.75 
C -0.198902 -0.75 -0.389685 -0.670975 -0.53033 -0.53033 
C -0.670975 -0.389685 -0.75 -0.198902 -0.75 0 
C -0.75 0.198902 -0.670975 0.389685 -0.53033 0.53033 
C -0.389685 0.670975 -0.198902 0.75 0 0.75 
z
" style="stroke: #4c72b0"/>
    </defs>
    <g clip-path="url(#p91d641f283)">
     <use xlink:href="#m9980f5bc62" x="78.36515" y="77.301818" style="fill: #4c72b0; stroke: #4c72b0"/>
     <use xlink:href="#m9980f5bc62" x="82.621981" y="76.624013" style="fill: #4c72b0; stroke: #4c72b0"/>
     <use xlink:href="#m9980f5bc62" x="86.878814" y="71.201587" style="fill: #4c72b0; stroke: #4c72b0"/>
     <use xlink:href="#m9980f5bc62" x="91.135649" y="71.87939" style="fill: #4c72b0; stroke: #4c72b0"/>
     <use xlink:href="#m9980f5bc62" x="95.392488" y="58.323322" style="fill: #4c72b0; stroke: #4c72b0"/>
     <use xlink:href="#m9980f5bc62" x="99.649323" y="33.244595" style="fill: #4c72b0; stroke: #4c72b0"/>
     <use xlink:href="#m9980f5bc62" x="103.90615" y="10.538182" style="fill: #4c72b0; stroke: #4c72b0"/>
     <use xlink:href="#m9980f5bc62" x="108.162985" y="14.605002" style="fill: #4c72b0; stroke: #4c72b0"/>
     <use xlink:href="#m9980f5bc62" x="112.419818" y="22.399742" style="fill: #4c72b0; stroke: #4c72b0"/>
     <use xlink:href="#m9980f5bc62" x="116.676659" y="25.788758" style="fill: #4c72b0; stroke: #4c72b0"/>
     <use xlink:href="#m9980f5bc62" x="120.933492" y="26.466563" style="fill: #4c72b0; stroke: #4c72b0"/>
     <use xlink:href="#m9980f5bc62" x="125.190327" y="22.738644" style="fill: #4c72b0; stroke: #4c72b0"/>
     <use xlink:href="#m9980f5bc62" x="129.447155" y="33.922399" style="fill: #4c72b0; stroke: #4c72b0"/>
     <use xlink:href="#m9980f5bc62" x="133.70399" y="43.072745" style="fill: #4c72b0; stroke: #4c72b0"/>
     <use xlink:href="#m9980f5bc62" x="137.960828" y="60.695633" style="fill: #4c72b0; stroke: #4c72b0"/>
     <use xlink:href="#m9980f5bc62" x="142.217663" y="69.168177" style="fill: #4c72b0; stroke: #4c72b0"/>
     <use xlink:href="#m9980f5bc62" x="146.474497" y="65.779159" style="fill: #4c72b0; stroke: #4c72b0"/>
     <use xlink:href="#m9980f5bc62" x="150.731324" y="69.84598" style="fill: #4c72b0; stroke: #4c72b0"/>
     <use xlink:href="#m9980f5bc62" x="154.988159" y="64.08465" style="fill: #4c72b0; stroke: #4c72b0"/>
     <use xlink:href="#m9980f5bc62" x="159.244993" y="59.678928" style="fill: #4c72b0; stroke: #4c72b0"/>
     <use xlink:href="#m9980f5bc62" x="163.501833" y="53.578698" style="fill: #4c72b0; stroke: #4c72b0"/>
     <use xlink:href="#m9980f5bc62" x="167.758666" y="56.289911" style="fill: #4c72b0; stroke: #4c72b0"/>
     <use xlink:href="#m9980f5bc62" x="172.015501" y="52.900895" style="fill: #4c72b0; stroke: #4c72b0"/>
     <use xlink:href="#m9980f5bc62" x="176.272329" y="34.261301" style="fill: #4c72b0; stroke: #4c72b0"/>
     <use xlink:href="#m9980f5bc62" x="180.529164" y="16.299511" style="fill: #4c72b0; stroke: #4c72b0"/>
     <use xlink:href="#m9980f5bc62" x="184.786002" y="10.538182" style="fill: #4c72b0; stroke: #4c72b0"/>
     <use xlink:href="#m9980f5bc62" x="189.042837" y="12.910493" style="fill: #4c72b0; stroke: #4c72b0"/>
     <use xlink:href="#m9980f5bc62" x="193.299671" y="15.282805" style="fill: #4c72b0; stroke: #4c72b0"/>
     <use xlink:href="#m9980f5bc62" x="197.5565" y="38.667023" style="fill: #4c72b0; stroke: #4c72b0"/>
     <use xlink:href="#m9980f5bc62" x="201.813334" y="51.206386" style="fill: #4c72b0; stroke: #4c72b0"/>
     <use xlink:href="#m9980f5bc62" x="206.070174" y="49.172976" style="fill: #4c72b0; stroke: #4c72b0"/>
     <use xlink:href="#m9980f5bc62" x="210.327007" y="55.273206" style="fill: #4c72b0; stroke: #4c72b0"/>
     <use xlink:href="#m9980f5bc62" x="214.583842" y="49.511878" style="fill: #4c72b0; stroke: #4c72b0"/>
     <use xlink:href="#m9980f5bc62" x="218.840671" y="52.900895" style="fill: #4c72b0; stroke: #4c72b0"/>
     <use xlink:href="#m9980f5bc62" x="223.097506" y="65.779159" style="fill: #4c72b0; stroke: #4c72b0"/>
     <use xlink:href="#m9980f5bc62" x="227.354339" y="64.423552" style="fill: #4c72b0; stroke: #4c72b0"/>
     <use xlink:href="#m9980f5bc62" x="231.611178" y="70.184881" style="fill: #4c72b0; stroke: #4c72b0"/>
     <use xlink:href="#m9980f5bc62" x="235.868012" y="60.695633" style="fill: #4c72b0; stroke: #4c72b0"/>
     <use xlink:href="#m9980f5bc62" x="240.124842" y="36.633613" style="fill: #4c72b0; stroke: #4c72b0"/>
     <use xlink:href="#m9980f5bc62" x="244.381675" y="30.872284" style="fill: #4c72b0; stroke: #4c72b0"/>
     <use xlink:href="#m9980f5bc62" x="248.63851" y="31.888989" style="fill: #4c72b0; stroke: #4c72b0"/>
     <use xlink:href="#m9980f5bc62" x="252.895349" y="32.22789" style="fill: #4c72b0; stroke: #4c72b0"/>
     <use xlink:href="#m9980f5bc62" x="257.152184" y="33.244595" style="fill: #4c72b0; stroke: #4c72b0"/>
     <use xlink:href="#m9980f5bc62" x="261.409017" y="34.939104" style="fill: #4c72b0; stroke: #4c72b0"/>
     <use xlink:href="#m9980f5bc62" x="265.665845" y="33.244595" style="fill: #4c72b0; stroke: #4c72b0"/>
     <use xlink:href="#m9980f5bc62" x="269.92268" y="29.855579" style="fill: #4c72b0; stroke: #4c72b0"/>
     <use xlink:href="#m9980f5bc62" x="274.179518" y="51.884189" style="fill: #4c72b0; stroke: #4c72b0"/>
     <use xlink:href="#m9980f5bc62" x="278.436353" y="69.507078" style="fill: #4c72b0; stroke: #4c72b0"/>
     <use xlink:href="#m9980f5bc62" x="282.693187" y="52.900895" style="fill: #4c72b0; stroke: #4c72b0"/>
     <use xlink:href="#m9980f5bc62" x="286.950016" y="36.972515" style="fill: #4c72b0; stroke: #4c72b0"/>
     <use xlink:href="#m9980f5bc62" x="291.206849" y="34.261301" style="fill: #4c72b0; stroke: #4c72b0"/>
     <use xlink:href="#m9980f5bc62" x="295.463684" y="38.328121" style="fill: #4c72b0; stroke: #4c72b0"/>
     <use xlink:href="#m9980f5bc62" x="299.720523" y="47.478468" style="fill: #4c72b0; stroke: #4c72b0"/>
     <use xlink:href="#m9980f5bc62" x="303.977358" y="67.134767" style="fill: #4c72b0; stroke: #4c72b0"/>
     <use xlink:href="#m9980f5bc62" x="308.234191" y="57.306617" style="fill: #4c72b0; stroke: #4c72b0"/>
     <use xlink:href="#m9980f5bc62" x="312.491021" y="39.683728" style="fill: #4c72b0; stroke: #4c72b0"/>
     <use xlink:href="#m9980f5bc62" x="316.747854" y="39.005925" style="fill: #4c72b0; stroke: #4c72b0"/>
     <use xlink:href="#m9980f5bc62" x="321.004694" y="47.139566" style="fill: #4c72b0; stroke: #4c72b0"/>
     <use xlink:href="#m9980f5bc62" x="325.261527" y="37.311417" style="fill: #4c72b0; stroke: #4c72b0"/>
     <use xlink:href="#m9980f5bc62" x="329.518362" y="33.922399" style="fill: #4c72b0; stroke: #4c72b0"/>
     <use xlink:href="#m9980f5bc62" x="333.77519" y="33.922399" style="fill: #4c72b0; stroke: #4c72b0"/>
     <use xlink:href="#m9980f5bc62" x="338.032025" y="37.650318" style="fill: #4c72b0; stroke: #4c72b0"/>
     <use xlink:href="#m9980f5bc62" x="342.288864" y="75.268408" style="fill: #4c72b0; stroke: #4c72b0"/>
     <use xlink:href="#m9980f5bc62" x="346.545699" y="72.218291" style="fill: #4c72b0; stroke: #4c72b0"/>
     <use xlink:href="#m9980f5bc62" x="350.802532" y="47.139566" style="fill: #4c72b0; stroke: #4c72b0"/>
     <use xlink:href="#m9980f5bc62" x="355.059362" y="25.449857" style="fill: #4c72b0; stroke: #4c72b0"/>
     <use xlink:href="#m9980f5bc62" x="359.316195" y="16.299511" style="fill: #4c72b0; stroke: #4c72b0"/>
     <use xlink:href="#m9980f5bc62" x="363.57303" y="21.721937" style="fill: #4c72b0; stroke: #4c72b0"/>
     <use xlink:href="#m9980f5bc62" x="367.829868" y="27.822168" style="fill: #4c72b0; stroke: #4c72b0"/>
     <use xlink:href="#m9980f5bc62" x="372.086703" y="37.650318" style="fill: #4c72b0; stroke: #4c72b0"/>
     <use xlink:href="#m9980f5bc62" x="376.343532" y="50.867484" style="fill: #4c72b0; stroke: #4c72b0"/>
     <use xlink:href="#m9980f5bc62" x="380.600365" y="59.678928" style="fill: #4c72b0; stroke: #4c72b0"/>
     <use xlink:href="#m9980f5bc62" x="384.8572" y="72.557193" style="fill: #4c72b0; stroke: #4c72b0"/>
     <use xlink:href="#m9980f5bc62" x="389.114038" y="73.234998" style="fill: #4c72b0; stroke: #4c72b0"/>
     <use xlink:href="#m9980f5bc62" x="393.370873" y="65.101356" style="fill: #4c72b0; stroke: #4c72b0"/>
     <use xlink:href="#m9980f5bc62" x="397.627707" y="50.189681" style="fill: #4c72b0; stroke: #4c72b0"/>
     <use xlink:href="#m9980f5bc62" x="401.884537" y="29.177776" style="fill: #4c72b0; stroke: #4c72b0"/>
     <use xlink:href="#m9980f5bc62" x="406.14137" y="29.855579" style="fill: #4c72b0; stroke: #4c72b0"/>
     <use xlink:href="#m9980f5bc62" x="410.39821" y="41.717139" style="fill: #4c72b0; stroke: #4c72b0"/>
     <use xlink:href="#m9980f5bc62" x="414.655043" y="50.189681" style="fill: #4c72b0; stroke: #4c72b0"/>
     <use xlink:href="#m9980f5bc62" x="418.911878" y="32.905694" style="fill: #4c72b0; stroke: #4c72b0"/>
     <use xlink:href="#m9980f5bc62" x="423.168706" y="15.282805" style="fill: #4c72b0; stroke: #4c72b0"/>
     <use xlink:href="#m9980f5bc62" x="427.425541" y="14.266101" style="fill: #4c72b0; stroke: #4c72b0"/>
     <use xlink:href="#m9980f5bc62" x="431.682374" y="33.583498" style="fill: #4c72b0; stroke: #4c72b0"/>
     <use xlink:href="#m9980f5bc62" x="435.939215" y="52.561993" style="fill: #4c72b0; stroke: #4c72b0"/>
     <use xlink:href="#m9980f5bc62" x="440.196048" y="61.373437" style="fill: #4c72b0; stroke: #4c72b0"/>
     <use xlink:href="#m9980f5bc62" x="444.452883" y="57.306617" style="fill: #4c72b0; stroke: #4c72b0"/>
     <use xlink:href="#m9980f5bc62" x="448.709711" y="66.456962" style="fill: #4c72b0; stroke: #4c72b0"/>
     <use xlink:href="#m9980f5bc62" x="452.966546" y="69.84598" style="fill: #4c72b0; stroke: #4c72b0"/>
     <use xlink:href="#m9980f5bc62" x="457.223384" y="55.273206" style="fill: #4c72b0; stroke: #4c72b0"/>
     <use xlink:href="#m9980f5bc62" x="461.480219" y="47.478468" style="fill: #4c72b0; stroke: #4c72b0"/>
     <use xlink:href="#m9980f5bc62" x="465.737052" y="35.616908" style="fill: #4c72b0; stroke: #4c72b0"/>
     <use xlink:href="#m9980f5bc62" x="469.993882" y="37.98922" style="fill: #4c72b0; stroke: #4c72b0"/>
     <use xlink:href="#m9980f5bc62" x="474.250715" y="39.005925" style="fill: #4c72b0; stroke: #4c72b0"/>
     <use xlink:href="#m9980f5bc62" x="478.507556" y="27.822168" style="fill: #4c72b0; stroke: #4c72b0"/>
     <use xlink:href="#m9980f5bc62" x="482.764389" y="23.416446" style="fill: #4c72b0; stroke: #4c72b0"/>
     <use xlink:href="#m9980f5bc62" x="487.021224" y="38.667023" style="fill: #4c72b0; stroke: #4c72b0"/>
     <use xlink:href="#m9980f5bc62" x="491.278052" y="39.344826" style="fill: #4c72b0; stroke: #4c72b0"/>
     <use xlink:href="#m9980f5bc62" x="495.534885" y="34.600203" style="fill: #4c72b0; stroke: #4c72b0"/>
     <use xlink:href="#m9980f5bc62" x="499.79172" y="43.411647" style="fill: #4c72b0; stroke: #4c72b0"/>
     <use xlink:href="#m9980f5bc62" x="504.048558" y="49.850779" style="fill: #4c72b0; stroke: #4c72b0"/>
     <use xlink:href="#m9980f5bc62" x="508.305393" y="56.289911" style="fill: #4c72b0; stroke: #4c72b0"/>
     <use xlink:href="#m9980f5bc62" x="512.562222" y="55.273206" style="fill: #4c72b0; stroke: #4c72b0"/>
     <use xlink:href="#m9980f5bc62" x="516.819057" y="60.356732" style="fill: #4c72b0; stroke: #4c72b0"/>
     <use xlink:href="#m9980f5bc62" x="521.07589" y="68.829276" style="fill: #4c72b0; stroke: #4c72b0"/>
     <use xlink:href="#m9980f5bc62" x="525.33273" y="49.511878" style="fill: #4c72b0; stroke: #4c72b0"/>
     <use xlink:href="#m9980f5bc62" x="529.589563" y="33.583498" style="fill: #4c72b0; stroke: #4c72b0"/>
     <use xlink:href="#m9980f5bc62" x="533.846398" y="36.633613" style="fill: #4c72b0; stroke: #4c72b0"/>
     <use xlink:href="#m9980f5bc62" x="538.103227" y="47.139566" style="fill: #4c72b0; stroke: #4c72b0"/>
     <use xlink:href="#m9980f5bc62" x="542.360062" y="41.039335" style="fill: #4c72b0; stroke: #4c72b0"/>
     <use xlink:href="#m9980f5bc62" x="546.616899" y="34.261301" style="fill: #4c72b0; stroke: #4c72b0"/>
     <use xlink:href="#m9980f5bc62" x="550.873734" y="32.905694" style="fill: #4c72b0; stroke: #4c72b0"/>
     <use xlink:href="#m9980f5bc62" x="555.130568" y="25.788758" style="fill: #4c72b0; stroke: #4c72b0"/>
     <use xlink:href="#m9980f5bc62" x="559.387398" y="35.278006" style="fill: #4c72b0; stroke: #4c72b0"/>
     <use xlink:href="#m9980f5bc62" x="563.644231" y="46.122861" style="fill: #4c72b0; stroke: #4c72b0"/>
     <use xlink:href="#m9980f5bc62" x="567.901066" y="57.306617" style="fill: #4c72b0; stroke: #4c72b0"/>
     <use xlink:href="#m9980f5bc62" x="572.157905" y="63.406847" style="fill: #4c72b0; stroke: #4c72b0"/>
     <use xlink:href="#m9980f5bc62" x="576.41474" y="66.795865" style="fill: #4c72b0; stroke: #4c72b0"/>
     <use xlink:href="#m9980f5bc62" x="580.671573" y="49.172976" style="fill: #4c72b0; stroke: #4c72b0"/>
     <use xlink:href="#m9980f5bc62" x="584.928403" y="31.211186" style="fill: #4c72b0; stroke: #4c72b0"/>
     <use xlink:href="#m9980f5bc62" x="589.185236" y="27.144366" style="fill: #4c72b0; stroke: #4c72b0"/>
     <use xlink:href="#m9980f5bc62" x="593.442076" y="45.783959" style="fill: #4c72b0; stroke: #4c72b0"/>
     <use xlink:href="#m9980f5bc62" x="597.698909" y="57.98442" style="fill: #4c72b0; stroke: #4c72b0"/>
     <use xlink:href="#m9980f5bc62" x="601.955744" y="42.733844" style="fill: #4c72b0; stroke: #4c72b0"/>
     <use xlink:href="#m9980f5bc62" x="606.212572" y="32.905694" style="fill: #4c72b0; stroke: #4c72b0"/>
     <use xlink:href="#m9980f5bc62" x="610.469405" y="34.600203" style="fill: #4c72b0; stroke: #4c72b0"/>
     <use xlink:href="#m9980f5bc62" x="614.726246" y="55.273206" style="fill: #4c72b0; stroke: #4c72b0"/>
     <use xlink:href="#m9980f5bc62" x="618.983079" y="42.394942" style="fill: #4c72b0; stroke: #4c72b0"/>
     <use xlink:href="#m9980f5bc62" x="623.239914" y="29.855579" style="fill: #4c72b0; stroke: #4c72b0"/>
     <use xlink:href="#m9980f5bc62" x="627.496742" y="42.394942" style="fill: #4c72b0; stroke: #4c72b0"/>
     <use xlink:href="#m9980f5bc62" x="631.753577" y="53.239796" style="fill: #4c72b0; stroke: #4c72b0"/>
     <use xlink:href="#m9980f5bc62" x="636.01041" y="46.461762" style="fill: #4c72b0; stroke: #4c72b0"/>
     <use xlink:href="#m9980f5bc62" x="640.26725" y="41.039335" style="fill: #4c72b0; stroke: #4c72b0"/>
     <use xlink:href="#m9980f5bc62" x="644.524083" y="45.445057" style="fill: #4c72b0; stroke: #4c72b0"/>
     <use xlink:href="#m9980f5bc62" x="648.780913" y="41.378237" style="fill: #4c72b0; stroke: #4c72b0"/>
     <use xlink:href="#m9980f5bc62" x="653.037746" y="55.273206" style="fill: #4c72b0; stroke: #4c72b0"/>
     <use xlink:href="#m9980f5bc62" x="657.294581" y="52.900895" style="fill: #4c72b0; stroke: #4c72b0"/>
     <use xlink:href="#m9980f5bc62" x="661.55142" y="46.461762" style="fill: #4c72b0; stroke: #4c72b0"/>
     <use xlink:href="#m9980f5bc62" x="665.808255" y="46.122861" style="fill: #4c72b0; stroke: #4c72b0"/>
     <use xlink:href="#m9980f5bc62" x="670.065088" y="44.428352" style="fill: #4c72b0; stroke: #4c72b0"/>
     <use xlink:href="#m9980f5bc62" x="674.321918" y="62.05124" style="fill: #4c72b0; stroke: #4c72b0"/>
     <use xlink:href="#m9980f5bc62" x="678.578752" y="66.118061" style="fill: #4c72b0; stroke: #4c72b0"/>
     <use xlink:href="#m9980f5bc62" x="682.835591" y="50.189681" style="fill: #4c72b0; stroke: #4c72b0"/>
     <use xlink:href="#m9980f5bc62" x="687.092424" y="32.22789" style="fill: #4c72b0; stroke: #4c72b0"/>
    </g>
   </g>
   <g id="patch_3">
    <path d="M 47.928787 80.64 
L 47.928787 7.2 
" style="fill: none; stroke: #ffffff; stroke-width: 1.25; stroke-linejoin: miter; stroke-linecap: square"/>
   </g>
   <g id="patch_4">
    <path d="M 717.528788 80.64 
L 717.528788 7.2 
" style="fill: none; stroke: #ffffff; stroke-width: 1.25; stroke-linejoin: miter; stroke-linecap: square"/>
   </g>
   <g id="patch_5">
    <path d="M 47.928787 80.64 
L 717.528788 80.64 
" style="fill: none; stroke: #ffffff; stroke-width: 1.25; stroke-linejoin: miter; stroke-linecap: square"/>
   </g>
   <g id="patch_6">
    <path d="M 47.928787 7.2 
L 717.528788 7.2 
" style="fill: none; stroke: #ffffff; stroke-width: 1.25; stroke-linejoin: miter; stroke-linecap: square"/>
   </g>
  </g>
 </g>
 <defs>
  <clipPath id="p91d641f283">
   <rect x="47.928787" y="7.2" width="669.6" height="73.44"/>
  </clipPath>
 </defs>
</svg>
