<?xml version="1.0" encoding="utf-8" standalone="no"?>
<!DOCTYPE svg PUBLIC "-//W3C//DTD SVG 1.1//EN"
  "http://www.w3.org/Graphics/SVG/1.1/DTD/svg11.dtd">
<svg xmlns:xlink="http://www.w3.org/1999/xlink" width="377.183337pt" height="105.212895pt" viewBox="0 0 377.183337 105.212895" xmlns="http://www.w3.org/2000/svg" version="1.1">
 <metadata>
  <rdf:RDF xmlns:dc="http://purl.org/dc/elements/1.1/" xmlns:cc="http://creativecommons.org/ns#" xmlns:rdf="http://www.w3.org/1999/02/22-rdf-syntax-ns#">
   <cc:Work>
    <dc:type rdf:resource="http://purl.org/dc/dcmitype/StillImage"/>
    <dc:date>2024-12-09T20:19:18.364042</dc:date>
    <dc:format>image/svg+xml</dc:format>
    <dc:creator>
     <cc:Agent>
      <dc:title>Matplotlib v3.9.0, https://matplotlib.org/</dc:title>
     </cc:Agent>
    </dc:creator>
   </cc:Work>
  </rdf:RDF>
 </metadata>
 <defs>
  <style type="text/css">*{stroke-linejoin: round; stroke-linecap: butt}</style>
 </defs>
 <g id="figure_1">
  <g id="patch_1">
   <path d="M 0 105.212895 
L 377.183337 105.212895 
L 377.183337 0 
L 0 0 
z
" style="fill: #ffffff"/>
  </g>
  <g id="axes_1">
   <g id="patch_2">
    <path d="M 35.183338 68.4 
L 369.983338 68.4 
L 369.983338 7.2 
L 35.183338 7.2 
z
" style="fill: #eaeaf2"/>
   </g>
   <g id="matplotlib.axis_1">
    <g id="xtick_1">
     <g id="line2d_1">
      <path d="M 50.1372 68.4 
L 50.1372 7.2 
" clip-path="url(#p2355d61b70)" style="fill: none; stroke: #ffffff; stroke-linecap: round"/>
     </g>
     <g id="text_1">
      <!-- 11 11:00 -->
      <g style="fill: #262626" transform="translate(35.430774 88.865805) rotate(-30) scale(0.044 -0.044)">
       <defs>
        <path id="ArialMT-31" d="M 2384 0 
L 1822 0 
L 1822 3584 
Q 1619 3391 1289 3197 
Q 959 3003 697 2906 
L 697 3450 
Q 1169 3672 1522 3987 
Q 1875 4303 2022 4600 
L 2384 4600 
L 2384 0 
z
" transform="scale(0.015625)"/>
        <path id="ArialMT-20" transform="scale(0.015625)"/>
        <path id="ArialMT-3a" d="M 578 2678 
L 578 3319 
L 1219 3319 
L 1219 2678 
L 578 2678 
z
M 578 0 
L 578 641 
L 1219 641 
L 1219 0 
L 578 0 
z
" transform="scale(0.015625)"/>
        <path id="ArialMT-30" d="M 266 2259 
Q 266 3072 433 3567 
Q 600 4063 929 4331 
Q 1259 4600 1759 4600 
Q 2128 4600 2406 4451 
Q 2684 4303 2865 4023 
Q 3047 3744 3150 3342 
Q 3253 2941 3253 2259 
Q 3253 1453 3087 958 
Q 2922 463 2592 192 
Q 2263 -78 1759 -78 
Q 1097 -78 719 397 
Q 266 969 266 2259 
z
M 844 2259 
Q 844 1131 1108 757 
Q 1372 384 1759 384 
Q 2147 384 2411 759 
Q 2675 1134 2675 2259 
Q 2675 3391 2411 3762 
Q 2147 4134 1753 4134 
Q 1366 4134 1134 3806 
Q 844 3388 844 2259 
z
" transform="scale(0.015625)"/>
       </defs>
       <use xlink:href="#ArialMT-31"/>
       <use xlink:href="#ArialMT-31" x="48.240234"/>
       <use xlink:href="#ArialMT-20" x="103.855469"/>
       <use xlink:href="#ArialMT-31" x="131.638672"/>
       <use xlink:href="#ArialMT-31" x="179.878906"/>
       <use xlink:href="#ArialMT-3a" x="235.494141"/>
       <use xlink:href="#ArialMT-30" x="263.277344"/>
       <use xlink:href="#ArialMT-30" x="318.892578"/>
      </g>
     </g>
    </g>
    <g id="xtick_2">
     <g id="line2d_2">
      <path d="M 100.886499 68.4 
L 100.886499 7.2 
" clip-path="url(#p2355d61b70)" style="fill: none; stroke: #ffffff; stroke-linecap: round"/>
     </g>
     <g id="text_2">
      <!-- 11 11:05 -->
      <g style="fill: #262626" transform="translate(86.180074 88.865805) rotate(-30) scale(0.044 -0.044)">
       <defs>
        <path id="ArialMT-35" d="M 266 1200 
L 856 1250 
Q 922 819 1161 601 
Q 1400 384 1738 384 
Q 2144 384 2425 690 
Q 2706 997 2706 1503 
Q 2706 1984 2436 2262 
Q 2166 2541 1728 2541 
Q 1456 2541 1237 2417 
Q 1019 2294 894 2097 
L 366 2166 
L 809 4519 
L 3088 4519 
L 3088 3981 
L 1259 3981 
L 1013 2750 
Q 1425 3038 1878 3038 
Q 2478 3038 2890 2622 
Q 3303 2206 3303 1553 
Q 3303 931 2941 478 
Q 2500 -78 1738 -78 
Q 1113 -78 717 272 
Q 322 622 266 1200 
z
" transform="scale(0.015625)"/>
       </defs>
       <use xlink:href="#ArialMT-31"/>
       <use xlink:href="#ArialMT-31" x="48.240234"/>
       <use xlink:href="#ArialMT-20" x="103.855469"/>
       <use xlink:href="#ArialMT-31" x="131.638672"/>
       <use xlink:href="#ArialMT-31" x="179.878906"/>
       <use xlink:href="#ArialMT-3a" x="235.494141"/>
       <use xlink:href="#ArialMT-30" x="263.277344"/>
       <use xlink:href="#ArialMT-35" x="318.892578"/>
      </g>
     </g>
    </g>
    <g id="xtick_3">
     <g id="line2d_3">
      <path d="M 151.635799 68.4 
L 151.635799 7.2 
" clip-path="url(#p2355d61b70)" style="fill: none; stroke: #ffffff; stroke-linecap: round"/>
     </g>
     <g id="text_3">
      <!-- 11 11:10 -->
      <g style="fill: #262626" transform="translate(136.929373 88.865805) rotate(-30) scale(0.044 -0.044)">
       <use xlink:href="#ArialMT-31"/>
       <use xlink:href="#ArialMT-31" x="48.240234"/>
       <use xlink:href="#ArialMT-20" x="103.855469"/>
       <use xlink:href="#ArialMT-31" x="131.638672"/>
       <use xlink:href="#ArialMT-31" x="179.878906"/>
       <use xlink:href="#ArialMT-3a" x="235.494141"/>
       <use xlink:href="#ArialMT-31" x="263.277344"/>
       <use xlink:href="#ArialMT-30" x="318.892578"/>
      </g>
     </g>
    </g>
    <g id="xtick_4">
     <g id="line2d_4">
      <path d="M 202.385098 68.4 
L 202.385098 7.2 
" clip-path="url(#p2355d61b70)" style="fill: none; stroke: #ffffff; stroke-linecap: round"/>
     </g>
     <g id="text_4">
      <!-- 11 11:15 -->
      <g style="fill: #262626" transform="translate(187.678672 88.865805) rotate(-30) scale(0.044 -0.044)">
       <use xlink:href="#ArialMT-31"/>
       <use xlink:href="#ArialMT-31" x="48.240234"/>
       <use xlink:href="#ArialMT-20" x="103.855469"/>
       <use xlink:href="#ArialMT-31" x="131.638672"/>
       <use xlink:href="#ArialMT-31" x="179.878906"/>
       <use xlink:href="#ArialMT-3a" x="235.494141"/>
       <use xlink:href="#ArialMT-31" x="263.277344"/>
       <use xlink:href="#ArialMT-35" x="318.892578"/>
      </g>
     </g>
    </g>
    <g id="xtick_5">
     <g id="line2d_5">
      <path d="M 253.134397 68.4 
L 253.134397 7.2 
" clip-path="url(#p2355d61b70)" style="fill: none; stroke: #ffffff; stroke-linecap: round"/>
     </g>
     <g id="text_5">
      <!-- 11 11:20 -->
      <g style="fill: #262626" transform="translate(238.427972 88.865805) rotate(-30) scale(0.044 -0.044)">
       <defs>
        <path id="ArialMT-32" d="M 3222 541 
L 3222 0 
L 194 0 
Q 188 203 259 391 
Q 375 700 629 1000 
Q 884 1300 1366 1694 
Q 2113 2306 2375 2664 
Q 2638 3022 2638 3341 
Q 2638 3675 2398 3904 
Q 2159 4134 1775 4134 
Q 1369 4134 1125 3890 
Q 881 3647 878 3216 
L 300 3275 
Q 359 3922 746 4261 
Q 1134 4600 1788 4600 
Q 2447 4600 2831 4234 
Q 3216 3869 3216 3328 
Q 3216 3053 3103 2787 
Q 2991 2522 2730 2228 
Q 2469 1934 1863 1422 
Q 1356 997 1212 845 
Q 1069 694 975 541 
L 3222 541 
z
" transform="scale(0.015625)"/>
       </defs>
       <use xlink:href="#ArialMT-31"/>
       <use xlink:href="#ArialMT-31" x="48.240234"/>
       <use xlink:href="#ArialMT-20" x="103.855469"/>
       <use xlink:href="#ArialMT-31" x="131.638672"/>
       <use xlink:href="#ArialMT-31" x="179.878906"/>
       <use xlink:href="#ArialMT-3a" x="235.494141"/>
       <use xlink:href="#ArialMT-32" x="263.277344"/>
       <use xlink:href="#ArialMT-30" x="318.892578"/>
      </g>
     </g>
    </g>
    <g id="xtick_6">
     <g id="line2d_6">
      <path d="M 303.883697 68.4 
L 303.883697 7.2 
" clip-path="url(#p2355d61b70)" style="fill: none; stroke: #ffffff; stroke-linecap: round"/>
     </g>
     <g id="text_6">
      <!-- 11 11:25 -->
      <g style="fill: #262626" transform="translate(289.177271 88.865805) rotate(-30) scale(0.044 -0.044)">
       <use xlink:href="#ArialMT-31"/>
       <use xlink:href="#ArialMT-31" x="48.240234"/>
       <use xlink:href="#ArialMT-20" x="103.855469"/>
       <use xlink:href="#ArialMT-31" x="131.638672"/>
       <use xlink:href="#ArialMT-31" x="179.878906"/>
       <use xlink:href="#ArialMT-3a" x="235.494141"/>
       <use xlink:href="#ArialMT-32" x="263.277344"/>
       <use xlink:href="#ArialMT-35" x="318.892578"/>
      </g>
     </g>
    </g>
    <g id="xtick_7">
     <g id="line2d_7">
      <path d="M 354.632996 68.4 
L 354.632996 7.2 
" clip-path="url(#p2355d61b70)" style="fill: none; stroke: #ffffff; stroke-linecap: round"/>
     </g>
     <g id="text_7">
      <!-- 11 11:30 -->
      <g style="fill: #262626" transform="translate(339.92657 88.865805) rotate(-30) scale(0.044 -0.044)">
       <defs>
        <path id="ArialMT-33" d="M 269 1209 
L 831 1284 
Q 928 806 1161 595 
Q 1394 384 1728 384 
Q 2125 384 2398 659 
Q 2672 934 2672 1341 
Q 2672 1728 2419 1979 
Q 2166 2231 1775 2231 
Q 1616 2231 1378 2169 
L 1441 2663 
Q 1497 2656 1531 2656 
Q 1891 2656 2178 2843 
Q 2466 3031 2466 3422 
Q 2466 3731 2256 3934 
Q 2047 4138 1716 4138 
Q 1388 4138 1169 3931 
Q 950 3725 888 3313 
L 325 3413 
Q 428 3978 793 4289 
Q 1159 4600 1703 4600 
Q 2078 4600 2393 4439 
Q 2709 4278 2876 4000 
Q 3044 3722 3044 3409 
Q 3044 3113 2884 2869 
Q 2725 2625 2413 2481 
Q 2819 2388 3044 2092 
Q 3269 1797 3269 1353 
Q 3269 753 2831 336 
Q 2394 -81 1725 -81 
Q 1122 -81 723 278 
Q 325 638 269 1209 
z
" transform="scale(0.015625)"/>
       </defs>
       <use xlink:href="#ArialMT-31"/>
       <use xlink:href="#ArialMT-31" x="48.240234"/>
       <use xlink:href="#ArialMT-20" x="103.855469"/>
       <use xlink:href="#ArialMT-31" x="131.638672"/>
       <use xlink:href="#ArialMT-31" x="179.878906"/>
       <use xlink:href="#ArialMT-3a" x="235.494141"/>
       <use xlink:href="#ArialMT-33" x="263.277344"/>
       <use xlink:href="#ArialMT-30" x="318.892578"/>
      </g>
     </g>
    </g>
    <g id="text_8">
     <!-- Time -->
     <g style="fill: #262626" transform="translate(197.340463 97.058895) scale(0.048 -0.048)">
      <defs>
       <path id="ArialMT-54" d="M 1659 0 
L 1659 4041 
L 150 4041 
L 150 4581 
L 3781 4581 
L 3781 4041 
L 2266 4041 
L 2266 0 
L 1659 0 
z
" transform="scale(0.015625)"/>
       <path id="ArialMT-69" d="M 425 3934 
L 425 4581 
L 988 4581 
L 988 3934 
L 425 3934 
z
M 425 0 
L 425 3319 
L 988 3319 
L 988 0 
L 425 0 
z
" transform="scale(0.015625)"/>
       <path id="ArialMT-6d" d="M 422 0 
L 422 3319 
L 925 3319 
L 925 2853 
Q 1081 3097 1340 3245 
Q 1600 3394 1931 3394 
Q 2300 3394 2536 3241 
Q 2772 3088 2869 2813 
Q 3263 3394 3894 3394 
Q 4388 3394 4653 3120 
Q 4919 2847 4919 2278 
L 4919 0 
L 4359 0 
L 4359 2091 
Q 4359 2428 4304 2576 
Q 4250 2725 4106 2815 
Q 3963 2906 3769 2906 
Q 3419 2906 3187 2673 
Q 2956 2441 2956 1928 
L 2956 0 
L 2394 0 
L 2394 2156 
Q 2394 2531 2256 2718 
Q 2119 2906 1806 2906 
Q 1569 2906 1367 2781 
Q 1166 2656 1075 2415 
Q 984 2175 984 1722 
L 984 0 
L 422 0 
z
" transform="scale(0.015625)"/>
       <path id="ArialMT-65" d="M 2694 1069 
L 3275 997 
Q 3138 488 2766 206 
Q 2394 -75 1816 -75 
Q 1088 -75 661 373 
Q 234 822 234 1631 
Q 234 2469 665 2931 
Q 1097 3394 1784 3394 
Q 2450 3394 2872 2941 
Q 3294 2488 3294 1666 
Q 3294 1616 3291 1516 
L 816 1516 
Q 847 969 1125 678 
Q 1403 388 1819 388 
Q 2128 388 2347 550 
Q 2566 713 2694 1069 
z
M 847 1978 
L 2700 1978 
Q 2663 2397 2488 2606 
Q 2219 2931 1791 2931 
Q 1403 2931 1139 2672 
Q 875 2413 847 1978 
z
" transform="scale(0.015625)"/>
      </defs>
      <use xlink:href="#ArialMT-54"/>
      <use xlink:href="#ArialMT-69" x="57.333984"/>
      <use xlink:href="#ArialMT-6d" x="79.550781"/>
      <use xlink:href="#ArialMT-65" x="162.851562"/>
     </g>
    </g>
   </g>
   <g id="matplotlib.axis_2">
    <g id="ytick_1">
     <g id="line2d_8">
      <path d="M 35.183338 66.30505 
L 369.983338 66.30505 
" clip-path="url(#p2355d61b70)" style="fill: none; stroke: #ffffff; stroke-linecap: round"/>
     </g>
     <g id="text_9">
      <!-- −2 -->
      <g style="fill: #262626" transform="translate(20.66665 67.879769) scale(0.044 -0.044)">
       <defs>
        <path id="ArialMT-2212" d="M 3381 1997 
L 356 1997 
L 356 2522 
L 3381 2522 
L 3381 1997 
z
" transform="scale(0.015625)"/>
       </defs>
       <use xlink:href="#ArialMT-2212"/>
       <use xlink:href="#ArialMT-32" x="58.398438"/>
      </g>
     </g>
    </g>
    <g id="ytick_2">
     <g id="line2d_9">
      <path d="M 35.183338 52.567676 
L 369.983338 52.567676 
" clip-path="url(#p2355d61b70)" style="fill: none; stroke: #ffffff; stroke-linecap: round"/>
     </g>
     <g id="text_10">
      <!-- −1 -->
      <g style="fill: #262626" transform="translate(20.66665 54.142395) scale(0.044 -0.044)">
       <use xlink:href="#ArialMT-2212"/>
       <use xlink:href="#ArialMT-31" x="58.398438"/>
      </g>
     </g>
    </g>
    <g id="ytick_3">
     <g id="line2d_10">
      <path d="M 35.183338 38.830302 
L 369.983338 38.830302 
" clip-path="url(#p2355d61b70)" style="fill: none; stroke: #ffffff; stroke-linecap: round"/>
     </g>
     <g id="text_11">
      <!-- 0 -->
      <g style="fill: #262626" transform="translate(23.236525 40.405021) scale(0.044 -0.044)">
       <use xlink:href="#ArialMT-30"/>
      </g>
     </g>
    </g>
    <g id="ytick_4">
     <g id="line2d_11">
      <path d="M 35.183338 25.092928 
L 369.983338 25.092928 
" clip-path="url(#p2355d61b70)" style="fill: none; stroke: #ffffff; stroke-linecap: round"/>
     </g>
     <g id="text_12">
      <!-- 1 -->
      <g style="fill: #262626" transform="translate(23.236525 26.667647) scale(0.044 -0.044)">
       <use xlink:href="#ArialMT-31"/>
      </g>
     </g>
    </g>
    <g id="ytick_5">
     <g id="line2d_12">
      <path d="M 35.183338 11.355554 
L 369.983338 11.355554 
" clip-path="url(#p2355d61b70)" style="fill: none; stroke: #ffffff; stroke-linecap: round"/>
     </g>
     <g id="text_13">
      <!-- 2 -->
      <g style="fill: #262626" transform="translate(23.236525 12.930273) scale(0.044 -0.044)">
       <use xlink:href="#ArialMT-32"/>
      </g>
     </g>
    </g>
    <g id="text_14">
     <!-- Vertical -->
     <g style="fill: #262626" transform="translate(10.63575 45.6705) rotate(-90) scale(0.048 -0.048)">
      <defs>
       <path id="ArialMT-56" d="M 1803 0 
L 28 4581 
L 684 4581 
L 1875 1253 
Q 2019 853 2116 503 
Q 2222 878 2363 1253 
L 3600 4581 
L 4219 4581 
L 2425 0 
L 1803 0 
z
" transform="scale(0.015625)"/>
       <path id="ArialMT-72" d="M 416 0 
L 416 3319 
L 922 3319 
L 922 2816 
Q 1116 3169 1280 3281 
Q 1444 3394 1641 3394 
Q 1925 3394 2219 3213 
L 2025 2691 
Q 1819 2813 1613 2813 
Q 1428 2813 1281 2702 
Q 1134 2591 1072 2394 
Q 978 2094 978 1738 
L 978 0 
L 416 0 
z
" transform="scale(0.015625)"/>
       <path id="ArialMT-74" d="M 1650 503 
L 1731 6 
Q 1494 -44 1306 -44 
Q 1000 -44 831 53 
Q 663 150 594 308 
Q 525 466 525 972 
L 525 2881 
L 113 2881 
L 113 3319 
L 525 3319 
L 525 4141 
L 1084 4478 
L 1084 3319 
L 1650 3319 
L 1650 2881 
L 1084 2881 
L 1084 941 
Q 1084 700 1114 631 
Q 1144 563 1211 522 
Q 1278 481 1403 481 
Q 1497 481 1650 503 
z
" transform="scale(0.015625)"/>
       <path id="ArialMT-63" d="M 2588 1216 
L 3141 1144 
Q 3050 572 2676 248 
Q 2303 -75 1759 -75 
Q 1078 -75 664 370 
Q 250 816 250 1647 
Q 250 2184 428 2587 
Q 606 2991 970 3192 
Q 1334 3394 1763 3394 
Q 2303 3394 2647 3120 
Q 2991 2847 3088 2344 
L 2541 2259 
Q 2463 2594 2264 2762 
Q 2066 2931 1784 2931 
Q 1359 2931 1093 2626 
Q 828 2322 828 1663 
Q 828 994 1084 691 
Q 1341 388 1753 388 
Q 2084 388 2306 591 
Q 2528 794 2588 1216 
z
" transform="scale(0.015625)"/>
       <path id="ArialMT-61" d="M 2588 409 
Q 2275 144 1986 34 
Q 1697 -75 1366 -75 
Q 819 -75 525 192 
Q 231 459 231 875 
Q 231 1119 342 1320 
Q 453 1522 633 1644 
Q 813 1766 1038 1828 
Q 1203 1872 1538 1913 
Q 2219 1994 2541 2106 
Q 2544 2222 2544 2253 
Q 2544 2597 2384 2738 
Q 2169 2928 1744 2928 
Q 1347 2928 1158 2789 
Q 969 2650 878 2297 
L 328 2372 
Q 403 2725 575 2942 
Q 747 3159 1072 3276 
Q 1397 3394 1825 3394 
Q 2250 3394 2515 3294 
Q 2781 3194 2906 3042 
Q 3031 2891 3081 2659 
Q 3109 2516 3109 2141 
L 3109 1391 
Q 3109 606 3145 398 
Q 3181 191 3288 0 
L 2700 0 
Q 2613 175 2588 409 
z
M 2541 1666 
Q 2234 1541 1622 1453 
Q 1275 1403 1131 1340 
Q 988 1278 909 1158 
Q 831 1038 831 891 
Q 831 666 1001 516 
Q 1172 366 1500 366 
Q 1825 366 2078 508 
Q 2331 650 2450 897 
Q 2541 1088 2541 1459 
L 2541 1666 
z
" transform="scale(0.015625)"/>
       <path id="ArialMT-6c" d="M 409 0 
L 409 4581 
L 972 4581 
L 972 0 
L 409 0 
z
" transform="scale(0.015625)"/>
      </defs>
      <use xlink:href="#ArialMT-56"/>
      <use xlink:href="#ArialMT-65" x="61.199219"/>
      <use xlink:href="#ArialMT-72" x="116.814453"/>
      <use xlink:href="#ArialMT-74" x="150.115234"/>
      <use xlink:href="#ArialMT-69" x="177.898438"/>
      <use xlink:href="#ArialMT-63" x="200.115234"/>
      <use xlink:href="#ArialMT-61" x="250.115234"/>
      <use xlink:href="#ArialMT-6c" x="305.730469"/>
     </g>
     <!-- Displacement [m] -->
     <g style="fill: #262626" transform="translate(15.71265 56.338125) rotate(-90) scale(0.048 -0.048)">
      <defs>
       <path id="ArialMT-44" d="M 494 0 
L 494 4581 
L 2072 4581 
Q 2606 4581 2888 4516 
Q 3281 4425 3559 4188 
Q 3922 3881 4101 3404 
Q 4281 2928 4281 2316 
Q 4281 1794 4159 1391 
Q 4038 988 3847 723 
Q 3656 459 3429 307 
Q 3203 156 2883 78 
Q 2563 0 2147 0 
L 494 0 
z
M 1100 541 
L 2078 541 
Q 2531 541 2789 625 
Q 3047 709 3200 863 
Q 3416 1078 3536 1442 
Q 3656 1806 3656 2325 
Q 3656 3044 3420 3430 
Q 3184 3816 2847 3947 
Q 2603 4041 2063 4041 
L 1100 4041 
L 1100 541 
z
" transform="scale(0.015625)"/>
       <path id="ArialMT-73" d="M 197 991 
L 753 1078 
Q 800 744 1014 566 
Q 1228 388 1613 388 
Q 2000 388 2187 545 
Q 2375 703 2375 916 
Q 2375 1106 2209 1216 
Q 2094 1291 1634 1406 
Q 1016 1563 777 1677 
Q 538 1791 414 1992 
Q 291 2194 291 2438 
Q 291 2659 392 2848 
Q 494 3038 669 3163 
Q 800 3259 1026 3326 
Q 1253 3394 1513 3394 
Q 1903 3394 2198 3281 
Q 2494 3169 2634 2976 
Q 2775 2784 2828 2463 
L 2278 2388 
Q 2241 2644 2061 2787 
Q 1881 2931 1553 2931 
Q 1166 2931 1000 2803 
Q 834 2675 834 2503 
Q 834 2394 903 2306 
Q 972 2216 1119 2156 
Q 1203 2125 1616 2013 
Q 2213 1853 2448 1751 
Q 2684 1650 2818 1456 
Q 2953 1263 2953 975 
Q 2953 694 2789 445 
Q 2625 197 2315 61 
Q 2006 -75 1616 -75 
Q 969 -75 630 194 
Q 291 463 197 991 
z
" transform="scale(0.015625)"/>
       <path id="ArialMT-70" d="M 422 -1272 
L 422 3319 
L 934 3319 
L 934 2888 
Q 1116 3141 1344 3267 
Q 1572 3394 1897 3394 
Q 2322 3394 2647 3175 
Q 2972 2956 3137 2557 
Q 3303 2159 3303 1684 
Q 3303 1175 3120 767 
Q 2938 359 2589 142 
Q 2241 -75 1856 -75 
Q 1575 -75 1351 44 
Q 1128 163 984 344 
L 984 -1272 
L 422 -1272 
z
M 931 1641 
Q 931 1000 1190 694 
Q 1450 388 1819 388 
Q 2194 388 2461 705 
Q 2728 1022 2728 1688 
Q 2728 2322 2467 2637 
Q 2206 2953 1844 2953 
Q 1484 2953 1207 2617 
Q 931 2281 931 1641 
z
" transform="scale(0.015625)"/>
       <path id="ArialMT-6e" d="M 422 0 
L 422 3319 
L 928 3319 
L 928 2847 
Q 1294 3394 1984 3394 
Q 2284 3394 2536 3286 
Q 2788 3178 2913 3003 
Q 3038 2828 3088 2588 
Q 3119 2431 3119 2041 
L 3119 0 
L 2556 0 
L 2556 2019 
Q 2556 2363 2490 2533 
Q 2425 2703 2258 2804 
Q 2091 2906 1866 2906 
Q 1506 2906 1245 2678 
Q 984 2450 984 1813 
L 984 0 
L 422 0 
z
" transform="scale(0.015625)"/>
       <path id="ArialMT-5b" d="M 434 -1272 
L 434 4581 
L 1675 4581 
L 1675 4116 
L 997 4116 
L 997 -806 
L 1675 -806 
L 1675 -1272 
L 434 -1272 
z
" transform="scale(0.015625)"/>
       <path id="ArialMT-5d" d="M 1363 -1272 
L 122 -1272 
L 122 -806 
L 800 -806 
L 800 4116 
L 122 4116 
L 122 4581 
L 1363 4581 
L 1363 -1272 
z
" transform="scale(0.015625)"/>
      </defs>
      <use xlink:href="#ArialMT-44"/>
      <use xlink:href="#ArialMT-69" x="72.216797"/>
      <use xlink:href="#ArialMT-73" x="94.433594"/>
      <use xlink:href="#ArialMT-70" x="144.433594"/>
      <use xlink:href="#ArialMT-6c" x="200.048828"/>
      <use xlink:href="#ArialMT-61" x="222.265625"/>
      <use xlink:href="#ArialMT-63" x="277.880859"/>
      <use xlink:href="#ArialMT-65" x="327.880859"/>
      <use xlink:href="#ArialMT-6d" x="383.496094"/>
      <use xlink:href="#ArialMT-65" x="466.796875"/>
      <use xlink:href="#ArialMT-6e" x="522.412109"/>
      <use xlink:href="#ArialMT-74" x="578.027344"/>
      <use xlink:href="#ArialMT-20" x="605.810547"/>
      <use xlink:href="#ArialMT-5b" x="633.59375"/>
      <use xlink:href="#ArialMT-6d" x="661.376953"/>
      <use xlink:href="#ArialMT-5d" x="744.677734"/>
     </g>
    </g>
   </g>
   <g id="line2d_13">
    <path d="M 50.401519 52.155555 
L 50.533679 51.880807 
L 50.665838 49.682828 
L 50.797998 49.957575 
L 50.930158 44.462625 
L 51.194477 25.092928 
L 51.326637 26.741413 
L 51.590956 31.274746 
L 51.723116 31.549494 
L 51.855275 30.038383 
L 52.383914 48.858585 
L 52.516073 47.484848 
L 52.648233 49.133332 
L 53.044712 42.539393 
L 53.176872 43.638383 
L 53.309031 42.264646 
L 53.70551 25.092928 
L 53.969829 27.01616 
L 54.234149 41.577777 
L 54.366308 40.753534 
L 54.498468 43.226262 
L 54.630628 40.890908 
L 54.762787 42.264646 
L 54.894947 47.484848 
L 55.027106 46.935352 
L 55.159266 49.270706 
L 55.291426 45.424241 
L 55.555745 33.335352 
L 56.084384 34.983837 
L 56.216543 34.296968 
L 56.348703 32.923231 
L 56.613022 48.995959 
L 56.877341 35.80808 
L 57.009501 34.70909 
L 57.141661 36.357575 
L 57.27382 40.066666 
L 57.40598 48.034343 
L 57.802459 36.632322 
L 57.934618 39.929292 
L 58.198938 34.571716 
L 58.331097 34.571716 
L 58.463257 36.082827 
L 58.595417 51.331313 
L 58.727576 50.094949 
L 59.124055 27.428282 
L 59.388374 32.098989 
L 60.049173 50.50707 
L 60.313492 41.165656 
L 60.445651 32.648484 
L 60.577811 32.923231 
L 60.84213 41.165656 
L 61.106449 27.01616 
L 61.238609 26.604039 
L 61.635088 45.698989 
L 61.767248 44.050504 
L 62.031567 49.133332 
L 62.428046 35.258585 
L 62.692365 36.632322 
L 62.956685 30.31313 
L 63.088844 36.494948 
L 63.221004 36.769696 
L 63.353163 34.846464 
L 63.749642 43.638383 
L 63.881802 43.226262 
L 64.146121 48.721212 
L 64.410441 34.434343 
L 64.5426 35.670706 
L 64.67476 39.929292 
L 65.203398 31.274746 
L 65.864197 47.896969 
L 66.260675 31.824242 
L 66.524995 44.325252 
L 66.789314 34.159595 
L 66.921473 34.846464 
L 67.053633 43.226262 
L 67.317952 32.923231 
L 67.582272 42.402019 
L 67.846591 37.456565 
L 67.978751 39.242423 
L 68.11091 37.593938 
L 68.24307 43.226262 
L 68.375229 42.264646 
L 68.507389 39.654544 
L 68.639549 39.517171 
L 68.771708 38.830302 
L 69.036028 47.622221 
L 69.564666 22.757575 
L 70.357624 52.155555 
L 70.489783 52.430302 
L 70.621943 55.864646 
L 70.754103 54.216161 
L 71.414901 21.246464 
L 71.547061 16.71313 
L 71.67922 19.185858 
L 72.075699 52.292929 
L 72.207859 53.391918 
L 72.340018 52.70505 
L 72.472178 53.254544 
L 72.868657 38.00606 
L 73.132976 36.632322 
L 73.397296 26.329291 
L 73.661615 31.274746 
L 73.793774 33.6101 
L 74.058094 41.71515 
L 74.454573 47.347474 
L 74.586732 43.91313 
L 74.851052 33.747474 
L 74.983211 38.280807 
L 75.115371 37.593938 
L 75.24753 42.81414 
L 75.37969 41.852524 
L 75.51185 38.418181 
L 75.776169 43.226262 
L 76.040488 30.450504 
L 76.172648 30.725252 
L 76.436967 27.428282 
L 76.965606 49.957575 
L 77.097765 49.682828 
L 77.362084 56.276767 
L 77.890723 25.092928 
L 78.155042 23.169696 
L 78.287202 25.092928 
L 78.551521 38.143433 
L 78.948 50.232322 
L 79.08016 48.30909 
L 79.344479 38.143433 
L 79.476639 39.929292 
L 79.740958 48.034343 
L 80.401756 28.252524 
L 80.666075 29.626261 
L 80.798235 26.191918 
L 80.930395 28.115151 
L 81.062554 33.197979 
L 81.326874 50.50707 
L 81.591193 48.171716 
L 81.855512 61.359595 
L 82.119831 43.088888 
L 82.51631 15.202019 
L 82.64847 19.048483 
L 83.044949 36.357575 
L 83.177108 42.676767 
L 83.309268 41.028282 
L 83.441428 41.440403 
L 83.705747 58.474746 
L 84.234386 39.517171 
L 84.498705 23.71919 
L 84.630864 24.955555 
L 85.159503 43.226262 
L 85.291662 39.791918 
L 85.555982 44.325252 
L 85.820301 39.929292 
L 85.952461 37.731312 
L 86.08462 45.698989 
L 86.21678 42.951514 
L 86.34894 34.296968 
L 86.481099 34.571716 
L 86.613259 35.121211 
L 86.745418 37.181817 
L 87.009738 32.923231 
L 87.406217 52.018181 
L 87.802696 37.456565 
L 87.934855 36.494948 
L 88.331334 27.977776 
L 88.595653 36.220201 
L 88.727813 36.357575 
L 88.859973 38.00606 
L 89.124292 53.666666 
L 89.652931 37.731312 
L 89.91725 36.082827 
L 90.181569 32.236363 
L 90.710207 47.622221 
L 90.842367 40.753534 
L 90.974527 26.878787 
L 91.106687 27.565656 
L 91.238846 36.90707 
L 91.371006 38.143433 
L 91.635325 36.632322 
L 91.767485 36.220201 
L 92.163963 49.545453 
L 92.296123 51.743433 
L 92.560443 40.066666 
L 92.956921 35.258585 
L 93.221241 29.351514 
L 93.3534 29.488888 
L 93.749879 41.71515 
L 94.014198 40.341413 
L 94.146358 45.973736 
L 94.278518 44.050504 
L 94.542837 36.082827 
L 94.674997 39.929292 
L 94.807156 40.066666 
L 95.071475 44.737373 
L 95.203635 48.583837 
L 95.600114 38.555555 
L 95.732274 28.115151 
L 95.864433 27.703029 
L 95.996593 23.856564 
L 96.260912 30.175757 
L 96.393072 30.31313 
L 96.657391 49.682828 
L 96.92171 47.072727 
L 97.05387 48.583837 
L 97.714668 39.379797 
L 97.978987 33.197979 
L 98.243307 27.565656 
L 98.375466 27.840403 
L 98.639785 34.983837 
L 98.771945 35.80808 
L 99.036265 45.149494 
L 99.168424 43.501009 
L 99.300584 43.501009 
L 99.697063 52.155555 
L 100.093541 35.945454 
L 100.357861 24.40606 
L 100.490021 25.642423 
L 100.62218 31.274746 
L 100.75434 30.862625 
L 100.886499 31.274746 
L 101.150819 41.577777 
L 101.547297 47.484848 
L 101.811617 41.852524 
L 102.075936 45.286868 
L 102.208096 46.797979 
L 102.340255 43.91313 
L 102.604575 27.840403 
L 102.736734 24.680807 
L 103.133213 36.082827 
L 103.265373 35.670706 
L 103.397532 33.884847 
L 103.661852 39.517171 
L 103.926171 54.765655 
L 104.45481 40.478787 
L 104.586969 38.830302 
L 104.851288 30.450504 
L 104.983448 32.373736 
L 105.115608 32.373736 
L 105.247767 38.143433 
L 105.512086 34.846464 
L 105.644246 36.082827 
L 105.776406 35.533332 
L 105.908566 34.296968 
L 106.305044 49.957575 
L 106.569364 45.286868 
L 106.701523 43.775757 
L 106.965842 32.098989 
L 107.098002 32.373736 
L 107.230162 36.769696 
L 107.362321 36.90707 
L 107.494481 36.769696 
L 107.626641 37.181817 
L 107.7588 40.204039 
L 107.89096 40.616161 
L 108.155279 36.632322 
L 108.419598 40.753534 
L 108.551758 40.341413 
L 108.683918 42.951514 
L 108.816077 41.165656 
L 109.080397 35.80808 
L 109.212556 32.923231 
L 109.344716 33.747474 
L 109.609035 43.775757 
L 109.741195 42.676767 
L 110.005514 38.00606 
L 110.137674 38.555555 
L 110.269833 43.638383 
L 110.401993 43.226262 
L 110.666312 33.472726 
L 110.798472 31.961615 
L 111.062791 42.127272 
L 111.32711 35.533332 
L 111.45927 36.90707 
L 111.723589 42.264646 
L 111.855749 40.341413 
L 111.987909 40.753534 
L 112.252228 37.868686 
L 112.384388 33.472726 
L 112.516547 34.983837 
L 112.780866 45.286868 
L 112.913026 45.286868 
L 113.045186 45.01212 
L 113.441664 31.549494 
L 113.573824 29.763635 
L 113.705984 31.137373 
L 113.970303 43.91313 
L 114.102463 39.929292 
L 114.234622 39.791918 
L 114.366782 38.830302 
L 114.631101 42.264646 
L 114.763261 42.539393 
L 114.89542 41.303029 
L 115.15974 35.670706 
L 115.424059 37.456565 
L 115.688378 34.159595 
L 115.820538 35.80808 
L 115.952698 41.165656 
L 116.217017 38.280807 
L 116.613496 45.836363 
L 116.745655 41.71515 
L 116.877815 42.676767 
L 117.009975 42.676767 
L 117.274294 31.41212 
L 117.538613 30.725252 
L 117.802933 36.357575 
L 117.935092 37.456565 
L 118.067252 40.204039 
L 118.199411 37.593938 
L 118.331571 46.11111 
L 118.463731 46.797979 
L 118.59589 43.638383 
L 118.72805 45.149494 
L 118.992369 41.577777 
L 119.256688 43.638383 
L 119.521008 29.351514 
L 119.653167 27.290908 
L 119.917487 31.686868 
L 120.049646 28.115151 
L 120.446125 44.325252 
L 120.578285 39.654544 
L 120.710444 40.204039 
L 120.842604 44.187878 
L 120.974764 52.430302 
L 121.106923 53.666666 
L 121.503402 44.599999 
L 121.635562 44.874747 
L 122.1642 9.981818 
L 122.29636 14.10303 
L 122.692839 46.660605 
L 122.824999 49.682828 
L 122.957158 49.957575 
L 123.221477 57.925252 
L 123.882276 33.6101 
L 124.014435 23.30707 
L 124.146595 22.070706 
L 124.410914 32.373736 
L 124.675233 38.418181 
L 124.807393 34.846464 
L 124.939553 34.846464 
L 125.203872 48.30909 
L 125.468191 40.890908 
L 125.600351 41.71515 
L 125.732511 41.303029 
L 125.86467 43.91313 
L 125.99683 44.187878 
L 126.261149 38.00606 
L 126.393309 37.731312 
L 126.525468 36.357575 
L 126.921947 42.951514 
L 127.318426 20.971717 
L 127.450586 24.543434 
L 127.847065 50.094949 
L 127.979224 53.529293 
L 128.375703 43.775757 
L 128.640022 35.670706 
L 128.772182 36.220201 
L 128.904342 33.6101 
L 129.168661 42.81414 
L 129.43298 31.549494 
L 129.56514 32.785858 
L 129.829459 38.967676 
L 130.093778 28.802019 
L 130.490257 47.2101 
L 130.622417 45.973736 
L 130.754577 47.347474 
L 131.018896 46.385858 
L 131.151055 46.385858 
L 131.283215 37.319191 
L 131.547534 36.494948 
L 131.811854 29.626261 
L 131.944013 27.01616 
L 132.076173 27.290908 
L 132.208333 29.076767 
L 132.472652 44.325252 
L 132.604812 44.462625 
L 132.736971 48.30909 
L 132.869131 48.30909 
L 133.00129 48.034343 
L 133.13345 46.11111 
L 133.26561 49.270706 
L 133.397769 45.836363 
L 133.794248 23.993938 
L 134.058567 31.961615 
L 134.190727 32.51111 
L 134.322887 34.983837 
L 134.455046 40.204039 
L 134.719366 40.753534 
L 134.983685 44.325252 
L 135.248004 47.2101 
L 135.380164 46.797979 
L 135.776643 28.802019 
L 136.040962 36.90707 
L 136.173122 36.357575 
L 136.437441 39.517171 
L 136.5696 39.379797 
L 136.70176 40.341413 
L 136.83392 40.066666 
L 137.098239 34.022221 
L 137.362558 45.149494 
L 137.494718 44.874747 
L 137.759037 33.6101 
L 138.023356 41.440403 
L 138.155516 38.00606 
L 138.287676 39.517171 
L 138.419835 39.379797 
L 138.551995 41.577777 
L 138.684154 45.973736 
L 138.816314 39.379797 
L 139.080634 22.894949 
L 139.477112 42.402019 
L 139.609272 42.81414 
L 139.741432 45.149494 
L 139.873591 45.01212 
L 140.005751 48.30909 
L 140.53439 34.434343 
L 140.666549 35.80808 
L 140.798709 35.670706 
L 140.930868 37.593938 
L 141.195188 29.626261 
L 141.591666 49.133332 
L 141.723826 48.583837 
L 142.120305 34.70909 
L 142.252465 35.395959 
L 142.384624 39.10505 
L 142.516784 39.517171 
L 142.781103 35.945454 
L 142.913263 36.632322 
L 143.045422 34.159595 
L 143.309742 47.2101 
L 143.97054 26.191918 
L 144.367019 45.973736 
L 144.631338 54.216161 
L 145.027817 38.143433 
L 145.292136 20.971717 
L 145.556456 29.488888 
L 145.688615 39.654544 
L 145.820775 37.731312 
L 145.952934 37.456565 
L 146.349413 49.682828 
L 146.481573 53.80404 
L 146.613733 53.254544 
L 147.142371 31.961615 
L 147.53885 16.850503 
L 147.935329 45.698989 
L 148.067488 46.797979 
L 148.331808 53.941414 
L 148.463967 51.743433 
L 148.728287 41.303029 
L 148.860446 41.989898 
L 149.256925 23.581817 
L 149.521245 36.220201 
L 149.653404 33.335352 
L 149.917723 42.539393 
L 150.049883 43.088888 
L 150.182043 39.654544 
L 150.446362 42.81414 
L 150.710681 38.555555 
L 150.975001 44.599999 
L 151.23932 37.593938 
L 151.371479 37.456565 
L 151.503639 41.303029 
L 151.635799 41.165656 
L 151.900118 27.840403 
L 152.032278 29.21414 
L 152.164437 32.098989 
L 152.428757 46.248484 
L 152.693076 48.995959 
L 153.353874 32.785858 
L 153.486033 25.092928 
L 154.411151 49.270706 
L 154.67547 41.71515 
L 154.80763 42.539393 
L 155.071949 25.367675 
L 155.468428 38.143433 
L 155.732747 43.501009 
L 155.864907 43.501009 
L 156.129226 37.181817 
L 156.261386 38.280807 
L 156.393545 44.874747 
L 156.657865 39.791918 
L 156.790024 39.929292 
L 156.922184 43.226262 
L 157.054344 42.539393 
L 157.318663 27.01616 
L 157.450823 25.367675 
L 157.715142 36.90707 
L 157.979461 41.165656 
L 158.24378 45.973736 
L 158.37594 45.286868 
L 158.5081 46.660605 
L 158.640259 44.737373 
L 158.772419 40.753534 
L 158.904579 41.440403 
L 159.036738 39.654544 
L 159.697536 23.993938 
L 159.961856 40.478787 
L 160.226175 49.40808 
L 160.754813 39.379797 
L 160.886973 40.066666 
L 161.151292 35.80808 
L 161.283452 37.593938 
L 161.547771 43.91313 
L 161.94425 31.137373 
L 162.208569 35.258585 
L 162.340729 41.028282 
L 162.472889 40.753534 
L 162.737208 38.00606 
L 162.869367 38.692928 
L 163.001527 38.555555 
L 163.133687 37.731312 
L 163.265846 43.363636 
L 163.398006 42.127272 
L 163.662325 36.632322 
L 163.926645 43.501009 
L 164.058804 40.753534 
L 164.190964 41.440403 
L 164.323124 41.165656 
L 164.587443 33.197979 
L 164.719602 38.280807 
L 164.983922 37.181817 
L 165.248241 33.335352 
L 165.3804 31.41212 
L 165.51256 34.846464 
L 165.64472 45.286868 
L 165.77688 45.561615 
L 165.909039 42.951514 
L 166.041199 46.385858 
L 166.173358 46.248484 
L 166.569837 32.648484 
L 166.701997 34.983837 
L 166.966316 48.30909 
L 167.494955 26.054544 
L 167.891434 46.660605 
L 168.023593 43.088888 
L 168.287912 32.51111 
L 168.420072 34.70909 
L 168.684391 41.989898 
L 168.816551 43.088888 
L 168.948711 49.820201 
L 169.477349 36.90707 
L 169.741668 33.884847 
L 169.873828 37.044444 
L 170.005988 30.175757 
L 170.402467 32.236363 
L 170.666786 47.896969 
L 170.798946 47.347474 
L 171.063265 41.71515 
L 171.195424 45.01212 
L 171.459744 38.692928 
L 171.724063 43.775757 
L 171.988382 33.6101 
L 172.252702 27.153534 
L 172.384861 26.604039 
L 172.9135 43.363636 
L 173.045659 43.638383 
L 173.309979 54.078787 
L 173.442138 52.292929 
L 173.706458 38.143433 
L 173.838617 36.082827 
L 173.970777 36.082827 
L 174.102936 38.00606 
L 174.235096 33.335352 
L 174.367256 24.543434 
L 174.499415 24.268687 
L 174.763734 38.692928 
L 174.895894 37.319191 
L 175.028054 37.319191 
L 175.160214 38.830302 
L 175.424533 55.315151 
L 176.085331 35.945454 
L 176.21749 36.632322 
L 176.34965 40.478787 
L 176.48181 37.181817 
L 176.61397 30.175757 
L 176.878289 34.159595 
L 177.010448 33.335352 
L 177.142608 33.335352 
L 177.539087 44.737373 
L 177.671246 43.775757 
L 177.803406 44.737373 
L 177.935566 44.599999 
L 178.067725 43.226262 
L 178.332045 35.945454 
L 178.464204 36.632322 
L 178.596364 34.70909 
L 178.728524 39.10505 
L 178.860683 38.830302 
L 178.992843 37.593938 
L 179.125003 39.654544 
L 179.389322 34.70909 
L 179.521481 37.868686 
L 179.653641 37.868686 
L 179.91796 32.923231 
L 180.18228 44.737373 
L 180.314439 42.402019 
L 180.446599 43.501009 
L 180.710918 37.868686 
L 180.975237 41.989898 
L 181.107397 41.577777 
L 181.371716 38.280807 
L 181.503876 34.983837 
L 181.636035 34.983837 
L 181.768195 37.181817 
L 181.900355 33.472726 
L 182.296834 40.890908 
L 182.428993 37.456565 
L 182.561153 38.692928 
L 182.693313 44.187878 
L 182.957632 34.571716 
L 183.089791 42.127272 
L 183.221951 43.226262 
L 183.48627 37.319191 
L 183.61843 36.90707 
L 183.882749 32.373736 
L 184.147069 48.583837 
L 184.543547 37.181817 
L 184.675707 33.197979 
L 184.807867 39.791918 
L 184.940026 36.357575 
L 185.072186 36.632322 
L 185.204346 37.319191 
L 185.336505 34.846464 
L 186.261623 45.561615 
L 186.393782 41.852524 
L 186.658102 45.424241 
L 186.922421 39.242423 
L 187.18674 23.444443 
L 187.451059 35.670706 
L 187.715379 30.038383 
L 188.244017 49.682828 
L 188.640496 42.676767 
L 188.772656 44.325252 
L 188.904815 42.81414 
L 189.169135 31.961615 
L 189.301294 24.955555 
L 189.565613 27.290908 
L 189.962093 45.149494 
L 190.094252 48.858585 
L 190.226412 39.654544 
L 190.358571 40.066666 
L 190.490731 46.523231 
L 190.622891 42.676767 
L 190.75505 46.797979 
L 191.019369 28.389898 
L 191.151529 30.450504 
L 191.415848 42.264646 
L 191.548008 42.81414 
L 191.812327 34.983837 
L 192.208806 40.204039 
L 192.473125 34.846464 
L 192.737445 35.80808 
L 192.869604 38.967676 
L 193.133924 47.622221 
L 193.266083 45.424241 
L 193.530403 38.280807 
L 193.662562 39.242423 
L 193.926882 42.676767 
L 194.32336 32.098989 
L 194.45552 33.747474 
L 194.58768 25.367675 
L 194.719839 28.389898 
L 194.984158 43.501009 
L 195.248478 38.280807 
L 195.380637 44.874747 
L 195.512797 44.737373 
L 195.777116 52.430302 
L 196.173595 35.533332 
L 196.437914 31.549494 
L 196.570074 31.137373 
L 196.834393 35.121211 
L 196.966553 34.70909 
L 197.230872 40.616161 
L 197.363032 38.00606 
L 197.627351 39.242423 
L 197.759511 36.494948 
L 198.15599 47.622221 
L 198.288149 46.11111 
L 198.552469 49.957575 
L 198.816788 37.593938 
L 198.948948 37.593938 
L 199.345426 25.092928 
L 199.477586 22.757575 
L 199.874065 36.082827 
L 200.138384 44.599999 
L 200.534863 65.618182 
L 200.667023 59.024242 
L 201.063502 25.092928 
L 201.327821 20.284847 
L 201.59214 32.51111 
L 201.7243 30.862625 
L 201.988619 38.280807 
L 202.252938 38.830302 
L 202.385098 42.676767 
L 202.649417 52.292929 
L 202.913736 47.347474 
L 203.178056 37.731312 
L 203.310216 36.90707 
L 203.442375 35.121211 
L 203.706694 41.028282 
L 203.838854 39.654544 
L 204.103173 28.115151 
L 204.235333 25.505049 
L 204.367492 27.01616 
L 204.499652 30.450504 
L 204.631812 38.143433 
L 204.763972 38.418181 
L 204.896131 42.127272 
L 205.16045 53.254544 
L 205.29261 54.628282 
L 205.42477 54.078787 
L 205.556929 52.292929 
L 206.349887 16.575756 
L 206.482047 18.498988 
L 207.010685 51.193938 
L 207.142845 56.139393 
L 207.275004 55.040403 
L 207.407164 55.864646 
L 207.539324 53.941414 
L 208.200122 22.070706 
L 208.332282 22.620202 
L 208.86092 41.71515 
L 208.99308 41.028282 
L 209.125239 41.165656 
L 209.257399 40.341413 
L 209.521718 52.155555 
L 209.786038 38.280807 
L 209.918197 37.868686 
L 210.050357 41.440403 
L 210.182516 38.692928 
L 210.314676 41.71515 
L 210.446836 41.71515 
L 210.578995 39.654544 
L 210.711155 30.587877 
L 210.843315 31.41212 
L 211.107634 23.993938 
L 211.239793 26.054544 
L 211.504113 45.973736 
L 211.636272 43.088888 
L 211.768432 44.325252 
L 212.032751 54.765655 
L 212.42923 47.896969 
L 212.957869 17.4 
L 213.090028 19.185858 
L 214.015146 51.880807 
L 214.147305 55.315151 
L 214.279465 52.842423 
L 214.543784 45.973736 
L 215.336742 22.482826 
L 215.601061 29.076767 
L 215.865381 41.577777 
L 216.1297 44.874747 
L 216.394019 52.979797 
L 217.054817 37.044444 
L 217.319137 27.290908 
L 217.451296 34.159595 
L 217.583456 32.785858 
L 217.715615 34.846464 
L 217.847775 33.060605 
L 217.979935 36.357575 
L 218.112094 44.187878 
L 218.244254 44.050504 
L 218.376414 44.325252 
L 218.508573 43.638383 
L 218.640733 41.989898 
L 218.905052 33.060605 
L 219.037212 34.983837 
L 219.301531 45.836363 
L 219.56585 39.379797 
L 219.69801 40.341413 
L 219.83017 44.187878 
L 219.962329 43.363636 
L 220.358808 23.993938 
L 220.490968 24.268687 
L 220.887447 45.149494 
L 221.019606 44.874747 
L 221.283926 53.391918 
L 221.812564 36.494948 
L 222.076883 25.505049 
L 222.341203 32.236363 
L 222.605522 45.149494 
L 222.737682 45.836363 
L 223.002001 38.555555 
L 223.26632 40.890908 
L 223.39848 39.654544 
L 223.662799 32.51111 
L 223.927118 38.143433 
L 224.059278 37.731312 
L 224.587916 47.347474 
L 224.720076 45.286868 
L 224.984395 32.098989 
L 225.248715 33.6101 
L 225.513034 39.791918 
L 225.645194 40.890908 
L 225.777353 38.143433 
L 225.909513 33.060605 
L 226.041672 32.51111 
L 226.305992 51.60606 
L 226.702471 31.686868 
L 227.09895 36.220201 
L 227.363269 35.80808 
L 227.759748 48.995959 
L 228.156227 38.280807 
L 228.288386 43.775757 
L 228.552706 30.450504 
L 228.684865 23.032322 
L 228.817025 24.40606 
L 229.213504 48.583837 
L 229.345663 49.545453 
L 229.609982 40.066666 
L 229.874302 48.30909 
L 230.5351 25.505049 
L 230.931579 45.561615 
L 231.063738 46.523231 
L 231.195898 46.523231 
L 231.328058 45.01212 
L 231.592377 36.90707 
L 231.856696 24.543434 
L 231.988856 23.581817 
L 232.385335 51.468686 
L 232.517494 50.919191 
L 232.649654 47.622221 
L 232.781814 40.616161 
L 232.913973 39.929292 
L 233.046133 43.226262 
L 233.178293 42.539393 
L 233.442612 28.939392 
L 233.574772 33.197979 
L 233.839091 32.236363 
L 234.10341 38.00606 
L 234.23557 36.90707 
L 234.499889 48.171716 
L 234.632049 47.2101 
L 234.896368 41.71515 
L 235.028528 41.165656 
L 235.292847 34.846464 
L 235.425006 35.121211 
L 235.557166 32.236363 
L 235.821485 40.753534 
L 235.953645 39.791918 
L 236.085805 43.226262 
L 236.217964 40.066666 
L 236.482284 29.626261 
L 236.746603 40.890908 
L 237.010922 41.852524 
L 237.143082 43.363636 
L 237.275241 46.248484 
L 237.53956 43.775757 
L 237.80388 36.632322 
L 237.93604 36.082827 
L 238.200359 33.747474 
L 238.332518 30.587877 
L 238.464678 32.373736 
L 238.596838 31.549494 
L 238.861157 40.890908 
L 239.125476 41.989898 
L 239.521955 51.056565 
L 239.654115 49.545453 
L 239.918434 37.731312 
L 240.182753 30.450504 
L 240.314913 26.054544 
L 240.579232 33.747474 
L 240.711392 30.587877 
L 241.24003 40.890908 
L 241.37219 41.71515 
L 241.636509 54.765655 
L 241.768669 52.979797 
L 242.032988 42.127272 
L 242.165148 42.264646 
L 242.429467 29.901009 
L 242.561627 30.31313 
L 242.693786 36.769696 
L 242.958105 28.252524 
L 243.090265 30.587877 
L 243.222425 36.769696 
L 243.354585 37.593938 
L 243.486744 33.6101 
L 243.883223 44.187878 
L 244.015383 56.551514 
L 244.147542 56.276767 
L 244.411861 43.088888 
L 244.544021 35.670706 
L 244.808341 40.066666 
L 245.07266 33.060605 
L 245.204819 29.351514 
L 245.336979 22.070706 
L 245.733458 33.335352 
L 246.394256 57.513131 
L 246.526416 55.452525 
L 246.790735 45.01212 
L 247.055054 29.488888 
L 247.187214 23.581817 
L 247.319373 28.527272 
L 247.451533 38.143433 
L 247.980172 28.252524 
L 248.112331 31.824242 
L 248.50881 58.612121 
L 248.64097 56.002019 
L 249.037449 35.670706 
L 249.169608 33.472726 
L 249.301768 35.945454 
L 249.566087 28.527272 
L 249.698247 36.357575 
L 249.830407 36.357575 
L 249.962566 37.181817 
L 250.094726 40.890908 
L 250.226885 38.418181 
L 250.491205 30.862625 
L 250.755524 43.775757 
L 251.019843 48.721212 
L 251.152003 48.446464 
L 251.680641 36.632322 
L 251.812801 40.478787 
L 251.944961 37.731312 
L 252.07712 26.878787 
L 252.20928 27.840403 
L 252.473599 23.169696 
L 252.737918 34.983837 
L 253.134397 59.848484 
L 253.398717 49.820201 
L 253.530876 43.91313 
L 253.663036 44.187878 
L 253.795195 46.385858 
L 253.927355 38.830302 
L 254.191674 19.460605 
L 254.323834 21.383837 
L 254.455994 21.658585 
L 255.248952 56.688887 
L 255.381111 56.551514 
L 255.77759 42.264646 
L 255.90975 45.149494 
L 256.041909 44.737373 
L 256.174069 42.951514 
L 256.306229 37.731312 
L 256.570548 20.559594 
L 256.702708 19.460605 
L 256.834867 24.543434 
L 257.099186 37.319191 
L 257.231346 37.181817 
L 257.363506 38.555555 
L 257.627825 45.836363 
L 257.759984 43.501009 
L 257.892144 48.721212 
L 258.156464 61.496969 
L 258.288623 58.062625 
L 258.552942 26.741413 
L 258.685102 20.0101 
L 258.817262 21.795958 
L 259.081581 35.258585 
L 259.21374 34.571716 
L 259.47806 21.383837 
L 259.610219 23.581817 
L 259.874539 52.292929 
L 260.006698 58.199999 
L 260.138858 56.41414 
L 260.403177 50.781817 
L 260.799656 42.81414 
L 261.196135 23.032322 
L 261.328295 23.856564 
L 261.592614 29.626261 
L 261.724774 31.137373 
L 261.856933 34.159595 
L 262.253412 52.979797 
L 262.782051 39.242423 
L 263.04637 44.874747 
L 263.310689 37.456565 
L 263.442849 33.884847 
L 263.707168 35.533332 
L 263.839328 27.565656 
L 264.103647 32.098989 
L 264.235806 26.741413 
L 264.500126 40.341413 
L 264.764445 46.11111 
L 264.896605 44.050504 
L 265.160924 49.820201 
L 265.293084 52.842423 
L 265.557403 43.775757 
L 265.953882 34.022221 
L 266.086042 32.51111 
L 266.218201 34.159595 
L 266.350361 33.335352 
L 266.61468 20.559594 
L 267.143318 53.254544 
L 267.275478 52.567676 
L 267.671957 37.593938 
L 267.804117 38.418181 
L 268.068436 45.149494 
L 268.464915 30.31313 
L 268.597074 30.31313 
L 268.729234 34.983837 
L 268.861394 34.983837 
L 269.125713 36.90707 
L 269.257873 42.127272 
L 269.390032 41.165656 
L 269.522192 43.775757 
L 269.654352 41.165656 
L 269.786511 36.357575 
L 269.918671 35.670706 
L 270.050831 36.769696 
L 270.31515 39.929292 
L 270.447309 48.30909 
L 270.843788 45.149494 
L 271.108107 34.159595 
L 271.240267 32.923231 
L 271.372427 28.527272 
L 271.636746 30.999999 
L 271.768906 30.175757 
L 272.033225 33.197979 
L 272.429704 56.276767 
L 272.561863 52.430302 
L 272.826183 41.852524 
L 272.958342 44.462625 
L 273.090502 44.462625 
L 273.354821 23.30707 
L 273.7513 37.181817 
L 274.015619 34.296968 
L 274.147779 37.044444 
L 274.279939 42.539393 
L 274.412098 42.81414 
L 274.544258 41.989898 
L 274.676418 42.264646 
L 274.808577 43.088888 
L 274.940737 45.836363 
L 275.205056 40.616161 
L 275.469375 32.923231 
L 275.865854 40.616161 
L 276.394493 34.022221 
L 276.526653 30.31313 
L 276.923131 43.226262 
L 277.055291 39.929292 
L 277.187451 40.066666 
L 277.31961 39.517171 
L 277.45177 38.143433 
L 277.716089 48.721212 
L 277.980409 35.258585 
L 278.112568 35.121211 
L 278.244728 33.884847 
L 278.376887 36.357575 
L 278.641207 33.060605 
L 278.773366 34.159595 
L 279.037685 44.874747 
L 279.169845 43.775757 
L 279.434165 35.121211 
L 279.566324 36.632322 
L 279.830643 51.331313 
L 279.962803 49.682828 
L 280.227122 34.983837 
L 280.359282 33.6101 
L 280.623601 28.115151 
L 280.88792 38.280807 
L 281.15224 36.632322 
L 281.284399 39.517171 
L 281.416559 33.6101 
L 281.680878 49.820201 
L 281.945197 43.363636 
L 282.209517 49.270706 
L 282.870315 21.383837 
L 283.002475 24.40606 
L 283.266794 39.929292 
L 283.398953 43.363636 
L 283.663273 39.929292 
L 283.795432 41.71515 
L 283.927592 39.791918 
L 284.059752 41.852524 
L 284.324071 50.919191 
L 284.456231 50.919191 
L 284.85271 28.389898 
L 284.984869 30.725252 
L 285.249188 37.456565 
L 285.513508 32.373736 
L 285.645667 33.747474 
L 285.909987 44.737373 
L 286.042146 43.226262 
L 286.306466 34.159595 
L 286.438625 36.357575 
L 286.702944 45.561615 
L 286.835104 40.753534 
L 286.967264 40.478787 
L 287.099423 45.149494 
L 287.231583 44.325252 
L 287.363742 35.80808 
L 287.628062 34.983837 
L 287.892381 38.00606 
L 288.1567 32.51111 
L 288.28886 34.70909 
L 288.553179 42.951514 
L 288.685339 37.868686 
L 288.817498 39.242423 
L 288.949658 43.363636 
L 289.081818 41.440403 
L 289.346137 45.149494 
L 289.610456 35.121211 
L 289.742616 33.472726 
L 289.874776 35.258585 
L 290.139095 41.440403 
L 290.271254 43.088888 
L 290.535574 33.197979 
L 290.667733 37.456565 
L 290.799893 35.945454 
L 290.932053 37.181817 
L 291.196372 45.286868 
L 291.460691 39.929292 
L 291.592851 41.165656 
L 291.72501 43.638383 
L 292.121489 33.884847 
L 292.253649 34.296968 
L 292.385808 32.098989 
L 292.517968 32.648484 
L 292.650128 36.357575 
L 292.914447 32.785858 
L 293.443086 53.391918 
L 293.575245 50.919191 
L 293.971724 38.418181 
L 294.103884 37.044444 
L 294.236044 30.725252 
L 294.368203 32.236363 
L 294.500363 37.044444 
L 294.632522 32.236363 
L 294.896842 20.0101 
L 295.161161 32.648484 
L 295.42548 55.040403 
L 295.689799 56.139393 
L 295.821959 54.490908 
L 296.614917 29.901009 
L 296.747076 28.802019 
L 296.879236 22.757575 
L 297.143555 28.802019 
L 297.804354 50.781817 
L 297.936513 53.529293 
L 298.729471 36.632322 
L 299.12595 21.246464 
L 299.918908 47.484848 
L 300.051067 48.446464 
L 300.183227 46.797979 
L 300.315387 50.644444 
L 300.447546 50.644444 
L 300.579706 53.941414 
L 300.711865 53.254544 
L 300.844025 44.874747 
L 301.108344 20.422221 
L 301.240504 13.828281 
L 301.372664 16.575756 
L 301.769143 41.577777 
L 302.165621 53.666666 
L 302.297781 54.765655 
L 302.429941 52.018181 
L 303.090739 29.21414 
L 303.355058 32.373736 
L 303.619377 25.367675 
L 304.015856 40.204039 
L 304.280176 53.11717 
L 304.544495 47.2101 
L 304.808814 41.71515 
L 305.073133 44.874747 
L 305.601772 26.191918 
L 306.26257 36.90707 
L 306.526889 38.830302 
L 306.923368 60.260605 
L 307.187687 36.769696 
L 307.319847 34.846464 
L 307.452007 39.791918 
L 307.584166 38.555555 
L 307.716326 39.10505 
L 307.848486 35.258585 
L 307.980645 24.268687 
L 308.112805 25.367675 
L 308.377124 35.258585 
L 308.641443 40.478787 
L 308.773603 39.10505 
L 308.905763 40.478787 
L 309.037923 43.088888 
L 309.302242 52.430302 
L 309.698721 36.632322 
L 309.83088 37.456565 
L 309.96304 41.440403 
L 310.095199 41.577777 
L 310.227359 38.280807 
L 310.359519 30.175757 
L 310.491678 29.351514 
L 310.755998 33.472726 
L 310.888157 31.549494 
L 311.548955 47.2101 
L 311.813275 41.852524 
L 311.945434 42.676767 
L 312.077594 40.616161 
L 312.209754 43.501009 
L 312.474073 37.181817 
L 312.606233 36.082827 
L 313.002711 30.587877 
L 313.39919 40.616161 
L 313.53135 39.379797 
L 313.927829 47.622221 
L 314.192148 41.028282 
L 314.324308 31.961615 
L 314.456467 31.961615 
L 314.720787 38.143433 
L 314.852946 40.341413 
L 315.117265 36.769696 
L 315.249425 38.692928 
L 315.513745 46.797979 
L 315.778064 33.335352 
L 315.910223 33.884847 
L 316.042383 32.923231 
L 316.174543 37.044444 
L 316.306702 36.632322 
L 316.438862 38.280807 
L 316.571022 41.989898 
L 316.703181 36.632322 
L 317.09966 47.2101 
L 317.363979 34.434343 
L 317.760458 40.478787 
L 317.892618 44.737373 
L 318.024778 42.676767 
L 318.156937 37.868686 
L 318.289097 38.143433 
L 318.553416 32.373736 
L 318.685576 32.648484 
L 318.817735 41.852524 
L 318.949895 38.00606 
L 319.082054 26.191918 
L 319.214214 27.977776 
L 319.478534 41.165656 
L 319.742853 51.468686 
L 320.007172 47.622221 
L 320.271491 46.935352 
L 320.403651 43.91313 
L 320.80013 27.703029 
L 321.064449 22.208079 
L 321.593088 40.341413 
L 321.857407 55.864646 
L 321.989566 57.238384 
L 322.518205 40.890908 
L 322.914684 15.339392 
L 323.046844 19.872726 
L 323.443322 43.775757 
L 323.575482 44.737373 
L 323.839801 53.391918 
L 324.104121 41.303029 
L 324.36844 47.347474 
L 324.764919 30.587877 
L 324.897078 22.894949 
L 325.029238 25.230302 
L 325.161398 24.131311 
L 325.293557 21.658585 
L 325.557877 47.896969 
L 325.822196 57.10101 
L 326.086515 43.91313 
L 326.218675 43.226262 
L 326.350834 41.440403 
L 326.615154 34.159595 
L 326.747313 35.80808 
L 326.879473 34.70909 
L 327.143792 29.763635 
L 327.275952 29.351514 
L 327.540271 38.280807 
L 327.80459 42.127272 
L 328.06891 47.896969 
L 328.333229 43.363636 
L 328.465388 44.325252 
L 328.729708 41.989898 
L 328.861868 41.440403 
L 329.126187 25.367675 
L 329.258346 26.329291 
L 329.522666 33.6101 
L 329.654825 34.022221 
L 329.786985 37.044444 
L 330.051304 50.369696 
L 330.183464 46.385858 
L 330.315623 46.248484 
L 330.579943 39.929292 
L 330.844262 31.137373 
L 330.976422 33.6101 
L 331.108581 33.060605 
L 331.50506 45.973736 
L 331.63722 44.325252 
L 331.901539 34.571716 
L 332.033699 36.082827 
L 332.165858 35.945454 
L 332.430178 36.632322 
L 332.562337 35.533332 
L 332.694497 35.533332 
L 332.826657 38.00606 
L 333.090976 48.446464 
L 333.355295 45.836363 
L 333.619614 37.319191 
L 333.751774 34.846464 
L 333.883933 37.593938 
L 334.016093 34.983837 
L 334.148253 27.977776 
L 334.676891 46.660605 
L 334.941211 41.440403 
L 335.20553 27.565656 
L 335.337689 29.351514 
L 335.469849 33.6101 
L 335.734168 45.01212 
L 335.998488 47.759595 
L 336.130647 47.484848 
L 336.394967 36.632322 
L 336.527126 37.181817 
L 336.791445 33.335352 
L 336.923605 31.549494 
L 337.055765 32.648484 
L 337.187924 31.549494 
L 337.452244 41.852524 
L 337.584403 49.957575 
L 337.848723 47.072727 
L 337.980882 47.896969 
L 338.377361 33.060605 
L 338.64168 22.482826 
L 338.906 34.434343 
L 339.170319 37.044444 
L 339.302479 39.929292 
L 339.566798 56.41414 
L 339.963277 48.30909 
L 340.491915 21.658585 
L 340.624075 23.71919 
L 341.020554 38.555555 
L 341.152713 38.280807 
L 341.417033 50.919191 
L 341.681352 48.583837 
L 341.813511 48.858585 
L 341.945671 49.545453 
L 342.077831 48.30909 
L 342.34215 21.795958 
L 342.47431 22.620202 
L 342.738629 30.038383 
L 343.002948 35.121211 
L 343.267267 44.187878 
L 343.399427 43.226262 
L 343.531587 43.91313 
L 343.663747 46.11111 
L 343.795906 45.149494 
L 344.060225 48.446464 
L 344.456704 27.703029 
L 344.588864 29.351514 
L 344.721023 25.779797 
L 344.853183 28.389898 
L 345.117502 40.066666 
L 345.381822 47.896969 
L 345.513981 47.484848 
L 345.646141 45.561615 
L 345.91046 34.022221 
L 346.04262 34.159595 
L 346.306939 48.583837 
L 346.571258 43.638383 
L 346.835578 28.802019 
L 346.967737 23.032322 
L 347.099897 23.032322 
L 347.496376 46.523231 
L 347.628536 44.874747 
L 348.157174 50.232322 
L 348.289334 47.896969 
L 348.685812 27.840403 
L 348.817972 26.604039 
L 349.214451 33.884847 
L 349.61093 45.698989 
L 349.74309 41.440403 
L 349.875249 40.890908 
L 350.007409 42.539393 
L 350.139568 41.440403 
L 350.271728 43.226262 
L 350.403888 40.753534 
L 350.536047 34.022221 
L 350.668207 35.121211 
L 350.800367 38.555555 
L 350.932526 36.632322 
L 351.064686 38.692928 
L 351.196846 44.325252 
L 351.329005 44.599999 
L 351.593324 35.395959 
L 351.725484 35.670706 
L 351.857644 36.220201 
L 351.989803 35.121211 
L 352.121963 35.121211 
L 352.254123 34.434343 
L 352.518442 38.830302 
L 352.782761 35.121211 
L 353.04708 45.561615 
L 353.17924 53.254544 
L 353.3114 52.155555 
L 353.575719 37.181817 
L 353.707879 36.90707 
L 353.840038 38.692928 
L 353.972198 35.533332 
L 354.104358 35.80808 
L 354.236517 39.654544 
L 354.368677 38.280807 
L 354.632996 22.482826 
L 354.765156 26.878787 
L 354.765156 26.878787 
" clip-path="url(#p2355d61b70)" style="fill: none; stroke: #4c72b0; stroke-width: 0.65; stroke-linecap: round"/>
   </g>
   <g id="patch_3">
    <path d="M 35.183338 68.4 
L 35.183338 7.2 
" style="fill: none; stroke: #ffffff; stroke-width: 1.25; stroke-linejoin: miter; stroke-linecap: square"/>
   </g>
   <g id="patch_4">
    <path d="M 369.983338 68.4 
L 369.983338 7.2 
" style="fill: none; stroke: #ffffff; stroke-width: 1.25; stroke-linejoin: miter; stroke-linecap: square"/>
   </g>
   <g id="patch_5">
    <path d="M 35.183338 68.4 
L 369.983338 68.4 
" style="fill: none; stroke: #ffffff; stroke-width: 1.25; stroke-linejoin: miter; stroke-linecap: square"/>
   </g>
   <g id="patch_6">
    <path d="M 35.183338 7.2 
L 369.983338 7.2 
" style="fill: none; stroke: #ffffff; stroke-width: 1.25; stroke-linejoin: miter; stroke-linecap: square"/>
   </g>
  </g>
 </g>
 <defs>
  <clipPath id="p2355d61b70">
   <rect x="35.183338" y="7.2" width="334.8" height="61.2"/>
  </clipPath>
 </defs>
</svg>
