<?xml version="1.0" encoding="utf-8" standalone="no"?>
<!DOCTYPE svg PUBLIC "-//W3C//DTD SVG 1.1//EN"
  "http://www.w3.org/Graphics/SVG/1.1/DTD/svg11.dtd">
<svg xmlns:xlink="http://www.w3.org/1999/xlink" width="377.183337pt" height="105.212895pt" viewBox="0 0 377.183337 105.212895" xmlns="http://www.w3.org/2000/svg" version="1.1">
 <metadata>
  <rdf:RDF xmlns:dc="http://purl.org/dc/elements/1.1/" xmlns:cc="http://creativecommons.org/ns#" xmlns:rdf="http://www.w3.org/1999/02/22-rdf-syntax-ns#">
   <cc:Work>
    <dc:type rdf:resource="http://purl.org/dc/dcmitype/StillImage"/>
    <dc:date>2024-12-09T20:19:18.426147</dc:date>
    <dc:format>image/svg+xml</dc:format>
    <dc:creator>
     <cc:Agent>
      <dc:title>Matplotlib v3.9.0, https://matplotlib.org/</dc:title>
     </cc:Agent>
    </dc:creator>
   </cc:Work>
  </rdf:RDF>
 </metadata>
 <defs>
  <style type="text/css">*{stroke-linejoin: round; stroke-linecap: butt}</style>
 </defs>
 <g id="figure_1">
  <g id="patch_1">
   <path d="M 0 105.212895 
L 377.183337 105.212895 
L 377.183337 0 
L 0 0 
z
" style="fill: #ffffff"/>
  </g>
  <g id="axes_1">
   <g id="patch_2">
    <path d="M 35.183338 68.4 
L 369.983338 68.4 
L 369.983338 7.2 
L 35.183338 7.2 
z
" style="fill: #eaeaf2"/>
   </g>
   <g id="matplotlib.axis_1">
    <g id="xtick_1">
     <g id="line2d_1">
      <path d="M 50.1372 68.4 
L 50.1372 7.2 
" clip-path="url(#p6cdaa76817)" style="fill: none; stroke: #ffffff; stroke-linecap: round"/>
     </g>
     <g id="text_1">
      <!-- 11 11:00 -->
      <g style="fill: #262626" transform="translate(35.430774 88.865805) rotate(-30) scale(0.044 -0.044)">
       <defs>
        <path id="ArialMT-31" d="M 2384 0 
L 1822 0 
L 1822 3584 
Q 1619 3391 1289 3197 
Q 959 3003 697 2906 
L 697 3450 
Q 1169 3672 1522 3987 
Q 1875 4303 2022 4600 
L 2384 4600 
L 2384 0 
z
" transform="scale(0.015625)"/>
        <path id="ArialMT-20" transform="scale(0.015625)"/>
        <path id="ArialMT-3a" d="M 578 2678 
L 578 3319 
L 1219 3319 
L 1219 2678 
L 578 2678 
z
M 578 0 
L 578 641 
L 1219 641 
L 1219 0 
L 578 0 
z
" transform="scale(0.015625)"/>
        <path id="ArialMT-30" d="M 266 2259 
Q 266 3072 433 3567 
Q 600 4063 929 4331 
Q 1259 4600 1759 4600 
Q 2128 4600 2406 4451 
Q 2684 4303 2865 4023 
Q 3047 3744 3150 3342 
Q 3253 2941 3253 2259 
Q 3253 1453 3087 958 
Q 2922 463 2592 192 
Q 2263 -78 1759 -78 
Q 1097 -78 719 397 
Q 266 969 266 2259 
z
M 844 2259 
Q 844 1131 1108 757 
Q 1372 384 1759 384 
Q 2147 384 2411 759 
Q 2675 1134 2675 2259 
Q 2675 3391 2411 3762 
Q 2147 4134 1753 4134 
Q 1366 4134 1134 3806 
Q 844 3388 844 2259 
z
" transform="scale(0.015625)"/>
       </defs>
       <use xlink:href="#ArialMT-31"/>
       <use xlink:href="#ArialMT-31" x="48.240234"/>
       <use xlink:href="#ArialMT-20" x="103.855469"/>
       <use xlink:href="#ArialMT-31" x="131.638672"/>
       <use xlink:href="#ArialMT-31" x="179.878906"/>
       <use xlink:href="#ArialMT-3a" x="235.494141"/>
       <use xlink:href="#ArialMT-30" x="263.277344"/>
       <use xlink:href="#ArialMT-30" x="318.892578"/>
      </g>
     </g>
    </g>
    <g id="xtick_2">
     <g id="line2d_2">
      <path d="M 100.886499 68.4 
L 100.886499 7.2 
" clip-path="url(#p6cdaa76817)" style="fill: none; stroke: #ffffff; stroke-linecap: round"/>
     </g>
     <g id="text_2">
      <!-- 11 11:05 -->
      <g style="fill: #262626" transform="translate(86.180074 88.865805) rotate(-30) scale(0.044 -0.044)">
       <defs>
        <path id="ArialMT-35" d="M 266 1200 
L 856 1250 
Q 922 819 1161 601 
Q 1400 384 1738 384 
Q 2144 384 2425 690 
Q 2706 997 2706 1503 
Q 2706 1984 2436 2262 
Q 2166 2541 1728 2541 
Q 1456 2541 1237 2417 
Q 1019 2294 894 2097 
L 366 2166 
L 809 4519 
L 3088 4519 
L 3088 3981 
L 1259 3981 
L 1013 2750 
Q 1425 3038 1878 3038 
Q 2478 3038 2890 2622 
Q 3303 2206 3303 1553 
Q 3303 931 2941 478 
Q 2500 -78 1738 -78 
Q 1113 -78 717 272 
Q 322 622 266 1200 
z
" transform="scale(0.015625)"/>
       </defs>
       <use xlink:href="#ArialMT-31"/>
       <use xlink:href="#ArialMT-31" x="48.240234"/>
       <use xlink:href="#ArialMT-20" x="103.855469"/>
       <use xlink:href="#ArialMT-31" x="131.638672"/>
       <use xlink:href="#ArialMT-31" x="179.878906"/>
       <use xlink:href="#ArialMT-3a" x="235.494141"/>
       <use xlink:href="#ArialMT-30" x="263.277344"/>
       <use xlink:href="#ArialMT-35" x="318.892578"/>
      </g>
     </g>
    </g>
    <g id="xtick_3">
     <g id="line2d_3">
      <path d="M 151.635799 68.4 
L 151.635799 7.2 
" clip-path="url(#p6cdaa76817)" style="fill: none; stroke: #ffffff; stroke-linecap: round"/>
     </g>
     <g id="text_3">
      <!-- 11 11:10 -->
      <g style="fill: #262626" transform="translate(136.929373 88.865805) rotate(-30) scale(0.044 -0.044)">
       <use xlink:href="#ArialMT-31"/>
       <use xlink:href="#ArialMT-31" x="48.240234"/>
       <use xlink:href="#ArialMT-20" x="103.855469"/>
       <use xlink:href="#ArialMT-31" x="131.638672"/>
       <use xlink:href="#ArialMT-31" x="179.878906"/>
       <use xlink:href="#ArialMT-3a" x="235.494141"/>
       <use xlink:href="#ArialMT-31" x="263.277344"/>
       <use xlink:href="#ArialMT-30" x="318.892578"/>
      </g>
     </g>
    </g>
    <g id="xtick_4">
     <g id="line2d_4">
      <path d="M 202.385098 68.4 
L 202.385098 7.2 
" clip-path="url(#p6cdaa76817)" style="fill: none; stroke: #ffffff; stroke-linecap: round"/>
     </g>
     <g id="text_4">
      <!-- 11 11:15 -->
      <g style="fill: #262626" transform="translate(187.678672 88.865805) rotate(-30) scale(0.044 -0.044)">
       <use xlink:href="#ArialMT-31"/>
       <use xlink:href="#ArialMT-31" x="48.240234"/>
       <use xlink:href="#ArialMT-20" x="103.855469"/>
       <use xlink:href="#ArialMT-31" x="131.638672"/>
       <use xlink:href="#ArialMT-31" x="179.878906"/>
       <use xlink:href="#ArialMT-3a" x="235.494141"/>
       <use xlink:href="#ArialMT-31" x="263.277344"/>
       <use xlink:href="#ArialMT-35" x="318.892578"/>
      </g>
     </g>
    </g>
    <g id="xtick_5">
     <g id="line2d_5">
      <path d="M 253.134397 68.4 
L 253.134397 7.2 
" clip-path="url(#p6cdaa76817)" style="fill: none; stroke: #ffffff; stroke-linecap: round"/>
     </g>
     <g id="text_5">
      <!-- 11 11:20 -->
      <g style="fill: #262626" transform="translate(238.427972 88.865805) rotate(-30) scale(0.044 -0.044)">
       <defs>
        <path id="ArialMT-32" d="M 3222 541 
L 3222 0 
L 194 0 
Q 188 203 259 391 
Q 375 700 629 1000 
Q 884 1300 1366 1694 
Q 2113 2306 2375 2664 
Q 2638 3022 2638 3341 
Q 2638 3675 2398 3904 
Q 2159 4134 1775 4134 
Q 1369 4134 1125 3890 
Q 881 3647 878 3216 
L 300 3275 
Q 359 3922 746 4261 
Q 1134 4600 1788 4600 
Q 2447 4600 2831 4234 
Q 3216 3869 3216 3328 
Q 3216 3053 3103 2787 
Q 2991 2522 2730 2228 
Q 2469 1934 1863 1422 
Q 1356 997 1212 845 
Q 1069 694 975 541 
L 3222 541 
z
" transform="scale(0.015625)"/>
       </defs>
       <use xlink:href="#ArialMT-31"/>
       <use xlink:href="#ArialMT-31" x="48.240234"/>
       <use xlink:href="#ArialMT-20" x="103.855469"/>
       <use xlink:href="#ArialMT-31" x="131.638672"/>
       <use xlink:href="#ArialMT-31" x="179.878906"/>
       <use xlink:href="#ArialMT-3a" x="235.494141"/>
       <use xlink:href="#ArialMT-32" x="263.277344"/>
       <use xlink:href="#ArialMT-30" x="318.892578"/>
      </g>
     </g>
    </g>
    <g id="xtick_6">
     <g id="line2d_6">
      <path d="M 303.883697 68.4 
L 303.883697 7.2 
" clip-path="url(#p6cdaa76817)" style="fill: none; stroke: #ffffff; stroke-linecap: round"/>
     </g>
     <g id="text_6">
      <!-- 11 11:25 -->
      <g style="fill: #262626" transform="translate(289.177271 88.865805) rotate(-30) scale(0.044 -0.044)">
       <use xlink:href="#ArialMT-31"/>
       <use xlink:href="#ArialMT-31" x="48.240234"/>
       <use xlink:href="#ArialMT-20" x="103.855469"/>
       <use xlink:href="#ArialMT-31" x="131.638672"/>
       <use xlink:href="#ArialMT-31" x="179.878906"/>
       <use xlink:href="#ArialMT-3a" x="235.494141"/>
       <use xlink:href="#ArialMT-32" x="263.277344"/>
       <use xlink:href="#ArialMT-35" x="318.892578"/>
      </g>
     </g>
    </g>
    <g id="xtick_7">
     <g id="line2d_7">
      <path d="M 354.632996 68.4 
L 354.632996 7.2 
" clip-path="url(#p6cdaa76817)" style="fill: none; stroke: #ffffff; stroke-linecap: round"/>
     </g>
     <g id="text_7">
      <!-- 11 11:30 -->
      <g style="fill: #262626" transform="translate(339.92657 88.865805) rotate(-30) scale(0.044 -0.044)">
       <defs>
        <path id="ArialMT-33" d="M 269 1209 
L 831 1284 
Q 928 806 1161 595 
Q 1394 384 1728 384 
Q 2125 384 2398 659 
Q 2672 934 2672 1341 
Q 2672 1728 2419 1979 
Q 2166 2231 1775 2231 
Q 1616 2231 1378 2169 
L 1441 2663 
Q 1497 2656 1531 2656 
Q 1891 2656 2178 2843 
Q 2466 3031 2466 3422 
Q 2466 3731 2256 3934 
Q 2047 4138 1716 4138 
Q 1388 4138 1169 3931 
Q 950 3725 888 3313 
L 325 3413 
Q 428 3978 793 4289 
Q 1159 4600 1703 4600 
Q 2078 4600 2393 4439 
Q 2709 4278 2876 4000 
Q 3044 3722 3044 3409 
Q 3044 3113 2884 2869 
Q 2725 2625 2413 2481 
Q 2819 2388 3044 2092 
Q 3269 1797 3269 1353 
Q 3269 753 2831 336 
Q 2394 -81 1725 -81 
Q 1122 -81 723 278 
Q 325 638 269 1209 
z
" transform="scale(0.015625)"/>
       </defs>
       <use xlink:href="#ArialMT-31"/>
       <use xlink:href="#ArialMT-31" x="48.240234"/>
       <use xlink:href="#ArialMT-20" x="103.855469"/>
       <use xlink:href="#ArialMT-31" x="131.638672"/>
       <use xlink:href="#ArialMT-31" x="179.878906"/>
       <use xlink:href="#ArialMT-3a" x="235.494141"/>
       <use xlink:href="#ArialMT-33" x="263.277344"/>
       <use xlink:href="#ArialMT-30" x="318.892578"/>
      </g>
     </g>
    </g>
    <g id="text_8">
     <!-- Time -->
     <g style="fill: #262626" transform="translate(197.340463 97.058895) scale(0.048 -0.048)">
      <defs>
       <path id="ArialMT-54" d="M 1659 0 
L 1659 4041 
L 150 4041 
L 150 4581 
L 3781 4581 
L 3781 4041 
L 2266 4041 
L 2266 0 
L 1659 0 
z
" transform="scale(0.015625)"/>
       <path id="ArialMT-69" d="M 425 3934 
L 425 4581 
L 988 4581 
L 988 3934 
L 425 3934 
z
M 425 0 
L 425 3319 
L 988 3319 
L 988 0 
L 425 0 
z
" transform="scale(0.015625)"/>
       <path id="ArialMT-6d" d="M 422 0 
L 422 3319 
L 925 3319 
L 925 2853 
Q 1081 3097 1340 3245 
Q 1600 3394 1931 3394 
Q 2300 3394 2536 3241 
Q 2772 3088 2869 2813 
Q 3263 3394 3894 3394 
Q 4388 3394 4653 3120 
Q 4919 2847 4919 2278 
L 4919 0 
L 4359 0 
L 4359 2091 
Q 4359 2428 4304 2576 
Q 4250 2725 4106 2815 
Q 3963 2906 3769 2906 
Q 3419 2906 3187 2673 
Q 2956 2441 2956 1928 
L 2956 0 
L 2394 0 
L 2394 2156 
Q 2394 2531 2256 2718 
Q 2119 2906 1806 2906 
Q 1569 2906 1367 2781 
Q 1166 2656 1075 2415 
Q 984 2175 984 1722 
L 984 0 
L 422 0 
z
" transform="scale(0.015625)"/>
       <path id="ArialMT-65" d="M 2694 1069 
L 3275 997 
Q 3138 488 2766 206 
Q 2394 -75 1816 -75 
Q 1088 -75 661 373 
Q 234 822 234 1631 
Q 234 2469 665 2931 
Q 1097 3394 1784 3394 
Q 2450 3394 2872 2941 
Q 3294 2488 3294 1666 
Q 3294 1616 3291 1516 
L 816 1516 
Q 847 969 1125 678 
Q 1403 388 1819 388 
Q 2128 388 2347 550 
Q 2566 713 2694 1069 
z
M 847 1978 
L 2700 1978 
Q 2663 2397 2488 2606 
Q 2219 2931 1791 2931 
Q 1403 2931 1139 2672 
Q 875 2413 847 1978 
z
" transform="scale(0.015625)"/>
      </defs>
      <use xlink:href="#ArialMT-54"/>
      <use xlink:href="#ArialMT-69" x="57.333984"/>
      <use xlink:href="#ArialMT-6d" x="79.550781"/>
      <use xlink:href="#ArialMT-65" x="162.851562"/>
     </g>
    </g>
   </g>
   <g id="matplotlib.axis_2">
    <g id="ytick_1">
     <g id="line2d_8">
      <path d="M 35.183338 62.503678 
L 369.983338 62.503678 
" clip-path="url(#p6cdaa76817)" style="fill: none; stroke: #ffffff; stroke-linecap: round"/>
     </g>
     <g id="text_9">
      <!-- −2 -->
      <g style="fill: #262626" transform="translate(20.66665 64.078396) scale(0.044 -0.044)">
       <defs>
        <path id="ArialMT-2212" d="M 3381 1997 
L 356 1997 
L 356 2522 
L 3381 2522 
L 3381 1997 
z
" transform="scale(0.015625)"/>
       </defs>
       <use xlink:href="#ArialMT-2212"/>
       <use xlink:href="#ArialMT-32" x="58.398438"/>
      </g>
     </g>
    </g>
    <g id="ytick_2">
     <g id="line2d_9">
      <path d="M 35.183338 48.346842 
L 369.983338 48.346842 
" clip-path="url(#p6cdaa76817)" style="fill: none; stroke: #ffffff; stroke-linecap: round"/>
     </g>
     <g id="text_10">
      <!-- −1 -->
      <g style="fill: #262626" transform="translate(20.66665 49.921561) scale(0.044 -0.044)">
       <use xlink:href="#ArialMT-2212"/>
       <use xlink:href="#ArialMT-31" x="58.398438"/>
      </g>
     </g>
    </g>
    <g id="ytick_3">
     <g id="line2d_10">
      <path d="M 35.183338 34.190007 
L 369.983338 34.190007 
" clip-path="url(#p6cdaa76817)" style="fill: none; stroke: #ffffff; stroke-linecap: round"/>
     </g>
     <g id="text_11">
      <!-- 0 -->
      <g style="fill: #262626" transform="translate(23.236525 35.764726) scale(0.044 -0.044)">
       <use xlink:href="#ArialMT-30"/>
      </g>
     </g>
    </g>
    <g id="ytick_4">
     <g id="line2d_11">
      <path d="M 35.183338 20.033172 
L 369.983338 20.033172 
" clip-path="url(#p6cdaa76817)" style="fill: none; stroke: #ffffff; stroke-linecap: round"/>
     </g>
     <g id="text_12">
      <!-- 1 -->
      <g style="fill: #262626" transform="translate(23.236525 21.607891) scale(0.044 -0.044)">
       <use xlink:href="#ArialMT-31"/>
      </g>
     </g>
    </g>
    <g id="text_13">
     <!-- North/South -->
     <g style="fill: #262626" transform="translate(10.63575 50.606625) rotate(-90) scale(0.048 -0.048)">
      <defs>
       <path id="ArialMT-4e" d="M 488 0 
L 488 4581 
L 1109 4581 
L 3516 984 
L 3516 4581 
L 4097 4581 
L 4097 0 
L 3475 0 
L 1069 3600 
L 1069 0 
L 488 0 
z
" transform="scale(0.015625)"/>
       <path id="ArialMT-6f" d="M 213 1659 
Q 213 2581 725 3025 
Q 1153 3394 1769 3394 
Q 2453 3394 2887 2945 
Q 3322 2497 3322 1706 
Q 3322 1066 3130 698 
Q 2938 331 2570 128 
Q 2203 -75 1769 -75 
Q 1072 -75 642 372 
Q 213 819 213 1659 
z
M 791 1659 
Q 791 1022 1069 705 
Q 1347 388 1769 388 
Q 2188 388 2466 706 
Q 2744 1025 2744 1678 
Q 2744 2294 2464 2611 
Q 2184 2928 1769 2928 
Q 1347 2928 1069 2612 
Q 791 2297 791 1659 
z
" transform="scale(0.015625)"/>
       <path id="ArialMT-72" d="M 416 0 
L 416 3319 
L 922 3319 
L 922 2816 
Q 1116 3169 1280 3281 
Q 1444 3394 1641 3394 
Q 1925 3394 2219 3213 
L 2025 2691 
Q 1819 2813 1613 2813 
Q 1428 2813 1281 2702 
Q 1134 2591 1072 2394 
Q 978 2094 978 1738 
L 978 0 
L 416 0 
z
" transform="scale(0.015625)"/>
       <path id="ArialMT-74" d="M 1650 503 
L 1731 6 
Q 1494 -44 1306 -44 
Q 1000 -44 831 53 
Q 663 150 594 308 
Q 525 466 525 972 
L 525 2881 
L 113 2881 
L 113 3319 
L 525 3319 
L 525 4141 
L 1084 4478 
L 1084 3319 
L 1650 3319 
L 1650 2881 
L 1084 2881 
L 1084 941 
Q 1084 700 1114 631 
Q 1144 563 1211 522 
Q 1278 481 1403 481 
Q 1497 481 1650 503 
z
" transform="scale(0.015625)"/>
       <path id="ArialMT-68" d="M 422 0 
L 422 4581 
L 984 4581 
L 984 2938 
Q 1378 3394 1978 3394 
Q 2347 3394 2619 3248 
Q 2891 3103 3008 2847 
Q 3125 2591 3125 2103 
L 3125 0 
L 2563 0 
L 2563 2103 
Q 2563 2525 2380 2717 
Q 2197 2909 1863 2909 
Q 1613 2909 1392 2779 
Q 1172 2650 1078 2428 
Q 984 2206 984 1816 
L 984 0 
L 422 0 
z
" transform="scale(0.015625)"/>
       <path id="ArialMT-2f" d="M 0 -78 
L 1328 4659 
L 1778 4659 
L 453 -78 
L 0 -78 
z
" transform="scale(0.015625)"/>
       <path id="ArialMT-53" d="M 288 1472 
L 859 1522 
Q 900 1178 1048 958 
Q 1197 738 1509 602 
Q 1822 466 2213 466 
Q 2559 466 2825 569 
Q 3091 672 3220 851 
Q 3350 1031 3350 1244 
Q 3350 1459 3225 1620 
Q 3100 1781 2813 1891 
Q 2628 1963 1997 2114 
Q 1366 2266 1113 2400 
Q 784 2572 623 2826 
Q 463 3081 463 3397 
Q 463 3744 659 4045 
Q 856 4347 1234 4503 
Q 1613 4659 2075 4659 
Q 2584 4659 2973 4495 
Q 3363 4331 3572 4012 
Q 3781 3694 3797 3291 
L 3216 3247 
Q 3169 3681 2898 3903 
Q 2628 4125 2100 4125 
Q 1550 4125 1298 3923 
Q 1047 3722 1047 3438 
Q 1047 3191 1225 3031 
Q 1400 2872 2139 2705 
Q 2878 2538 3153 2413 
Q 3553 2228 3743 1945 
Q 3934 1663 3934 1294 
Q 3934 928 3725 604 
Q 3516 281 3123 101 
Q 2731 -78 2241 -78 
Q 1619 -78 1198 103 
Q 778 284 539 648 
Q 300 1013 288 1472 
z
" transform="scale(0.015625)"/>
       <path id="ArialMT-75" d="M 2597 0 
L 2597 488 
Q 2209 -75 1544 -75 
Q 1250 -75 995 37 
Q 741 150 617 320 
Q 494 491 444 738 
Q 409 903 409 1263 
L 409 3319 
L 972 3319 
L 972 1478 
Q 972 1038 1006 884 
Q 1059 663 1231 536 
Q 1403 409 1656 409 
Q 1909 409 2131 539 
Q 2353 669 2445 892 
Q 2538 1116 2538 1541 
L 2538 3319 
L 3100 3319 
L 3100 0 
L 2597 0 
z
" transform="scale(0.015625)"/>
      </defs>
      <use xlink:href="#ArialMT-4e"/>
      <use xlink:href="#ArialMT-6f" x="72.216797"/>
      <use xlink:href="#ArialMT-72" x="127.832031"/>
      <use xlink:href="#ArialMT-74" x="161.132812"/>
      <use xlink:href="#ArialMT-68" x="188.916016"/>
      <use xlink:href="#ArialMT-2f" x="244.53125"/>
      <use xlink:href="#ArialMT-53" x="272.314453"/>
      <use xlink:href="#ArialMT-6f" x="339.013672"/>
      <use xlink:href="#ArialMT-75" x="394.628906"/>
      <use xlink:href="#ArialMT-74" x="450.244141"/>
      <use xlink:href="#ArialMT-68" x="478.027344"/>
     </g>
     <!-- Displacement [m] -->
     <g style="fill: #262626" transform="translate(15.71265 56.338125) rotate(-90) scale(0.048 -0.048)">
      <defs>
       <path id="ArialMT-44" d="M 494 0 
L 494 4581 
L 2072 4581 
Q 2606 4581 2888 4516 
Q 3281 4425 3559 4188 
Q 3922 3881 4101 3404 
Q 4281 2928 4281 2316 
Q 4281 1794 4159 1391 
Q 4038 988 3847 723 
Q 3656 459 3429 307 
Q 3203 156 2883 78 
Q 2563 0 2147 0 
L 494 0 
z
M 1100 541 
L 2078 541 
Q 2531 541 2789 625 
Q 3047 709 3200 863 
Q 3416 1078 3536 1442 
Q 3656 1806 3656 2325 
Q 3656 3044 3420 3430 
Q 3184 3816 2847 3947 
Q 2603 4041 2063 4041 
L 1100 4041 
L 1100 541 
z
" transform="scale(0.015625)"/>
       <path id="ArialMT-73" d="M 197 991 
L 753 1078 
Q 800 744 1014 566 
Q 1228 388 1613 388 
Q 2000 388 2187 545 
Q 2375 703 2375 916 
Q 2375 1106 2209 1216 
Q 2094 1291 1634 1406 
Q 1016 1563 777 1677 
Q 538 1791 414 1992 
Q 291 2194 291 2438 
Q 291 2659 392 2848 
Q 494 3038 669 3163 
Q 800 3259 1026 3326 
Q 1253 3394 1513 3394 
Q 1903 3394 2198 3281 
Q 2494 3169 2634 2976 
Q 2775 2784 2828 2463 
L 2278 2388 
Q 2241 2644 2061 2787 
Q 1881 2931 1553 2931 
Q 1166 2931 1000 2803 
Q 834 2675 834 2503 
Q 834 2394 903 2306 
Q 972 2216 1119 2156 
Q 1203 2125 1616 2013 
Q 2213 1853 2448 1751 
Q 2684 1650 2818 1456 
Q 2953 1263 2953 975 
Q 2953 694 2789 445 
Q 2625 197 2315 61 
Q 2006 -75 1616 -75 
Q 969 -75 630 194 
Q 291 463 197 991 
z
" transform="scale(0.015625)"/>
       <path id="ArialMT-70" d="M 422 -1272 
L 422 3319 
L 934 3319 
L 934 2888 
Q 1116 3141 1344 3267 
Q 1572 3394 1897 3394 
Q 2322 3394 2647 3175 
Q 2972 2956 3137 2557 
Q 3303 2159 3303 1684 
Q 3303 1175 3120 767 
Q 2938 359 2589 142 
Q 2241 -75 1856 -75 
Q 1575 -75 1351 44 
Q 1128 163 984 344 
L 984 -1272 
L 422 -1272 
z
M 931 1641 
Q 931 1000 1190 694 
Q 1450 388 1819 388 
Q 2194 388 2461 705 
Q 2728 1022 2728 1688 
Q 2728 2322 2467 2637 
Q 2206 2953 1844 2953 
Q 1484 2953 1207 2617 
Q 931 2281 931 1641 
z
" transform="scale(0.015625)"/>
       <path id="ArialMT-6c" d="M 409 0 
L 409 4581 
L 972 4581 
L 972 0 
L 409 0 
z
" transform="scale(0.015625)"/>
       <path id="ArialMT-61" d="M 2588 409 
Q 2275 144 1986 34 
Q 1697 -75 1366 -75 
Q 819 -75 525 192 
Q 231 459 231 875 
Q 231 1119 342 1320 
Q 453 1522 633 1644 
Q 813 1766 1038 1828 
Q 1203 1872 1538 1913 
Q 2219 1994 2541 2106 
Q 2544 2222 2544 2253 
Q 2544 2597 2384 2738 
Q 2169 2928 1744 2928 
Q 1347 2928 1158 2789 
Q 969 2650 878 2297 
L 328 2372 
Q 403 2725 575 2942 
Q 747 3159 1072 3276 
Q 1397 3394 1825 3394 
Q 2250 3394 2515 3294 
Q 2781 3194 2906 3042 
Q 3031 2891 3081 2659 
Q 3109 2516 3109 2141 
L 3109 1391 
Q 3109 606 3145 398 
Q 3181 191 3288 0 
L 2700 0 
Q 2613 175 2588 409 
z
M 2541 1666 
Q 2234 1541 1622 1453 
Q 1275 1403 1131 1340 
Q 988 1278 909 1158 
Q 831 1038 831 891 
Q 831 666 1001 516 
Q 1172 366 1500 366 
Q 1825 366 2078 508 
Q 2331 650 2450 897 
Q 2541 1088 2541 1459 
L 2541 1666 
z
" transform="scale(0.015625)"/>
       <path id="ArialMT-63" d="M 2588 1216 
L 3141 1144 
Q 3050 572 2676 248 
Q 2303 -75 1759 -75 
Q 1078 -75 664 370 
Q 250 816 250 1647 
Q 250 2184 428 2587 
Q 606 2991 970 3192 
Q 1334 3394 1763 3394 
Q 2303 3394 2647 3120 
Q 2991 2847 3088 2344 
L 2541 2259 
Q 2463 2594 2264 2762 
Q 2066 2931 1784 2931 
Q 1359 2931 1093 2626 
Q 828 2322 828 1663 
Q 828 994 1084 691 
Q 1341 388 1753 388 
Q 2084 388 2306 591 
Q 2528 794 2588 1216 
z
" transform="scale(0.015625)"/>
       <path id="ArialMT-6e" d="M 422 0 
L 422 3319 
L 928 3319 
L 928 2847 
Q 1294 3394 1984 3394 
Q 2284 3394 2536 3286 
Q 2788 3178 2913 3003 
Q 3038 2828 3088 2588 
Q 3119 2431 3119 2041 
L 3119 0 
L 2556 0 
L 2556 2019 
Q 2556 2363 2490 2533 
Q 2425 2703 2258 2804 
Q 2091 2906 1866 2906 
Q 1506 2906 1245 2678 
Q 984 2450 984 1813 
L 984 0 
L 422 0 
z
" transform="scale(0.015625)"/>
       <path id="ArialMT-5b" d="M 434 -1272 
L 434 4581 
L 1675 4581 
L 1675 4116 
L 997 4116 
L 997 -806 
L 1675 -806 
L 1675 -1272 
L 434 -1272 
z
" transform="scale(0.015625)"/>
       <path id="ArialMT-5d" d="M 1363 -1272 
L 122 -1272 
L 122 -806 
L 800 -806 
L 800 4116 
L 122 4116 
L 122 4581 
L 1363 4581 
L 1363 -1272 
z
" transform="scale(0.015625)"/>
      </defs>
      <use xlink:href="#ArialMT-44"/>
      <use xlink:href="#ArialMT-69" x="72.216797"/>
      <use xlink:href="#ArialMT-73" x="94.433594"/>
      <use xlink:href="#ArialMT-70" x="144.433594"/>
      <use xlink:href="#ArialMT-6c" x="200.048828"/>
      <use xlink:href="#ArialMT-61" x="222.265625"/>
      <use xlink:href="#ArialMT-63" x="277.880859"/>
      <use xlink:href="#ArialMT-65" x="327.880859"/>
      <use xlink:href="#ArialMT-6d" x="383.496094"/>
      <use xlink:href="#ArialMT-65" x="466.796875"/>
      <use xlink:href="#ArialMT-6e" x="522.412109"/>
      <use xlink:href="#ArialMT-74" x="578.027344"/>
      <use xlink:href="#ArialMT-20" x="605.810547"/>
      <use xlink:href="#ArialMT-5b" x="633.59375"/>
      <use xlink:href="#ArialMT-6d" x="661.376953"/>
      <use xlink:href="#ArialMT-5d" x="744.677734"/>
     </g>
    </g>
   </g>
   <g id="line2d_12">
    <path d="M 50.401519 38.153921 
L 50.665838 23.997085 
L 50.930158 15.644554 
L 51.062318 18.051215 
L 51.326637 30.226093 
L 51.590956 41.976267 
L 51.723116 40.277446 
L 52.119594 51.036642 
L 52.251754 52.73546 
L 52.912552 23.572381 
L 53.441191 17.201804 
L 53.57335 20.599445 
L 54.101989 48.205274 
L 54.234149 45.373907 
L 54.366308 45.657044 
L 54.630628 39.994309 
L 54.762787 40.419015 
L 55.423585 25.979043 
L 55.687905 31.217072 
L 55.820064 32.349619 
L 56.480862 44.099792 
L 56.877341 30.367661 
L 57.141661 27.961 
L 57.27382 30.084525 
L 57.40598 29.65982 
L 57.53814 27.677863 
L 57.934618 35.180986 
L 58.066778 32.915892 
L 58.198938 33.90687 
L 58.463257 39.003331 
L 58.595417 37.870784 
L 58.859736 30.933935 
L 58.991895 31.783345 
L 59.388374 42.684109 
L 59.652694 40.702151 
L 59.784853 40.985288 
L 59.917013 37.729216 
L 60.181332 26.828453 
L 60.445651 23.147676 
L 60.709971 32.066482 
L 60.97429 30.792367 
L 61.370769 44.24136 
L 61.502929 42.400971 
L 61.767248 36.738238 
L 61.899407 35.747259 
L 62.163727 25.554337 
L 62.295886 24.846495 
L 62.428046 23.147676 
L 63.088844 39.994309 
L 63.221004 39.711173 
L 63.485323 42.54254 
L 63.617483 41.551561 
L 63.749642 41.834698 
L 64.278281 29.235115 
L 64.410441 30.367661 
L 64.67476 34.75628 
L 64.806919 31.924913 
L 65.203398 34.897849 
L 65.599877 37.446079 
L 65.996356 25.129633 
L 66.128516 27.819431 
L 66.392835 36.455101 
L 66.524995 32.20805 
L 66.657154 32.066482 
L 66.789314 33.199029 
L 66.921473 35.322554 
L 67.053633 34.897849 
L 67.185793 31.35864 
L 67.450112 39.286468 
L 67.846591 34.614712 
L 67.978751 34.897849 
L 68.24307 38.578626 
L 68.375229 35.605691 
L 68.639549 37.162942 
L 68.771708 37.162942 
L 68.903868 35.605691 
L 69.168187 23.289244 
L 69.300347 23.997085 
L 69.432507 26.403747 
L 69.961145 46.931158 
L 70.093305 47.922138 
L 70.225464 46.648022 
L 70.886263 17.484942 
L 71.018422 14.087302 
L 71.150582 17.060236 
L 71.81138 54.717419 
L 71.94354 53.584871 
L 72.207859 42.825677 
L 72.340018 39.994309 
L 72.604338 24.988064 
L 72.736497 25.271201 
L 73.000817 26.828453 
L 73.132976 27.677863 
L 73.265136 29.801388 
L 73.661615 41.693129 
L 73.925934 44.24136 
L 74.058094 42.54254 
L 74.586732 24.846495 
L 74.718892 25.129633 
L 74.851052 29.518251 
L 74.983211 29.801388 
L 75.24753 33.05746 
L 75.37969 30.792367 
L 75.644009 33.482165 
L 75.908328 27.819431 
L 76.040488 29.65982 
L 76.436967 42.54254 
L 76.569127 48.205274 
L 76.701286 48.629979 
L 76.833446 46.931158 
L 77.097765 38.153921 
L 77.626404 18.051215 
L 77.758564 18.617488 
L 78.419362 44.099792 
L 78.551521 44.382929 
L 78.683681 46.364886 
L 78.81584 43.533519 
L 79.08016 32.349619 
L 79.212319 31.075503 
L 79.344479 32.491187 
L 79.476639 35.888827 
L 79.608798 35.180986 
L 80.137437 23.713949 
L 80.269596 22.72297 
L 80.930395 43.108813 
L 81.194714 55.283692 
L 81.326874 50.753504 
L 81.591193 39.003331 
L 81.723352 34.614712 
L 82.119831 12.388481 
L 82.384151 19.750035 
L 82.78063 44.524497 
L 83.177108 50.611936 
L 83.573587 44.524497 
L 83.970066 23.572381 
L 84.234386 14.087302 
L 84.498705 24.421791 
L 84.895184 42.825677 
L 85.027343 42.967245 
L 85.291662 39.428036 
L 85.423822 38.437058 
L 85.555982 33.90687 
L 85.688142 33.623734 
L 85.820301 32.632755 
L 85.952461 32.915892 
L 86.08462 34.75628 
L 86.21678 32.491187 
L 86.481099 34.897849 
L 86.613259 34.614712 
L 86.877578 32.20805 
L 87.141897 39.286468 
L 87.538376 27.536294 
L 88.067015 31.500208 
L 88.199175 33.340597 
L 88.463494 44.382929 
L 88.595653 43.816655 
L 88.727813 42.259403 
L 88.859973 42.825677 
L 88.992132 41.976267 
L 89.388611 24.988064 
L 89.652931 29.376683 
L 89.78509 29.942956 
L 90.049409 33.340597 
L 90.313729 38.295489 
L 90.445888 38.295489 
L 90.842367 25.979043 
L 90.974527 26.686885 
L 91.238846 34.331575 
L 91.371006 34.75628 
L 91.503165 38.578626 
L 91.635325 38.720194 
L 91.899644 41.409993 
L 92.031804 41.551561 
L 92.163963 40.419015 
L 92.428283 27.819431 
L 92.560443 26.970021 
L 92.692602 27.677863 
L 92.824762 29.093546 
L 92.956921 27.536294 
L 93.089081 27.819431 
L 93.617719 47.072728 
L 93.882039 38.012353 
L 94.014198 37.587647 
L 94.278518 32.632755 
L 94.410677 32.774324 
L 94.542837 33.199029 
L 94.674997 33.199029 
L 94.807156 33.482165 
L 94.939316 35.464122 
L 95.071475 34.048439 
L 95.467954 23.713949 
L 95.600114 21.731992 
L 95.864433 27.961 
L 96.525231 50.328799 
L 96.92171 40.135878 
L 97.318189 26.686885 
L 97.450349 25.837475 
L 97.582509 25.979043 
L 97.714668 26.403747 
L 97.978987 31.217072 
L 98.111147 31.783345 
L 98.243307 34.190007 
L 98.507626 41.551561 
L 98.639785 41.409993 
L 98.771945 43.816655 
L 98.904105 43.108813 
L 99.697063 26.120611 
L 100.093541 16.352395 
L 100.357861 25.695906 
L 100.62218 40.702151 
L 100.75434 42.684109 
L 101.018659 50.328799 
L 101.282978 43.816655 
L 101.547297 38.720194 
L 101.811617 32.20805 
L 102.208096 26.403747 
L 102.340255 21.165718 
L 102.472415 22.015129 
L 102.736734 30.792367 
L 103.001054 40.84372 
L 103.265373 41.976267 
L 103.397532 42.259403 
L 103.529692 41.693129 
L 103.661852 42.967245 
L 103.794011 39.286468 
L 104.058331 26.120611 
L 104.19049 25.554337 
L 104.45481 28.527273 
L 104.719129 27.253158 
L 104.983448 36.030396 
L 105.115608 36.313532 
L 105.247767 36.879806 
L 105.379927 34.75628 
L 105.644246 40.277446 
L 105.776406 39.003331 
L 105.908566 39.144899 
L 106.040725 39.711173 
L 106.172885 39.286468 
L 106.701523 27.111589 
L 106.833683 25.271201 
L 107.230162 34.897849 
L 107.626641 36.455101 
L 107.7588 38.720194 
L 108.02312 33.199029 
L 108.155279 35.180986 
L 108.287439 35.322554 
L 108.419598 35.747259 
L 108.816077 30.933935 
L 108.948237 29.942956 
L 109.080397 31.35864 
L 109.344716 38.861763 
L 109.476876 39.144899 
L 110.005514 32.20805 
L 110.269833 34.331575 
L 110.534153 31.500208 
L 110.666312 32.915892 
L 110.798472 37.162942 
L 110.930632 36.738238 
L 111.062791 32.066482 
L 111.32711 33.623734 
L 111.59143 38.295489 
L 112.120068 29.518251 
L 112.384388 34.614712 
L 112.516547 38.437058 
L 112.913026 30.084525 
L 113.045186 30.792367 
L 113.309505 29.093546 
L 113.441664 31.500208 
L 113.705984 41.409993 
L 113.970303 38.295489 
L 114.234622 39.569604 
L 114.498942 37.021374 
L 114.631101 37.162942 
L 114.763261 35.464122 
L 115.02758 28.951978 
L 115.15974 29.65982 
L 115.2919 31.075503 
L 115.424059 31.075503 
L 115.556219 29.235115 
L 115.688378 32.066482 
L 115.820538 38.437058 
L 115.952698 38.295489 
L 116.217017 35.322554 
L 116.481336 31.783345 
L 116.613496 29.376683 
L 116.745655 30.50923 
L 116.877815 33.340597 
L 117.142134 24.846495 
L 117.274294 26.403747 
L 117.802933 41.834698 
L 117.935092 43.533519 
L 118.067252 40.277446 
L 118.199411 40.277446 
L 118.331571 43.108813 
L 118.463731 39.428036 
L 118.59589 39.144899 
L 118.860209 30.933935 
L 118.992369 31.500208 
L 119.388848 27.677863 
L 119.785327 30.650798 
L 119.917487 28.385705 
L 120.049646 33.05746 
L 120.313965 44.807634 
L 120.446125 40.84372 
L 120.710444 43.816655 
L 120.974764 38.295489 
L 121.371243 18.617488 
L 121.503402 14.370438 
L 121.635562 14.22887 
L 121.767721 13.096322 
L 121.899881 16.210827 
L 122.1642 36.738238 
L 122.42852 63.91936 
L 122.560679 65.618182 
L 123.221477 32.632755 
L 123.485797 17.484942 
L 123.617956 14.653574 
L 123.750116 15.219847 
L 123.882276 18.051215 
L 124.278755 39.144899 
L 124.410914 37.870784 
L 124.543074 38.153921 
L 124.675233 36.455101 
L 124.807393 39.569604 
L 124.939553 46.506454 
L 125.071712 44.949202 
L 125.468191 31.075503 
L 125.732511 34.048439 
L 126.393309 26.403747 
L 126.525468 27.111589 
L 126.789787 33.482165 
L 127.054107 26.686885 
L 127.186267 31.783345 
L 127.450586 46.931158 
L 127.582745 50.611936 
L 127.847065 45.373907 
L 128.243543 32.20805 
L 128.772182 23.997085 
L 129.036501 33.482165 
L 129.168661 30.650798 
L 129.300821 30.933935 
L 129.697299 36.455101 
L 129.961619 34.75628 
L 130.225938 41.834698 
L 130.358098 43.39195 
L 130.490257 40.985288 
L 130.886736 30.367661 
L 131.018896 28.81041 
L 131.151055 23.289244 
L 131.283215 22.439834 
L 131.547534 28.527273 
L 131.679694 30.226093 
L 131.944013 37.162942 
L 132.208333 42.967245 
L 132.340492 47.780569 
L 132.472652 47.780569 
L 132.736971 42.825677 
L 133.00129 30.792367 
L 133.13345 28.951978 
L 133.529929 15.078279 
L 133.794248 28.244136 
L 134.058567 40.84372 
L 134.322887 43.39195 
L 134.587206 39.286468 
L 134.719366 41.551561 
L 134.983685 38.012353 
L 135.512323 25.271201 
L 135.908802 36.738238 
L 136.040962 35.464122 
L 136.173122 35.322554 
L 136.305281 35.747259 
L 136.5696 38.012353 
L 136.966079 31.217072 
L 137.230399 39.428036 
L 137.626878 32.774324 
L 137.759037 35.180986 
L 137.891197 33.482165 
L 138.155516 29.235115 
L 138.419835 31.783345 
L 138.551995 32.349619 
L 138.684154 29.376683 
L 138.816314 23.430812 
L 138.948474 25.129633 
L 139.344953 45.657044 
L 139.477112 40.560583 
L 139.609272 40.84372 
L 139.741432 41.693129 
L 140.005751 38.012353 
L 140.27007 26.686885 
L 140.40223 26.970021 
L 140.53439 28.102568 
L 140.930868 36.738238 
L 141.063028 35.322554 
L 141.327347 41.976267 
L 141.459507 41.409993 
L 141.988146 25.979043 
L 142.120305 26.545316 
L 142.384624 33.340597 
L 142.516784 35.605691 
L 142.648944 35.322554 
L 142.781103 35.747259 
L 142.913263 35.039417 
L 143.045422 36.030396 
L 143.177582 38.720194 
L 143.574061 28.527273 
L 143.706221 29.376683 
L 143.83838 31.217072 
L 144.1027 41.268425 
L 144.367019 43.675087 
L 144.499178 40.277446 
L 144.895657 20.741014 
L 145.159977 21.87356 
L 145.688615 47.072728 
L 145.820775 43.39195 
L 146.217254 48.913115 
L 146.481573 34.331575 
L 146.745892 21.165718 
L 146.878052 18.47592 
L 147.010212 20.033172 
L 147.274531 25.979043 
L 147.803169 49.762526 
L 147.935329 47.780569 
L 148.596127 21.02415 
L 148.728287 21.731992 
L 148.992606 19.750035 
L 149.256925 32.774324 
L 149.521245 41.268425 
L 149.653404 41.126856 
L 149.785564 44.949202 
L 149.917723 44.24136 
L 150.049883 41.551561 
L 150.182043 41.834698 
L 151.10716 29.65982 
L 151.23932 30.650798 
L 151.503639 27.961 
L 151.635799 26.403747 
L 151.767958 29.376683 
L 152.032278 36.596669 
L 152.296597 42.259403 
L 152.560916 35.605691 
L 153.089555 22.156697 
L 153.882513 44.524497 
L 154.014672 45.232338 
L 154.146832 43.816655 
L 154.543311 29.801388 
L 154.67547 29.235115 
L 154.939789 25.979043 
L 155.204109 40.84372 
L 155.336269 41.126856 
L 155.600588 38.153921 
L 155.864907 33.623734 
L 155.997067 34.614712 
L 156.129226 36.879806 
L 156.261386 36.879806 
L 156.525705 27.253158 
L 156.657865 27.677863 
L 156.790024 30.367661 
L 156.922184 30.792367 
L 157.186503 21.165718 
L 157.318663 25.979043 
L 157.582982 42.400971 
L 157.715142 40.84372 
L 157.847301 41.834698 
L 158.24378 39.994309 
L 158.37594 39.003331 
L 158.904579 27.394726 
L 159.036738 26.403747 
L 159.168898 27.253158 
L 159.433217 31.217072 
L 159.565377 32.632755 
L 159.829696 42.54254 
L 160.094015 42.825677 
L 160.490494 33.482165 
L 160.754813 31.075503 
L 160.886973 33.199029 
L 161.019133 32.915892 
L 161.151292 33.90687 
L 161.283452 32.632755 
L 161.415612 32.632755 
L 161.679931 28.527273 
L 161.812091 30.367661 
L 161.94425 30.367661 
L 162.208569 36.879806 
L 162.472889 31.075503 
L 162.605048 32.20805 
L 162.737208 35.322554 
L 163.001527 34.331575 
L 163.133687 39.852741 
L 163.265846 40.419015 
L 163.398006 37.021374 
L 163.662325 38.578626 
L 163.794485 38.012353 
L 164.058804 33.623734 
L 164.323124 26.686885 
L 164.455283 27.253158 
L 164.719602 33.05746 
L 164.851762 33.340597 
L 164.983922 35.747259 
L 165.248241 33.623734 
L 165.3804 34.473144 
L 165.64472 39.428036 
L 165.77688 37.162942 
L 165.909039 37.870784 
L 166.305518 28.951978 
L 166.437678 30.367661 
L 166.569837 33.199029 
L 166.834156 31.217072 
L 167.098476 26.262179 
L 167.627114 39.852741 
L 167.759274 41.976267 
L 168.023593 34.75628 
L 168.155753 35.605691 
L 168.287912 37.870784 
L 168.552232 44.099792 
L 169.34519 23.147676 
L 169.609509 25.695906 
L 169.873828 30.792367 
L 170.005988 32.349619 
L 170.270307 39.711173 
L 170.534626 45.515475 
L 170.666786 42.825677 
L 170.931105 32.632755 
L 171.063265 34.190007 
L 171.327584 28.668842 
L 171.459744 29.801388 
L 171.856223 27.677863 
L 171.988382 28.81041 
L 172.252702 34.614712 
L 172.517021 43.39195 
L 173.045659 45.657044 
L 173.309979 34.331575 
L 173.574298 22.015129 
L 173.706458 21.165718 
L 174.102936 26.828453 
L 174.235096 24.421791 
L 174.631575 38.295489 
L 174.895894 39.711173 
L 175.160214 45.798612 
L 175.292373 45.657044 
L 175.688852 30.50923 
L 175.821012 28.244136 
L 176.21749 28.951978 
L 176.34965 27.961 
L 176.48181 27.961 
L 176.746129 37.729216 
L 177.274768 42.825677 
L 177.539087 34.190007 
L 177.671246 34.048439 
L 177.803406 36.171964 
L 177.935566 34.473144 
L 178.199885 29.376683 
L 178.464204 27.961 
L 178.728524 30.933935 
L 178.860683 30.084525 
L 179.125003 32.066482 
L 179.521481 37.446079 
L 179.785801 34.190007 
L 180.05012 44.24136 
L 180.578759 32.491187 
L 180.710918 32.915892 
L 180.843078 32.774324 
L 180.975237 31.783345 
L 181.239557 26.120611 
L 181.503876 30.650798 
L 181.636035 31.217072 
L 181.768195 32.491187 
L 182.164674 40.560583 
L 182.428993 33.623734 
L 182.561153 34.614712 
L 182.825472 29.093546 
L 183.089791 36.738238 
L 183.221951 34.473144 
L 183.354111 34.190007 
L 183.75059 35.747259 
L 184.014909 41.551561 
L 184.411388 27.677863 
L 184.543547 26.970021 
L 184.807867 35.039417 
L 184.940026 30.792367 
L 185.336505 38.295489 
L 185.468665 39.711173 
L 185.732984 37.446079 
L 185.865144 37.870784 
L 185.997303 34.75628 
L 186.129463 34.473144 
L 186.525942 29.65982 
L 186.790261 20.316308 
L 186.922421 19.750035 
L 187.054581 21.307287 
L 187.451059 42.967245 
L 187.583219 42.967245 
L 187.847538 50.753504 
L 187.979698 48.488411 
L 188.508337 30.650798 
L 188.772656 27.536294 
L 188.904815 24.138654 
L 189.036975 23.855517 
L 189.169135 25.129633 
L 189.433454 31.783345 
L 189.697773 43.533519 
L 189.829933 42.259403 
L 189.962093 39.003331 
L 190.226412 29.65982 
L 190.358571 33.765302 
L 190.88721 26.828453 
L 191.283689 40.985288 
L 191.680168 34.614712 
L 191.944487 32.915892 
L 192.076647 33.623734 
L 192.208806 29.235115 
L 192.340966 31.217072 
L 192.473125 38.295489 
L 192.737445 38.861763 
L 192.869604 41.834698 
L 193.001764 41.693129 
L 193.530403 31.35864 
L 193.662562 30.226093 
L 193.794722 31.217072 
L 193.926882 30.650798 
L 194.191201 25.412769 
L 194.32336 26.545316 
L 194.45552 26.120611 
L 194.58768 27.819431 
L 194.851999 40.702151 
L 194.984158 41.976267 
L 195.116318 40.702151 
L 195.380637 46.364886 
L 195.644957 41.409993 
L 195.909276 22.72297 
L 196.173595 24.846495 
L 196.570074 31.35864 
L 196.834393 36.879806 
L 196.966553 37.021374 
L 197.098713 37.729216 
L 197.230872 36.455101 
L 197.363032 36.738238 
L 197.495192 39.286468 
L 197.627351 38.861763 
L 197.759511 38.861763 
L 197.89167 40.135878 
L 198.02383 39.711173 
L 198.420309 34.473144 
L 198.948948 17.768079 
L 199.081107 18.617488 
L 199.213267 22.72297 
L 199.741905 51.744483 
L 200.006225 52.593892 
L 200.138384 49.904094 
L 200.402704 36.030396 
L 200.667023 13.237891 
L 200.799182 9.981818 
L 201.063502 17.201804 
L 201.327821 31.641777 
L 201.59214 42.825677 
L 201.85646 49.054683 
L 202.120779 45.94018 
L 202.252938 46.931158 
L 202.385098 46.223317 
L 202.781577 27.677863 
L 203.045896 22.015129 
L 203.574535 33.623734 
L 203.838854 25.554337 
L 203.971014 26.262179 
L 204.763972 47.497432 
L 204.896131 49.054683 
L 205.028291 47.355864 
L 205.556929 16.635531 
L 205.689089 13.804163 
L 205.821248 14.653574 
L 206.085568 22.581402 
L 206.746366 56.840944 
L 206.878526 57.548785 
L 207.010685 53.868008 
L 207.803643 10.406525 
L 208.200122 30.226093 
L 208.464441 44.24136 
L 208.728761 47.497432 
L 208.86092 47.355864 
L 208.99308 46.364886 
L 209.389558 37.021374 
L 209.653878 24.421791 
L 209.786038 23.997085 
L 209.918197 26.262179 
L 210.050357 26.262179 
L 210.446836 33.05746 
L 210.711155 28.527273 
L 210.843315 28.527273 
L 210.975474 29.942956 
L 211.371953 50.470367 
L 211.504113 48.346842 
L 211.768432 43.250381 
L 211.900592 40.985288 
L 212.42923 18.759056 
L 212.56139 15.219847 
L 212.693549 16.493963 
L 213.486507 51.319778 
L 213.618667 51.461347 
L 214.147305 35.605691 
L 214.411625 19.608467 
L 214.543784 16.777099 
L 214.675944 17.484942 
L 214.940263 21.731992 
L 215.601061 46.506454 
L 215.733221 49.47939 
L 215.865381 49.47939 
L 216.1297 46.364886 
L 216.261859 42.117835 
L 216.526179 26.120611 
L 216.658339 25.271201 
L 216.922658 20.599445 
L 217.054817 21.02415 
L 217.186977 23.006107 
L 217.451296 35.039417 
L 217.979935 47.922138 
L 218.640733 28.244136 
L 218.772893 30.50923 
L 219.037212 39.428036 
L 219.169371 40.84372 
L 219.433691 31.641777 
L 219.69801 31.783345 
L 219.83017 29.942956 
L 219.962329 25.271201 
L 220.094489 24.563359 
L 220.226649 26.686885 
L 220.755287 48.488411 
L 221.151766 36.596669 
L 221.548245 21.731992 
L 221.680405 23.006107 
L 221.812564 23.006107 
L 221.944724 24.280223 
L 222.341203 46.931158 
L 222.473362 46.648022 
L 223.002001 28.244136 
L 223.134161 29.942956 
L 223.39848 28.527273 
L 224.059278 40.277446 
L 224.191437 40.419015 
L 224.323597 39.286468 
L 224.852236 23.997085 
L 225.248715 32.349619 
L 225.380874 32.632755 
L 225.513034 32.20805 
L 225.645194 35.747259 
L 225.777353 34.897849 
L 225.909513 35.322554 
L 226.173832 43.108813 
L 226.438151 27.819431 
L 226.570311 28.385705 
L 227.09895 40.277446 
L 227.231109 40.277446 
L 227.495428 41.693129 
L 227.759748 35.039417 
L 228.024067 26.403747 
L 228.288386 23.289244 
L 228.420546 21.02415 
L 228.552706 23.572381 
L 229.081344 46.506454 
L 229.213504 44.807634 
L 229.477823 36.738238 
L 229.742142 34.190007 
L 230.006462 24.988064 
L 230.138621 25.554337 
L 230.270781 26.686885 
L 230.40294 28.81041 
L 230.66726 41.834698 
L 230.799419 44.099792 
L 230.931579 41.976267 
L 231.063738 36.879806 
L 231.195898 36.313532 
L 231.592377 27.677863 
L 231.724537 29.801388 
L 232.121016 46.364886 
L 232.253175 44.24136 
L 232.649654 27.961 
L 233.046133 23.006107 
L 233.178293 22.72297 
L 233.310452 26.262179 
L 233.574772 37.304511 
L 233.839091 41.976267 
L 233.97125 40.135878 
L 234.10341 39.852741 
L 234.367729 44.524497 
L 234.764208 26.403747 
L 234.896368 27.111589 
L 235.292847 33.340597 
L 235.557166 35.605691 
L 235.689326 40.560583 
L 235.821485 39.994309 
L 236.217964 27.961 
L 236.350124 29.65982 
L 236.614443 37.162942 
L 236.746603 36.879806 
L 236.878762 37.870784 
L 237.010922 37.446079 
L 237.143082 38.012353 
L 237.275241 36.738238 
L 237.53956 29.376683 
L 237.67172 25.129633 
L 238.068199 29.942956 
L 238.464678 33.765302 
L 238.596838 36.455101 
L 238.728997 43.39195 
L 238.861157 43.250381 
L 238.993316 40.985288 
L 239.125476 40.985288 
L 239.257636 41.834698 
L 239.521955 33.199029 
L 239.786274 22.298266 
L 240.182753 29.235115 
L 240.314913 30.226093 
L 240.975711 46.081748 
L 241.24003 42.117835 
L 241.37219 43.250381 
L 241.504349 39.569604 
L 241.900829 22.581402 
L 242.032988 23.006107 
L 242.165148 22.72297 
L 242.429467 26.686885 
L 242.693786 34.614712 
L 242.825946 31.924913 
L 243.222425 42.967245 
L 243.354585 42.967245 
L 243.751063 41.268425 
L 243.883223 43.108813 
L 244.015383 40.84372 
L 244.279702 26.545316 
L 244.411861 23.855517 
L 244.676181 30.50923 
L 245.07266 24.704927 
L 245.204819 26.403747 
L 245.601298 45.94018 
L 245.733458 44.524497 
L 245.865617 41.693129 
L 245.997777 42.259403 
L 246.129937 41.409993 
L 246.790735 17.201804 
L 246.922895 17.909647 
L 247.451533 40.277446 
L 247.583693 39.286468 
L 247.848012 43.958223 
L 247.980172 43.533519 
L 248.244491 46.081748 
L 248.376651 44.382929 
L 248.905289 19.042193 
L 249.037449 20.316308 
L 249.301768 30.226093 
L 249.433928 29.65982 
L 249.698247 37.162942 
L 249.830407 37.446079 
L 249.962566 41.409993 
L 250.226885 36.596669 
L 250.623364 41.268425 
L 250.755524 39.286468 
L 251.019843 33.05746 
L 251.152003 31.924913 
L 251.416322 26.686885 
L 251.680641 24.138654 
L 251.812801 25.695906 
L 251.944961 25.695906 
L 252.07712 28.668842 
L 252.341439 40.419015 
L 252.737918 52.027619 
L 252.870078 53.443303 
L 253.134397 39.428036 
L 253.530876 18.192783 
L 253.663036 17.909647 
L 253.795195 15.502984 
L 253.927355 10.406525 
L 254.059515 13.521027 
L 254.455994 45.515475 
L 254.588153 51.886051 
L 254.852473 49.054683 
L 254.984632 50.611936 
L 255.116792 49.620958 
L 255.381111 35.747259 
L 255.64543 26.970021 
L 255.77759 26.970021 
L 255.90975 26.120611 
L 256.306229 17.060236 
L 256.438388 17.909647 
L 256.967027 45.232338 
L 257.099186 44.807634 
L 257.363506 46.506454 
L 257.495665 46.648022 
L 257.759984 42.117835 
L 257.892144 42.400971 
L 258.024304 37.162942 
L 258.420783 11.963775 
L 258.552942 14.370438 
L 259.081581 32.632755 
L 259.21374 30.933935 
L 259.3459 34.75628 
L 259.742379 61.654268 
L 259.874539 58.398196 
L 260.667496 17.62651 
L 260.931816 11.255934 
L 261.328295 30.933935 
L 261.856933 48.063706 
L 262.121252 51.602915 
L 262.649891 28.385705 
L 262.782051 27.677863 
L 262.91421 29.093546 
L 263.04637 27.536294 
L 263.17853 23.572381 
L 263.310689 23.997085 
L 263.442849 24.846495 
L 263.575008 26.545316 
L 263.707168 25.695906 
L 263.839328 27.253158 
L 264.367966 52.169188 
L 264.500126 50.470367 
L 265.028764 36.596669 
L 265.160924 35.180986 
L 265.425243 25.695906 
L 265.557403 25.979043 
L 265.689562 22.439834 
L 265.821722 23.147676 
L 265.953882 25.979043 
L 266.086042 25.837475 
L 266.350361 27.394726 
L 266.48252 30.367661 
L 266.878999 50.611936 
L 267.011159 49.47939 
L 267.143318 44.666065 
L 267.407638 32.915892 
L 267.671957 31.217072 
L 267.804117 32.632755 
L 267.936276 31.217072 
L 268.200596 25.979043 
L 268.332755 25.979043 
L 268.464915 27.819431 
L 268.729234 32.915892 
L 269.125713 39.569604 
L 269.390032 38.861763 
L 269.522192 39.003331 
L 269.654352 35.747259 
L 270.050831 41.551561 
L 270.18299 40.277446 
L 270.31515 40.135878 
L 270.843788 23.997085 
L 270.975948 24.280223 
L 271.108107 24.138654 
L 271.240267 24.846495 
L 271.768906 38.861763 
L 272.165385 51.886051 
L 272.297544 47.639 
L 272.561863 31.35864 
L 272.826183 25.271201 
L 273.090502 17.060236 
L 273.222662 20.316308 
L 273.486981 36.596669 
L 273.619141 39.569604 
L 273.7513 39.994309 
L 273.88346 39.286468 
L 274.147779 45.232338 
L 274.412098 36.455101 
L 274.544258 37.587647 
L 274.676418 37.446079 
L 274.808577 39.144899 
L 274.940737 38.153921 
L 275.205056 29.235115 
L 275.337216 26.120611 
L 275.469375 25.695906 
L 275.733695 32.915892 
L 275.865854 32.349619 
L 276.130174 30.50923 
L 276.394493 30.226093 
L 276.790972 40.277446 
L 276.923131 39.852741 
L 277.055291 38.861763 
L 277.31961 33.199029 
L 277.45177 34.048439 
L 277.58393 36.455101 
L 277.848249 27.536294 
L 278.112568 33.199029 
L 278.244728 32.774324 
L 278.509047 29.235115 
L 278.905526 43.958223 
L 279.037685 42.684109 
L 279.434165 33.199029 
L 279.566324 34.048439 
L 279.698484 37.446079 
L 279.830643 35.322554 
L 280.094963 26.403747 
L 280.359282 24.563359 
L 280.491441 24.563359 
L 280.88792 38.720194 
L 281.02008 38.720194 
L 281.15224 39.994309 
L 281.284399 39.569604 
L 281.416559 40.135878 
L 281.548719 44.807634 
L 282.341676 24.421791 
L 282.473836 18.759056 
L 282.605996 18.617488 
L 282.738155 21.590424 
L 283.134634 41.976267 
L 283.266794 42.400971 
L 283.663273 47.072728 
L 283.795432 45.515475 
L 284.191911 33.482165 
L 284.58839 14.512006 
L 284.72055 16.777099 
L 285.117029 39.994309 
L 285.381348 35.464122 
L 285.513508 36.596669 
L 285.645667 41.268425 
L 285.777827 41.551561 
L 286.174306 33.199029 
L 286.306466 32.915892 
L 286.570785 35.747259 
L 286.702944 35.747259 
L 286.967264 36.738238 
L 287.363742 25.412769 
L 287.760221 37.021374 
L 288.024541 33.623734 
L 288.1567 34.75628 
L 288.42102 40.84372 
L 288.553179 35.888827 
L 288.685339 36.596669 
L 288.817498 38.012353 
L 288.949658 37.446079 
L 289.081818 35.747259 
L 289.478297 25.695906 
L 289.742616 25.979043 
L 290.139095 36.030396 
L 290.403414 29.942956 
L 290.667733 42.259403 
L 290.932053 45.373907 
L 291.064212 42.54254 
L 291.328532 33.765302 
L 291.592851 30.226093 
L 291.85717 26.545316 
L 291.98933 26.686885 
L 292.121489 27.961 
L 292.650128 44.524497 
L 292.782288 42.825677 
L 292.914447 43.250381 
L 293.046607 42.117835 
L 293.839564 19.466899 
L 293.971724 20.599445 
L 294.103884 18.47592 
L 294.236044 20.316308 
L 294.500363 32.066482 
L 294.632522 32.915892 
L 294.896842 44.666065 
L 295.29332 56.840944 
L 295.954119 24.421791 
L 296.350598 15.219847 
L 296.614917 21.448856 
L 296.879236 35.180986 
L 297.143555 46.506454 
L 297.540034 52.452324 
L 297.804354 40.277446 
L 298.068673 27.961 
L 298.332992 18.334351 
L 298.465152 19.183762 
L 298.597311 18.900624 
L 298.729471 19.325331 
L 298.86163 20.741014 
L 299.390269 45.232338 
L 299.786748 54.151144 
L 299.918908 51.036642 
L 300.447546 28.385705 
L 300.579706 24.846495 
L 300.844025 10.264955 
L 300.976185 10.548093 
L 301.240504 23.430812 
L 301.636983 53.018599 
L 301.769143 57.548785 
L 302.165621 44.24136 
L 302.69426 17.201804 
L 302.82642 14.936711 
L 302.958579 19.466899 
L 303.222899 32.20805 
L 303.355058 32.066482 
L 304.015856 49.762526 
L 304.148016 47.355864 
L 304.544495 31.783345 
L 304.676655 28.385705 
L 304.808814 28.527273 
L 304.940974 28.244136 
L 305.205293 19.466899 
L 305.469612 26.686885 
L 305.866091 40.277446 
L 305.998251 41.551561 
L 306.130411 41.268425 
L 306.39473 40.560583 
L 306.659049 42.400971 
L 306.791209 39.852741 
L 307.055528 21.590424 
L 307.187687 24.421791 
L 307.319847 30.792367 
L 307.452007 31.217072 
L 307.716326 27.961 
L 307.848486 26.828453 
L 308.244965 43.250381 
L 308.377124 42.684109 
L 308.509284 42.967245 
L 308.641443 42.684109 
L 308.773603 42.825677 
L 308.905763 41.976267 
L 309.037923 40.135878 
L 309.434401 22.581402 
L 309.566561 24.704927 
L 309.83088 31.35864 
L 309.96304 30.50923 
L 310.227359 26.262179 
L 310.359519 27.677863 
L 310.888157 41.693129 
L 311.020317 43.675087 
L 311.284636 43.250381 
L 311.681115 31.217072 
L 311.813275 31.641777 
L 312.077594 29.65982 
L 312.209754 26.545316 
L 312.341913 26.970021 
L 312.606233 34.614712 
L 312.738392 36.030396 
L 312.870552 34.473144 
L 313.002711 38.578626 
L 313.134871 38.861763 
L 313.267031 40.985288 
L 313.39919 41.126856 
L 313.663509 38.578626 
L 313.927829 29.518251 
L 314.059989 29.093546 
L 314.192148 25.554337 
L 314.324308 26.403747 
L 314.588627 36.596669 
L 314.720787 36.879806 
L 314.852946 36.738238 
L 315.249425 33.623734 
L 315.513745 29.235115 
L 315.645904 28.102568 
L 316.306702 38.153921 
L 316.438862 38.861763 
L 316.571022 36.738238 
L 316.703181 37.446079 
L 316.9675 42.259403 
L 317.23182 30.650798 
L 317.496139 33.340597 
L 317.628299 33.482165 
L 317.760458 34.614712 
L 318.024778 30.367661 
L 318.156937 30.650798 
L 318.421256 26.545316 
L 318.553416 27.677863 
L 318.817735 31.783345 
L 318.949895 29.65982 
L 319.346374 47.780569 
L 319.478534 49.337822 
L 320.271491 25.271201 
L 320.66797 20.033172 
L 320.80013 21.307287 
L 321.196609 44.382929 
L 321.460928 52.169188 
L 321.593088 52.452324 
L 321.857407 40.84372 
L 322.386045 16.352395 
L 322.518205 15.078279 
L 322.650365 17.343372 
L 322.914684 30.367661 
L 323.179003 48.205274 
L 323.311163 50.187231 
L 323.443322 50.187231 
L 323.575482 49.196252 
L 323.707642 46.931158 
L 323.971961 27.677863 
L 324.36844 22.581402 
L 324.5006 19.183762 
L 324.764919 21.87356 
L 325.161398 35.747259 
L 325.425717 56.699376 
L 326.086515 32.491187 
L 326.218675 31.641777 
L 326.350834 29.518251 
L 326.482994 29.801388 
L 326.747313 29.801388 
L 327.011633 30.226093 
L 327.143792 32.774324 
L 327.408112 42.825677 
L 327.80459 37.162942 
L 327.93675 38.437058 
L 328.06891 36.596669 
L 328.333229 30.50923 
L 328.597548 24.563359 
L 328.729708 24.704927 
L 328.861868 24.563359 
L 328.994027 24.988064 
L 329.126187 26.828453 
L 329.522666 41.976267 
L 329.786985 44.524497 
L 329.919144 43.108813 
L 330.183464 34.75628 
L 330.447783 29.518251 
L 330.579943 30.226093 
L 330.844262 35.747259 
L 330.976422 34.897849 
L 331.108581 36.455101 
L 331.240741 39.852741 
L 331.372901 39.003331 
L 331.769379 27.253158 
L 332.033699 32.066482 
L 332.165858 31.783345 
L 332.562337 39.852741 
L 332.694497 40.84372 
L 332.826657 40.419015 
L 332.958816 38.012353 
L 333.487455 21.307287 
L 334.016093 33.05746 
L 334.148253 39.003331 
L 334.412572 40.560583 
L 334.809051 29.65982 
L 334.941211 29.65982 
L 335.469849 46.223317 
L 335.602009 48.063706 
L 336.130647 31.35864 
L 336.527126 24.421791 
L 336.791445 27.961 
L 337.187924 38.295489 
L 337.452244 42.967245 
L 337.848723 32.774324 
L 338.113042 23.997085 
L 338.245201 20.599445 
L 338.377361 20.741014 
L 338.64168 35.039417 
L 338.906 43.108813 
L 339.038159 44.382929 
L 339.302479 48.913115 
L 339.434638 45.94018 
L 339.831117 26.686885 
L 340.095436 17.768079 
L 340.227596 21.448856 
L 340.624075 41.126856 
L 340.756235 41.834698 
L 340.888394 43.39195 
L 341.020554 42.54254 
L 341.152713 45.373907 
L 341.284873 45.09077 
L 341.681352 30.933935 
L 341.813511 27.394726 
L 342.077831 16.352395 
L 342.209991 15.644554 
L 342.606469 37.446079 
L 342.870789 40.135878 
L 343.135108 44.807634 
L 343.267267 41.693129 
L 343.399427 43.39195 
L 343.531587 42.54254 
L 343.663747 38.720194 
L 344.060225 23.147676 
L 344.192385 20.741014 
L 344.456704 30.084525 
L 344.853183 41.834698 
L 345.117502 43.39195 
L 345.249662 43.39195 
L 345.91046 29.801388 
L 346.17478 33.90687 
L 346.703418 21.307287 
L 346.835578 23.147676 
L 346.967737 27.253158 
L 347.232056 45.232338 
L 347.364216 49.337822 
L 347.496376 47.922138 
L 347.760695 41.693129 
L 348.025014 32.491187 
L 348.289334 23.713949 
L 348.421493 23.713949 
L 348.685812 27.536294 
L 349.082291 43.250381 
L 349.214451 43.108813 
L 349.346611 42.400971 
L 349.47877 40.985288 
L 349.74309 36.313532 
L 349.875249 33.765302 
L 350.139568 26.686885 
L 350.271728 27.111589 
L 350.403888 24.846495 
L 350.536047 28.244136 
L 350.668207 34.614712 
L 350.800367 34.048439 
L 350.932526 34.473144 
L 351.064686 39.569604 
L 351.196846 38.437058 
L 351.461165 29.942956 
L 351.593324 30.650798 
L 351.857644 34.75628 
L 352.254123 40.135878 
L 352.386282 40.419015 
L 352.650602 34.331575 
L 352.914921 39.144899 
L 353.17924 35.605691 
L 353.443559 27.253158 
L 353.575719 27.536294 
L 353.840038 29.518251 
L 353.972198 28.102568 
L 354.104358 29.235115 
L 354.236517 28.244136 
L 354.368677 24.988064 
L 354.765156 42.54254 
L 354.765156 42.54254 
" clip-path="url(#p6cdaa76817)" style="fill: none; stroke: #4c72b0; stroke-width: 0.65; stroke-linecap: round"/>
   </g>
   <g id="patch_3">
    <path d="M 35.183338 68.4 
L 35.183338 7.2 
" style="fill: none; stroke: #ffffff; stroke-width: 1.25; stroke-linejoin: miter; stroke-linecap: square"/>
   </g>
   <g id="patch_4">
    <path d="M 369.983338 68.4 
L 369.983338 7.2 
" style="fill: none; stroke: #ffffff; stroke-width: 1.25; stroke-linejoin: miter; stroke-linecap: square"/>
   </g>
   <g id="patch_5">
    <path d="M 35.183338 68.4 
L 369.983338 68.4 
" style="fill: none; stroke: #ffffff; stroke-width: 1.25; stroke-linejoin: miter; stroke-linecap: square"/>
   </g>
   <g id="patch_6">
    <path d="M 35.183338 7.2 
L 369.983338 7.2 
" style="fill: none; stroke: #ffffff; stroke-width: 1.25; stroke-linejoin: miter; stroke-linecap: square"/>
   </g>
  </g>
 </g>
 <defs>
  <clipPath id="p6cdaa76817">
   <rect x="35.183338" y="7.2" width="334.8" height="61.2"/>
  </clipPath>
 </defs>
</svg>
