<?xml version="1.0" encoding="utf-8" standalone="no"?>
<!DOCTYPE svg PUBLIC "-//W3C//DTD SVG 1.1//EN"
  "http://www.w3.org/Graphics/SVG/1.1/DTD/svg11.dtd">
<svg xmlns:xlink="http://www.w3.org/1999/xlink" width="380.852525pt" height="105.212895pt" viewBox="0 0 380.852525 105.212895" xmlns="http://www.w3.org/2000/svg" version="1.1">
 <metadata>
  <rdf:RDF xmlns:dc="http://purl.org/dc/elements/1.1/" xmlns:cc="http://creativecommons.org/ns#" xmlns:rdf="http://www.w3.org/1999/02/22-rdf-syntax-ns#">
   <cc:Work>
    <dc:type rdf:resource="http://purl.org/dc/dcmitype/StillImage"/>
    <dc:date>2024-12-09T20:19:18.487839</dc:date>
    <dc:format>image/svg+xml</dc:format>
    <dc:creator>
     <cc:Agent>
      <dc:title>Matplotlib v3.9.0, https://matplotlib.org/</dc:title>
     </cc:Agent>
    </dc:creator>
   </cc:Work>
  </rdf:RDF>
 </metadata>
 <defs>
  <style type="text/css">*{stroke-linejoin: round; stroke-linecap: butt}</style>
 </defs>
 <g id="figure_1">
  <g id="patch_1">
   <path d="M 0 105.212895 
L 380.852525 105.212895 
L 380.852525 0 
L 0 0 
z
" style="fill: #ffffff"/>
  </g>
  <g id="axes_1">
   <g id="patch_2">
    <path d="M 38.852525 68.4 
L 373.652525 68.4 
L 373.652525 7.2 
L 38.852525 7.2 
z
" style="fill: #eaeaf2"/>
   </g>
   <g id="matplotlib.axis_1">
    <g id="xtick_1">
     <g id="line2d_1">
      <path d="M 53.806388 68.4 
L 53.806388 7.2 
" clip-path="url(#pbf3ef73cd1)" style="fill: none; stroke: #ffffff; stroke-linecap: round"/>
     </g>
     <g id="text_1">
      <!-- 11 11:00 -->
      <g style="fill: #262626" transform="translate(39.099962 88.865805) rotate(-30) scale(0.044 -0.044)">
       <defs>
        <path id="ArialMT-31" d="M 2384 0 
L 1822 0 
L 1822 3584 
Q 1619 3391 1289 3197 
Q 959 3003 697 2906 
L 697 3450 
Q 1169 3672 1522 3987 
Q 1875 4303 2022 4600 
L 2384 4600 
L 2384 0 
z
" transform="scale(0.015625)"/>
        <path id="ArialMT-20" transform="scale(0.015625)"/>
        <path id="ArialMT-3a" d="M 578 2678 
L 578 3319 
L 1219 3319 
L 1219 2678 
L 578 2678 
z
M 578 0 
L 578 641 
L 1219 641 
L 1219 0 
L 578 0 
z
" transform="scale(0.015625)"/>
        <path id="ArialMT-30" d="M 266 2259 
Q 266 3072 433 3567 
Q 600 4063 929 4331 
Q 1259 4600 1759 4600 
Q 2128 4600 2406 4451 
Q 2684 4303 2865 4023 
Q 3047 3744 3150 3342 
Q 3253 2941 3253 2259 
Q 3253 1453 3087 958 
Q 2922 463 2592 192 
Q 2263 -78 1759 -78 
Q 1097 -78 719 397 
Q 266 969 266 2259 
z
M 844 2259 
Q 844 1131 1108 757 
Q 1372 384 1759 384 
Q 2147 384 2411 759 
Q 2675 1134 2675 2259 
Q 2675 3391 2411 3762 
Q 2147 4134 1753 4134 
Q 1366 4134 1134 3806 
Q 844 3388 844 2259 
z
" transform="scale(0.015625)"/>
       </defs>
       <use xlink:href="#ArialMT-31"/>
       <use xlink:href="#ArialMT-31" x="48.240234"/>
       <use xlink:href="#ArialMT-20" x="103.855469"/>
       <use xlink:href="#ArialMT-31" x="131.638672"/>
       <use xlink:href="#ArialMT-31" x="179.878906"/>
       <use xlink:href="#ArialMT-3a" x="235.494141"/>
       <use xlink:href="#ArialMT-30" x="263.277344"/>
       <use xlink:href="#ArialMT-30" x="318.892578"/>
      </g>
     </g>
    </g>
    <g id="xtick_2">
     <g id="line2d_2">
      <path d="M 104.555687 68.4 
L 104.555687 7.2 
" clip-path="url(#pbf3ef73cd1)" style="fill: none; stroke: #ffffff; stroke-linecap: round"/>
     </g>
     <g id="text_2">
      <!-- 11 11:05 -->
      <g style="fill: #262626" transform="translate(89.849261 88.865805) rotate(-30) scale(0.044 -0.044)">
       <defs>
        <path id="ArialMT-35" d="M 266 1200 
L 856 1250 
Q 922 819 1161 601 
Q 1400 384 1738 384 
Q 2144 384 2425 690 
Q 2706 997 2706 1503 
Q 2706 1984 2436 2262 
Q 2166 2541 1728 2541 
Q 1456 2541 1237 2417 
Q 1019 2294 894 2097 
L 366 2166 
L 809 4519 
L 3088 4519 
L 3088 3981 
L 1259 3981 
L 1013 2750 
Q 1425 3038 1878 3038 
Q 2478 3038 2890 2622 
Q 3303 2206 3303 1553 
Q 3303 931 2941 478 
Q 2500 -78 1738 -78 
Q 1113 -78 717 272 
Q 322 622 266 1200 
z
" transform="scale(0.015625)"/>
       </defs>
       <use xlink:href="#ArialMT-31"/>
       <use xlink:href="#ArialMT-31" x="48.240234"/>
       <use xlink:href="#ArialMT-20" x="103.855469"/>
       <use xlink:href="#ArialMT-31" x="131.638672"/>
       <use xlink:href="#ArialMT-31" x="179.878906"/>
       <use xlink:href="#ArialMT-3a" x="235.494141"/>
       <use xlink:href="#ArialMT-30" x="263.277344"/>
       <use xlink:href="#ArialMT-35" x="318.892578"/>
      </g>
     </g>
    </g>
    <g id="xtick_3">
     <g id="line2d_3">
      <path d="M 155.304986 68.4 
L 155.304986 7.2 
" clip-path="url(#pbf3ef73cd1)" style="fill: none; stroke: #ffffff; stroke-linecap: round"/>
     </g>
     <g id="text_3">
      <!-- 11 11:10 -->
      <g style="fill: #262626" transform="translate(140.59856 88.865805) rotate(-30) scale(0.044 -0.044)">
       <use xlink:href="#ArialMT-31"/>
       <use xlink:href="#ArialMT-31" x="48.240234"/>
       <use xlink:href="#ArialMT-20" x="103.855469"/>
       <use xlink:href="#ArialMT-31" x="131.638672"/>
       <use xlink:href="#ArialMT-31" x="179.878906"/>
       <use xlink:href="#ArialMT-3a" x="235.494141"/>
       <use xlink:href="#ArialMT-31" x="263.277344"/>
       <use xlink:href="#ArialMT-30" x="318.892578"/>
      </g>
     </g>
    </g>
    <g id="xtick_4">
     <g id="line2d_4">
      <path d="M 206.054286 68.4 
L 206.054286 7.2 
" clip-path="url(#pbf3ef73cd1)" style="fill: none; stroke: #ffffff; stroke-linecap: round"/>
     </g>
     <g id="text_4">
      <!-- 11 11:15 -->
      <g style="fill: #262626" transform="translate(191.34786 88.865805) rotate(-30) scale(0.044 -0.044)">
       <use xlink:href="#ArialMT-31"/>
       <use xlink:href="#ArialMT-31" x="48.240234"/>
       <use xlink:href="#ArialMT-20" x="103.855469"/>
       <use xlink:href="#ArialMT-31" x="131.638672"/>
       <use xlink:href="#ArialMT-31" x="179.878906"/>
       <use xlink:href="#ArialMT-3a" x="235.494141"/>
       <use xlink:href="#ArialMT-31" x="263.277344"/>
       <use xlink:href="#ArialMT-35" x="318.892578"/>
      </g>
     </g>
    </g>
    <g id="xtick_5">
     <g id="line2d_5">
      <path d="M 256.803585 68.4 
L 256.803585 7.2 
" clip-path="url(#pbf3ef73cd1)" style="fill: none; stroke: #ffffff; stroke-linecap: round"/>
     </g>
     <g id="text_5">
      <!-- 11 11:20 -->
      <g style="fill: #262626" transform="translate(242.097159 88.865805) rotate(-30) scale(0.044 -0.044)">
       <defs>
        <path id="ArialMT-32" d="M 3222 541 
L 3222 0 
L 194 0 
Q 188 203 259 391 
Q 375 700 629 1000 
Q 884 1300 1366 1694 
Q 2113 2306 2375 2664 
Q 2638 3022 2638 3341 
Q 2638 3675 2398 3904 
Q 2159 4134 1775 4134 
Q 1369 4134 1125 3890 
Q 881 3647 878 3216 
L 300 3275 
Q 359 3922 746 4261 
Q 1134 4600 1788 4600 
Q 2447 4600 2831 4234 
Q 3216 3869 3216 3328 
Q 3216 3053 3103 2787 
Q 2991 2522 2730 2228 
Q 2469 1934 1863 1422 
Q 1356 997 1212 845 
Q 1069 694 975 541 
L 3222 541 
z
" transform="scale(0.015625)"/>
       </defs>
       <use xlink:href="#ArialMT-31"/>
       <use xlink:href="#ArialMT-31" x="48.240234"/>
       <use xlink:href="#ArialMT-20" x="103.855469"/>
       <use xlink:href="#ArialMT-31" x="131.638672"/>
       <use xlink:href="#ArialMT-31" x="179.878906"/>
       <use xlink:href="#ArialMT-3a" x="235.494141"/>
       <use xlink:href="#ArialMT-32" x="263.277344"/>
       <use xlink:href="#ArialMT-30" x="318.892578"/>
      </g>
     </g>
    </g>
    <g id="xtick_6">
     <g id="line2d_6">
      <path d="M 307.552884 68.4 
L 307.552884 7.2 
" clip-path="url(#pbf3ef73cd1)" style="fill: none; stroke: #ffffff; stroke-linecap: round"/>
     </g>
     <g id="text_6">
      <!-- 11 11:25 -->
      <g style="fill: #262626" transform="translate(292.846458 88.865805) rotate(-30) scale(0.044 -0.044)">
       <use xlink:href="#ArialMT-31"/>
       <use xlink:href="#ArialMT-31" x="48.240234"/>
       <use xlink:href="#ArialMT-20" x="103.855469"/>
       <use xlink:href="#ArialMT-31" x="131.638672"/>
       <use xlink:href="#ArialMT-31" x="179.878906"/>
       <use xlink:href="#ArialMT-3a" x="235.494141"/>
       <use xlink:href="#ArialMT-32" x="263.277344"/>
       <use xlink:href="#ArialMT-35" x="318.892578"/>
      </g>
     </g>
    </g>
    <g id="xtick_7">
     <g id="line2d_7">
      <path d="M 358.302184 68.4 
L 358.302184 7.2 
" clip-path="url(#pbf3ef73cd1)" style="fill: none; stroke: #ffffff; stroke-linecap: round"/>
     </g>
     <g id="text_7">
      <!-- 11 11:30 -->
      <g style="fill: #262626" transform="translate(343.595758 88.865805) rotate(-30) scale(0.044 -0.044)">
       <defs>
        <path id="ArialMT-33" d="M 269 1209 
L 831 1284 
Q 928 806 1161 595 
Q 1394 384 1728 384 
Q 2125 384 2398 659 
Q 2672 934 2672 1341 
Q 2672 1728 2419 1979 
Q 2166 2231 1775 2231 
Q 1616 2231 1378 2169 
L 1441 2663 
Q 1497 2656 1531 2656 
Q 1891 2656 2178 2843 
Q 2466 3031 2466 3422 
Q 2466 3731 2256 3934 
Q 2047 4138 1716 4138 
Q 1388 4138 1169 3931 
Q 950 3725 888 3313 
L 325 3413 
Q 428 3978 793 4289 
Q 1159 4600 1703 4600 
Q 2078 4600 2393 4439 
Q 2709 4278 2876 4000 
Q 3044 3722 3044 3409 
Q 3044 3113 2884 2869 
Q 2725 2625 2413 2481 
Q 2819 2388 3044 2092 
Q 3269 1797 3269 1353 
Q 3269 753 2831 336 
Q 2394 -81 1725 -81 
Q 1122 -81 723 278 
Q 325 638 269 1209 
z
" transform="scale(0.015625)"/>
       </defs>
       <use xlink:href="#ArialMT-31"/>
       <use xlink:href="#ArialMT-31" x="48.240234"/>
       <use xlink:href="#ArialMT-20" x="103.855469"/>
       <use xlink:href="#ArialMT-31" x="131.638672"/>
       <use xlink:href="#ArialMT-31" x="179.878906"/>
       <use xlink:href="#ArialMT-3a" x="235.494141"/>
       <use xlink:href="#ArialMT-33" x="263.277344"/>
       <use xlink:href="#ArialMT-30" x="318.892578"/>
      </g>
     </g>
    </g>
    <g id="text_8">
     <!-- Time -->
     <g style="fill: #262626" transform="translate(201.00965 97.058895) scale(0.048 -0.048)">
      <defs>
       <path id="ArialMT-54" d="M 1659 0 
L 1659 4041 
L 150 4041 
L 150 4581 
L 3781 4581 
L 3781 4041 
L 2266 4041 
L 2266 0 
L 1659 0 
z
" transform="scale(0.015625)"/>
       <path id="ArialMT-69" d="M 425 3934 
L 425 4581 
L 988 4581 
L 988 3934 
L 425 3934 
z
M 425 0 
L 425 3319 
L 988 3319 
L 988 0 
L 425 0 
z
" transform="scale(0.015625)"/>
       <path id="ArialMT-6d" d="M 422 0 
L 422 3319 
L 925 3319 
L 925 2853 
Q 1081 3097 1340 3245 
Q 1600 3394 1931 3394 
Q 2300 3394 2536 3241 
Q 2772 3088 2869 2813 
Q 3263 3394 3894 3394 
Q 4388 3394 4653 3120 
Q 4919 2847 4919 2278 
L 4919 0 
L 4359 0 
L 4359 2091 
Q 4359 2428 4304 2576 
Q 4250 2725 4106 2815 
Q 3963 2906 3769 2906 
Q 3419 2906 3187 2673 
Q 2956 2441 2956 1928 
L 2956 0 
L 2394 0 
L 2394 2156 
Q 2394 2531 2256 2718 
Q 2119 2906 1806 2906 
Q 1569 2906 1367 2781 
Q 1166 2656 1075 2415 
Q 984 2175 984 1722 
L 984 0 
L 422 0 
z
" transform="scale(0.015625)"/>
       <path id="ArialMT-65" d="M 2694 1069 
L 3275 997 
Q 3138 488 2766 206 
Q 2394 -75 1816 -75 
Q 1088 -75 661 373 
Q 234 822 234 1631 
Q 234 2469 665 2931 
Q 1097 3394 1784 3394 
Q 2450 3394 2872 2941 
Q 3294 2488 3294 1666 
Q 3294 1616 3291 1516 
L 816 1516 
Q 847 969 1125 678 
Q 1403 388 1819 388 
Q 2128 388 2347 550 
Q 2566 713 2694 1069 
z
M 847 1978 
L 2700 1978 
Q 2663 2397 2488 2606 
Q 2219 2931 1791 2931 
Q 1403 2931 1139 2672 
Q 875 2413 847 1978 
z
" transform="scale(0.015625)"/>
      </defs>
      <use xlink:href="#ArialMT-54"/>
      <use xlink:href="#ArialMT-69" x="57.333984"/>
      <use xlink:href="#ArialMT-6d" x="79.550781"/>
      <use xlink:href="#ArialMT-65" x="162.851562"/>
     </g>
    </g>
   </g>
   <g id="matplotlib.axis_2">
    <g id="ytick_1">
     <g id="line2d_8">
      <path d="M 38.852525 67.412903 
L 373.652525 67.412903 
" clip-path="url(#pbf3ef73cd1)" style="fill: none; stroke: #ffffff; stroke-linecap: round"/>
     </g>
     <g id="text_9">
      <!-- −1.0 -->
      <g style="fill: #262626" transform="translate(20.66665 68.987622) scale(0.044 -0.044)">
       <defs>
        <path id="ArialMT-2212" d="M 3381 1997 
L 356 1997 
L 356 2522 
L 3381 2522 
L 3381 1997 
z
" transform="scale(0.015625)"/>
        <path id="ArialMT-2e" d="M 581 0 
L 581 641 
L 1222 641 
L 1222 0 
L 581 0 
z
" transform="scale(0.015625)"/>
       </defs>
       <use xlink:href="#ArialMT-2212"/>
       <use xlink:href="#ArialMT-31" x="58.398438"/>
       <use xlink:href="#ArialMT-2e" x="114.013672"/>
       <use xlink:href="#ArialMT-30" x="141.796875"/>
      </g>
     </g>
    </g>
    <g id="ytick_2">
     <g id="line2d_9">
      <path d="M 38.852525 54.593465 
L 373.652525 54.593465 
" clip-path="url(#pbf3ef73cd1)" style="fill: none; stroke: #ffffff; stroke-linecap: round"/>
     </g>
     <g id="text_10">
      <!-- −0.5 -->
      <g style="fill: #262626" transform="translate(20.66665 56.168183) scale(0.044 -0.044)">
       <use xlink:href="#ArialMT-2212"/>
       <use xlink:href="#ArialMT-30" x="58.398438"/>
       <use xlink:href="#ArialMT-2e" x="114.013672"/>
       <use xlink:href="#ArialMT-35" x="141.796875"/>
      </g>
     </g>
    </g>
    <g id="ytick_3">
     <g id="line2d_10">
      <path d="M 38.852525 41.774026 
L 373.652525 41.774026 
" clip-path="url(#pbf3ef73cd1)" style="fill: none; stroke: #ffffff; stroke-linecap: round"/>
     </g>
     <g id="text_11">
      <!-- 0.0 -->
      <g style="fill: #262626" transform="translate(23.236525 43.348745) scale(0.044 -0.044)">
       <use xlink:href="#ArialMT-30"/>
       <use xlink:href="#ArialMT-2e" x="55.615234"/>
       <use xlink:href="#ArialMT-30" x="83.398438"/>
      </g>
     </g>
    </g>
    <g id="ytick_4">
     <g id="line2d_11">
      <path d="M 38.852525 28.954587 
L 373.652525 28.954587 
" clip-path="url(#pbf3ef73cd1)" style="fill: none; stroke: #ffffff; stroke-linecap: round"/>
     </g>
     <g id="text_12">
      <!-- 0.5 -->
      <g style="fill: #262626" transform="translate(23.236525 30.529306) scale(0.044 -0.044)">
       <use xlink:href="#ArialMT-30"/>
       <use xlink:href="#ArialMT-2e" x="55.615234"/>
       <use xlink:href="#ArialMT-35" x="83.398438"/>
      </g>
     </g>
    </g>
    <g id="ytick_5">
     <g id="line2d_12">
      <path d="M 38.852525 16.135149 
L 373.652525 16.135149 
" clip-path="url(#pbf3ef73cd1)" style="fill: none; stroke: #ffffff; stroke-linecap: round"/>
     </g>
     <g id="text_13">
      <!-- 1.0 -->
      <g style="fill: #262626" transform="translate(23.236525 17.709868) scale(0.044 -0.044)">
       <use xlink:href="#ArialMT-31"/>
       <use xlink:href="#ArialMT-2e" x="55.615234"/>
       <use xlink:href="#ArialMT-30" x="83.398438"/>
      </g>
     </g>
    </g>
    <g id="text_14">
     <!-- East/West -->
     <g style="fill: #262626" transform="translate(10.63575 48.69375) rotate(-90) scale(0.048 -0.048)">
      <defs>
       <path id="ArialMT-45" d="M 506 0 
L 506 4581 
L 3819 4581 
L 3819 4041 
L 1113 4041 
L 1113 2638 
L 3647 2638 
L 3647 2100 
L 1113 2100 
L 1113 541 
L 3925 541 
L 3925 0 
L 506 0 
z
" transform="scale(0.015625)"/>
       <path id="ArialMT-61" d="M 2588 409 
Q 2275 144 1986 34 
Q 1697 -75 1366 -75 
Q 819 -75 525 192 
Q 231 459 231 875 
Q 231 1119 342 1320 
Q 453 1522 633 1644 
Q 813 1766 1038 1828 
Q 1203 1872 1538 1913 
Q 2219 1994 2541 2106 
Q 2544 2222 2544 2253 
Q 2544 2597 2384 2738 
Q 2169 2928 1744 2928 
Q 1347 2928 1158 2789 
Q 969 2650 878 2297 
L 328 2372 
Q 403 2725 575 2942 
Q 747 3159 1072 3276 
Q 1397 3394 1825 3394 
Q 2250 3394 2515 3294 
Q 2781 3194 2906 3042 
Q 3031 2891 3081 2659 
Q 3109 2516 3109 2141 
L 3109 1391 
Q 3109 606 3145 398 
Q 3181 191 3288 0 
L 2700 0 
Q 2613 175 2588 409 
z
M 2541 1666 
Q 2234 1541 1622 1453 
Q 1275 1403 1131 1340 
Q 988 1278 909 1158 
Q 831 1038 831 891 
Q 831 666 1001 516 
Q 1172 366 1500 366 
Q 1825 366 2078 508 
Q 2331 650 2450 897 
Q 2541 1088 2541 1459 
L 2541 1666 
z
" transform="scale(0.015625)"/>
       <path id="ArialMT-73" d="M 197 991 
L 753 1078 
Q 800 744 1014 566 
Q 1228 388 1613 388 
Q 2000 388 2187 545 
Q 2375 703 2375 916 
Q 2375 1106 2209 1216 
Q 2094 1291 1634 1406 
Q 1016 1563 777 1677 
Q 538 1791 414 1992 
Q 291 2194 291 2438 
Q 291 2659 392 2848 
Q 494 3038 669 3163 
Q 800 3259 1026 3326 
Q 1253 3394 1513 3394 
Q 1903 3394 2198 3281 
Q 2494 3169 2634 2976 
Q 2775 2784 2828 2463 
L 2278 2388 
Q 2241 2644 2061 2787 
Q 1881 2931 1553 2931 
Q 1166 2931 1000 2803 
Q 834 2675 834 2503 
Q 834 2394 903 2306 
Q 972 2216 1119 2156 
Q 1203 2125 1616 2013 
Q 2213 1853 2448 1751 
Q 2684 1650 2818 1456 
Q 2953 1263 2953 975 
Q 2953 694 2789 445 
Q 2625 197 2315 61 
Q 2006 -75 1616 -75 
Q 969 -75 630 194 
Q 291 463 197 991 
z
" transform="scale(0.015625)"/>
       <path id="ArialMT-74" d="M 1650 503 
L 1731 6 
Q 1494 -44 1306 -44 
Q 1000 -44 831 53 
Q 663 150 594 308 
Q 525 466 525 972 
L 525 2881 
L 113 2881 
L 113 3319 
L 525 3319 
L 525 4141 
L 1084 4478 
L 1084 3319 
L 1650 3319 
L 1650 2881 
L 1084 2881 
L 1084 941 
Q 1084 700 1114 631 
Q 1144 563 1211 522 
Q 1278 481 1403 481 
Q 1497 481 1650 503 
z
" transform="scale(0.015625)"/>
       <path id="ArialMT-2f" d="M 0 -78 
L 1328 4659 
L 1778 4659 
L 453 -78 
L 0 -78 
z
" transform="scale(0.015625)"/>
       <path id="ArialMT-57" d="M 1294 0 
L 78 4581 
L 700 4581 
L 1397 1578 
Q 1509 1106 1591 641 
Q 1766 1375 1797 1488 
L 2669 4581 
L 3400 4581 
L 4056 2263 
Q 4303 1400 4413 641 
Q 4500 1075 4641 1638 
L 5359 4581 
L 5969 4581 
L 4713 0 
L 4128 0 
L 3163 3491 
Q 3041 3928 3019 4028 
Q 2947 3713 2884 3491 
L 1913 0 
L 1294 0 
z
" transform="scale(0.015625)"/>
      </defs>
      <use xlink:href="#ArialMT-45"/>
      <use xlink:href="#ArialMT-61" x="66.699219"/>
      <use xlink:href="#ArialMT-73" x="122.314453"/>
      <use xlink:href="#ArialMT-74" x="172.314453"/>
      <use xlink:href="#ArialMT-2f" x="200.097656"/>
      <use xlink:href="#ArialMT-57" x="227.880859"/>
      <use xlink:href="#ArialMT-65" x="320.515625"/>
      <use xlink:href="#ArialMT-73" x="376.130859"/>
      <use xlink:href="#ArialMT-74" x="426.130859"/>
     </g>
     <!-- Displacement [m] -->
     <g style="fill: #262626" transform="translate(15.71265 56.338125) rotate(-90) scale(0.048 -0.048)">
      <defs>
       <path id="ArialMT-44" d="M 494 0 
L 494 4581 
L 2072 4581 
Q 2606 4581 2888 4516 
Q 3281 4425 3559 4188 
Q 3922 3881 4101 3404 
Q 4281 2928 4281 2316 
Q 4281 1794 4159 1391 
Q 4038 988 3847 723 
Q 3656 459 3429 307 
Q 3203 156 2883 78 
Q 2563 0 2147 0 
L 494 0 
z
M 1100 541 
L 2078 541 
Q 2531 541 2789 625 
Q 3047 709 3200 863 
Q 3416 1078 3536 1442 
Q 3656 1806 3656 2325 
Q 3656 3044 3420 3430 
Q 3184 3816 2847 3947 
Q 2603 4041 2063 4041 
L 1100 4041 
L 1100 541 
z
" transform="scale(0.015625)"/>
       <path id="ArialMT-70" d="M 422 -1272 
L 422 3319 
L 934 3319 
L 934 2888 
Q 1116 3141 1344 3267 
Q 1572 3394 1897 3394 
Q 2322 3394 2647 3175 
Q 2972 2956 3137 2557 
Q 3303 2159 3303 1684 
Q 3303 1175 3120 767 
Q 2938 359 2589 142 
Q 2241 -75 1856 -75 
Q 1575 -75 1351 44 
Q 1128 163 984 344 
L 984 -1272 
L 422 -1272 
z
M 931 1641 
Q 931 1000 1190 694 
Q 1450 388 1819 388 
Q 2194 388 2461 705 
Q 2728 1022 2728 1688 
Q 2728 2322 2467 2637 
Q 2206 2953 1844 2953 
Q 1484 2953 1207 2617 
Q 931 2281 931 1641 
z
" transform="scale(0.015625)"/>
       <path id="ArialMT-6c" d="M 409 0 
L 409 4581 
L 972 4581 
L 972 0 
L 409 0 
z
" transform="scale(0.015625)"/>
       <path id="ArialMT-63" d="M 2588 1216 
L 3141 1144 
Q 3050 572 2676 248 
Q 2303 -75 1759 -75 
Q 1078 -75 664 370 
Q 250 816 250 1647 
Q 250 2184 428 2587 
Q 606 2991 970 3192 
Q 1334 3394 1763 3394 
Q 2303 3394 2647 3120 
Q 2991 2847 3088 2344 
L 2541 2259 
Q 2463 2594 2264 2762 
Q 2066 2931 1784 2931 
Q 1359 2931 1093 2626 
Q 828 2322 828 1663 
Q 828 994 1084 691 
Q 1341 388 1753 388 
Q 2084 388 2306 591 
Q 2528 794 2588 1216 
z
" transform="scale(0.015625)"/>
       <path id="ArialMT-6e" d="M 422 0 
L 422 3319 
L 928 3319 
L 928 2847 
Q 1294 3394 1984 3394 
Q 2284 3394 2536 3286 
Q 2788 3178 2913 3003 
Q 3038 2828 3088 2588 
Q 3119 2431 3119 2041 
L 3119 0 
L 2556 0 
L 2556 2019 
Q 2556 2363 2490 2533 
Q 2425 2703 2258 2804 
Q 2091 2906 1866 2906 
Q 1506 2906 1245 2678 
Q 984 2450 984 1813 
L 984 0 
L 422 0 
z
" transform="scale(0.015625)"/>
       <path id="ArialMT-5b" d="M 434 -1272 
L 434 4581 
L 1675 4581 
L 1675 4116 
L 997 4116 
L 997 -806 
L 1675 -806 
L 1675 -1272 
L 434 -1272 
z
" transform="scale(0.015625)"/>
       <path id="ArialMT-5d" d="M 1363 -1272 
L 122 -1272 
L 122 -806 
L 800 -806 
L 800 4116 
L 122 4116 
L 122 4581 
L 1363 4581 
L 1363 -1272 
z
" transform="scale(0.015625)"/>
      </defs>
      <use xlink:href="#ArialMT-44"/>
      <use xlink:href="#ArialMT-69" x="72.216797"/>
      <use xlink:href="#ArialMT-73" x="94.433594"/>
      <use xlink:href="#ArialMT-70" x="144.433594"/>
      <use xlink:href="#ArialMT-6c" x="200.048828"/>
      <use xlink:href="#ArialMT-61" x="222.265625"/>
      <use xlink:href="#ArialMT-63" x="277.880859"/>
      <use xlink:href="#ArialMT-65" x="327.880859"/>
      <use xlink:href="#ArialMT-6d" x="383.496094"/>
      <use xlink:href="#ArialMT-65" x="466.796875"/>
      <use xlink:href="#ArialMT-6e" x="522.412109"/>
      <use xlink:href="#ArialMT-74" x="578.027344"/>
      <use xlink:href="#ArialMT-20" x="605.810547"/>
      <use xlink:href="#ArialMT-5b" x="633.59375"/>
      <use xlink:href="#ArialMT-6d" x="661.376953"/>
      <use xlink:href="#ArialMT-5d" x="744.677734"/>
     </g>
    </g>
   </g>
   <g id="line2d_13">
    <path d="M 54.070707 36.133473 
L 54.335026 46.132635 
L 54.599345 51.004022 
L 54.863664 44.594302 
L 54.995824 38.184583 
L 55.260144 46.645413 
L 55.524463 38.697361 
L 55.656622 31.518475 
L 56.185261 41.774026 
L 56.44958 39.979305 
L 56.713899 45.10708 
L 56.846059 46.389024 
L 57.110378 57.157353 
L 57.242538 54.593465 
L 57.639017 33.569585 
L 57.771176 30.749309 
L 58.035496 42.543192 
L 58.167655 42.030415 
L 58.299815 43.05597 
L 58.564134 34.338752 
L 58.960613 44.850691 
L 59.357092 32.031253 
L 59.489252 34.338752 
L 59.753571 47.414579 
L 60.15005 41.517637 
L 60.414369 56.388186 
L 60.810848 27.672643 
L 60.943008 28.698199 
L 61.339487 51.773188 
L 61.471646 51.516799 
L 61.735966 59.72124 
L 62.132444 23.057645 
L 62.264604 26.647089 
L 62.528923 49.978466 
L 62.661083 48.952912 
L 62.925402 37.928194 
L 63.321881 33.569585 
L 63.5862 38.184583 
L 63.982679 51.516799 
L 64.379158 32.800419 
L 64.643478 52.285965 
L 64.775637 49.465689 
L 65.039956 35.877084 
L 65.172116 36.902639 
L 65.436435 47.670968 
L 65.700754 36.133473 
L 66.229393 43.825136 
L 66.493712 51.260411 
L 66.625872 44.594302 
L 66.890191 51.004022 
L 67.15451 34.59514 
L 67.28667 34.59514 
L 67.41883 35.877084 
L 67.683149 34.082363 
L 67.947468 46.645413 
L 68.211788 37.415417 
L 68.343947 38.95375 
L 68.476107 44.081525 
L 68.608267 44.337914 
L 68.740426 44.850691 
L 69.004745 27.672643 
L 69.136905 31.005698 
L 69.665544 59.464851 
L 69.797703 56.131797 
L 70.062023 42.799581 
L 70.326342 49.465689 
L 70.458501 50.234856 
L 70.722821 38.697361 
L 70.85498 37.671806 
L 70.98714 26.390699 
L 71.119299 27.159866 
L 71.383619 39.722916 
L 71.515778 40.492082 
L 71.647938 38.440972 
L 71.780098 40.748471 
L 72.044417 53.824298 
L 72.308736 38.95375 
L 72.440896 30.49292 
L 72.573055 31.262086 
L 72.837375 49.2093 
L 72.969534 51.773188 
L 73.101694 47.670968 
L 73.366013 37.159028 
L 73.498173 38.697361 
L 73.630333 37.415417 
L 73.762492 37.928194 
L 73.894652 36.902639 
L 74.026811 40.748471 
L 74.158971 41.00486 
L 74.291131 39.466527 
L 74.55545 53.31152 
L 74.687609 51.260411 
L 74.819769 51.260411 
L 74.951929 54.337076 
L 75.084089 51.773188 
L 75.480567 24.083201 
L 75.877046 44.081525 
L 76.141365 42.543192 
L 76.273525 43.825136 
L 76.405685 42.286804 
L 76.670004 36.389862 
L 76.802164 40.235693 
L 76.934323 47.670968 
L 77.066483 45.876246 
L 77.198643 39.979305 
L 77.330802 39.466527 
L 77.462962 36.64625 
L 77.727281 39.722916 
L 77.859441 38.95375 
L 78.388079 52.542354 
L 78.520239 46.389024 
L 78.652399 45.619858 
L 78.784558 43.312359 
L 78.916718 38.440972 
L 79.048877 41.261248 
L 79.181037 37.159028 
L 79.313197 38.184583 
L 79.577516 45.10708 
L 79.709676 44.081525 
L 80.106155 33.569585 
L 80.238314 33.056808 
L 80.502633 39.722916 
L 80.634793 46.132635 
L 80.899112 36.64625 
L 81.163432 50.234856 
L 81.295591 50.234856 
L 81.427751 51.004022 
L 81.559911 48.696523 
L 81.82423 41.517637 
L 82.220709 35.107918 
L 82.352868 42.030415 
L 82.485028 42.286804 
L 82.617188 39.466527 
L 82.881507 48.183745 
L 83.145826 36.902639 
L 83.277986 36.133473 
L 83.410145 37.415417 
L 83.542305 40.492082 
L 83.674465 40.235693 
L 83.806624 38.95375 
L 83.938784 36.389862 
L 84.599582 44.081525 
L 84.731742 44.081525 
L 84.863901 46.645413 
L 84.996061 57.413741 
L 85.128221 58.695686 
L 85.39254 34.851529 
L 85.5247 36.902639 
L 85.789019 49.465689 
L 85.921178 52.285965 
L 86.317657 24.083201 
L 86.449817 26.903478 
L 86.581977 37.415417 
L 86.714136 38.440972 
L 86.978456 53.824298 
L 87.242775 27.929032 
L 87.374934 28.185422 
L 87.639254 46.901801 
L 87.771413 49.465689 
L 88.035733 46.132635 
L 88.300052 36.64625 
L 88.564371 42.286804 
L 88.696531 42.030415 
L 88.82869 43.825136 
L 88.96085 48.440134 
L 89.225169 43.312359 
L 89.357329 43.05597 
L 89.489488 43.825136 
L 89.621648 40.748471 
L 89.753808 43.312359 
L 89.885968 55.875409 
L 90.018127 52.029577 
L 90.282446 36.389862 
L 90.546766 38.440972 
L 90.811085 24.339589 
L 90.943244 29.210976 
L 91.207564 49.465689 
L 91.339724 49.465689 
L 91.471883 45.876246 
L 91.736202 50.747633 
L 91.868362 47.414579 
L 92.132681 38.184583 
L 92.264841 39.210138 
L 92.397 37.415417 
L 92.66132 28.698199 
L 92.793479 30.236532 
L 93.057799 42.286804 
L 93.189958 45.876246 
L 93.322118 45.10708 
L 93.454278 43.312359 
L 93.586437 51.260411 
L 93.718597 51.004022 
L 93.982916 45.10708 
L 94.247235 50.747633 
L 94.511555 59.977628 
L 94.908034 9.981818 
L 95.436672 45.619858 
L 95.568832 44.337914 
L 95.700991 47.927356 
L 95.965311 62.797905 
L 96.09747 56.900963 
L 96.36179 33.825974 
L 96.493949 27.672643 
L 96.626109 27.416255 
L 97.022588 33.569585 
L 97.154747 36.389862 
L 97.286907 43.312359 
L 97.815546 46.901801 
L 97.947705 46.645413 
L 98.344184 40.492082 
L 98.476344 41.261248 
L 99.004982 60.234018 
L 99.401461 45.10708 
L 99.66578 26.134311 
L 99.79794 25.621534 
L 99.9301 33.825974 
L 100.062259 30.749309 
L 100.194419 32.800419 
L 100.458738 46.132635 
L 100.855217 32.800419 
L 100.987377 35.364307 
L 101.383856 47.15819 
L 101.516015 47.927356 
L 101.648175 53.824298 
L 101.780335 52.285965 
L 102.044654 34.851529 
L 102.176813 33.569585 
L 102.308973 40.492082 
L 102.441133 39.722916 
L 102.573292 38.184583 
L 102.705452 47.670968 
L 102.837611 47.927356 
L 102.969771 41.261248 
L 103.101931 43.05597 
L 103.36625 51.260411 
L 103.49841 57.413741 
L 103.762729 44.337914 
L 104.159208 26.647089 
L 104.423527 37.671806 
L 104.687847 34.59514 
L 104.952166 38.440972 
L 105.216485 48.440134 
L 105.348645 47.927356 
L 105.612964 40.235693 
L 105.877283 45.363469 
L 106.141603 50.747633 
L 106.538081 28.185422 
L 106.670241 33.313196 
L 106.93456 51.004022 
L 107.06672 51.004022 
L 107.198879 47.414579 
L 107.463199 30.49292 
L 107.727518 46.645413 
L 107.859678 47.927356 
L 107.991837 38.95375 
L 108.123997 40.492082 
L 108.256157 47.414579 
L 108.388316 46.132635 
L 108.520476 46.132635 
L 108.652635 42.799581 
L 108.916955 34.338752 
L 109.181274 39.722916 
L 109.445593 48.696523 
L 109.709913 31.005698 
L 110.106391 45.619858 
L 110.370711 39.466527 
L 110.63503 43.312359 
L 110.899349 35.364307 
L 111.692307 50.491244 
L 111.824467 48.440134 
L 111.956626 43.568747 
L 112.088786 45.363469 
L 112.353105 38.95375 
L 112.485265 38.697361 
L 112.617425 34.59514 
L 112.881744 42.543192 
L 113.146063 35.877084 
L 113.278223 42.286804 
L 113.410382 56.388186 
L 113.542542 57.67013 
L 113.939021 33.056808 
L 114.20334 39.466527 
L 114.467659 35.364307 
L 114.599819 30.749309 
L 114.996298 42.543192 
L 115.128458 48.183745 
L 115.260617 47.414579 
L 115.392777 45.619858 
L 115.524936 41.774026 
L 115.657096 41.261248 
L 115.789256 42.799581 
L 115.921415 45.876246 
L 116.317894 35.877084 
L 116.450054 37.415417 
L 116.846533 57.413741 
L 117.243012 38.440972 
L 117.375171 34.59514 
L 117.507331 34.338752 
L 117.77165 51.773188 
L 117.90381 52.029577 
L 118.432448 31.774864 
L 118.564608 29.467365 
L 118.828927 39.722916 
L 119.093246 36.133473 
L 119.225406 34.851529 
L 119.754045 48.440134 
L 120.018364 43.312359 
L 120.150524 44.337914 
L 120.282683 47.927356 
L 120.414843 47.670968 
L 120.547002 43.312359 
L 120.811322 49.978466 
L 121.075641 39.210138 
L 121.207801 34.082363 
L 121.33996 34.082363 
L 121.47212 38.95375 
L 121.60428 39.210138 
L 121.736439 45.10708 
L 122.000758 45.10708 
L 122.132918 47.670968 
L 122.265078 42.286804 
L 122.397237 42.543192 
L 122.661557 30.749309 
L 122.793716 33.313196 
L 123.058036 49.722078 
L 123.190195 45.876246 
L 123.454514 31.774864 
L 123.718834 39.722916 
L 123.850993 37.928194 
L 123.983153 43.312359 
L 124.247472 60.490407 
L 124.511792 38.95375 
L 124.643951 38.697361 
L 124.776111 40.492082 
L 125.17259 32.031253 
L 125.304749 34.59514 
L 125.569069 46.901801 
L 125.701228 46.389024 
L 125.833388 44.850691 
L 126.097707 36.902639 
L 126.362026 45.363469 
L 126.494186 43.312359 
L 126.758505 34.851529 
L 127.022824 47.927356 
L 127.154984 46.389024 
L 127.287144 42.543192 
L 127.551463 51.004022 
L 127.683623 50.234856 
L 127.947942 35.620696 
L 128.080102 39.466527 
L 128.212261 38.440972 
L 128.47658 42.030415 
L 128.7409 32.54403 
L 128.87306 36.64625 
L 129.005219 44.594302 
L 129.137379 41.00486 
L 129.269538 42.543192 
L 129.401698 41.774026 
L 129.533858 40.235693 
L 129.798177 48.696523 
L 130.062496 34.338752 
L 130.326815 36.389862 
L 130.458975 43.05597 
L 130.723294 65.361793 
L 130.855454 57.67013 
L 131.251933 19.468203 
L 131.516252 27.672643 
L 131.780571 42.543192 
L 132.044891 50.491244 
L 132.17705 51.260411 
L 132.30921 46.389024 
L 132.441369 46.645413 
L 132.573529 48.440134 
L 132.705689 45.363469 
L 132.837848 49.722078 
L 132.970008 58.182907 
L 133.102168 52.285965 
L 133.366487 35.364307 
L 133.630806 41.00486 
L 133.895125 27.416255 
L 134.027285 28.954587 
L 134.291604 39.722916 
L 134.555924 43.312359 
L 134.688083 45.363469 
L 134.820243 51.004022 
L 134.952403 47.927356 
L 135.084562 38.697361 
L 135.216722 38.95375 
L 135.348881 38.440972 
L 135.481041 36.133473 
L 135.613201 36.133473 
L 135.87752 28.954587 
L 136.00968 34.851529 
L 136.141839 46.645413 
L 136.273999 48.440134 
L 136.538318 55.875409 
L 136.670478 53.31152 
L 136.934797 42.543192 
L 137.199116 48.440134 
L 137.331276 47.15819 
L 137.595595 39.722916 
L 137.727755 42.286804 
L 137.859915 40.235693 
L 137.992074 39.979305 
L 138.124234 41.517637 
L 138.388553 33.825974 
L 138.520713 32.800419 
L 138.652872 33.569585 
L 138.917191 36.389862 
L 139.181511 54.337076 
L 139.313671 51.516799 
L 139.57799 32.54403 
L 139.842309 38.95375 
L 139.974469 41.774026 
L 140.106628 47.670968 
L 140.238788 45.876246 
L 140.503107 36.902639 
L 140.635267 38.184583 
L 140.899586 35.107918 
L 141.296065 54.849853 
L 141.560384 45.876246 
L 141.692544 49.465689 
L 142.221182 38.440972 
L 142.485502 55.106242 
L 142.617661 49.722078 
L 142.881981 25.365145 
L 143.1463 32.54403 
L 143.278459 31.518475 
L 143.674938 48.696523 
L 143.807098 46.645413 
L 144.203577 34.851529 
L 144.467896 44.337914 
L 144.732216 53.31152 
L 145.260854 32.800419 
L 145.393014 42.543192 
L 145.657333 43.568747 
L 145.921652 33.313196 
L 146.318131 54.337076 
L 146.71461 36.64625 
L 146.84677 37.159028 
L 147.111089 47.15819 
L 147.243248 44.850691 
L 147.375408 39.210138 
L 147.507568 39.979305 
L 147.639727 38.184583 
L 147.771887 31.005698 
L 147.904047 30.49292 
L 148.300526 51.516799 
L 148.432685 56.644574 
L 148.564845 52.029577 
L 148.697004 53.31152 
L 148.829164 45.363469 
L 149.093483 20.750147 
L 149.357803 32.031253 
L 149.489962 39.979305 
L 149.622122 39.210138 
L 149.886441 51.260411 
L 150.018601 45.10708 
L 150.15076 46.901801 
L 150.28292 52.029577 
L 150.41508 52.285965 
L 150.679399 39.466527 
L 150.943718 43.825136 
L 151.075878 43.312359 
L 151.208038 38.95375 
L 151.340197 30.236532 
L 151.472357 32.54403 
L 151.736676 46.132635 
L 152.000995 40.492082 
L 152.265314 48.440134 
L 152.397474 44.337914 
L 152.529634 45.10708 
L 152.661794 52.542354 
L 152.793953 51.773188 
L 153.058272 29.723754 
L 153.190432 36.133473 
L 153.454751 32.54403 
L 153.586911 34.082363 
L 153.71907 32.54403 
L 153.98339 41.774026 
L 154.11555 46.132635 
L 154.379869 39.466527 
L 154.512028 42.286804 
L 154.644188 51.516799 
L 154.776348 52.798743 
L 155.172826 37.928194 
L 155.437146 57.157353 
L 155.701465 53.824298 
L 155.965784 32.031253 
L 156.097944 35.364307 
L 156.362263 35.364307 
L 156.494423 33.569585 
L 156.626582 29.980142 
L 156.758742 33.056808 
L 157.023061 43.05597 
L 157.287381 41.517637 
L 157.5517 44.337914 
L 157.68386 49.2093 
L 157.816019 49.465689 
L 157.948179 41.261248 
L 158.080338 40.748471 
L 158.212498 39.466527 
L 158.344658 41.261248 
L 158.476817 48.440134 
L 158.608977 48.696523 
L 158.873296 27.929032 
L 159.005456 34.851529 
L 159.137616 35.620696 
L 159.269775 34.338752 
L 159.534095 49.978466 
L 159.666254 49.722078 
L 159.798414 51.260411 
L 159.930573 47.15819 
L 160.062733 46.645413 
L 160.194893 48.696523 
L 160.459212 41.774026 
L 160.591371 40.235693 
L 160.855691 49.465689 
L 161.25217 26.903478 
L 161.516489 30.49292 
L 161.912968 47.15819 
L 162.045127 48.696523 
L 162.177287 48.696523 
L 162.309447 52.285965 
L 162.441606 47.927356 
L 162.573766 38.697361 
L 162.838085 42.543192 
L 162.970245 43.05597 
L 163.234564 47.927356 
L 163.498883 20.23737 
L 163.763203 34.851529 
L 164.027522 50.747633 
L 164.291841 40.492082 
L 164.68832 50.747633 
L 164.952639 42.543192 
L 165.084799 44.594302 
L 165.216959 51.260411 
L 165.349118 52.285965 
L 165.481278 50.747633 
L 165.877757 27.159866 
L 166.009917 28.698199 
L 166.142076 35.107918 
L 166.274236 34.851529 
L 166.670715 45.363469 
L 166.802874 44.081525 
L 167.067193 55.36263 
L 167.727992 31.518475 
L 167.860151 31.262086 
L 167.992311 36.902639 
L 168.25663 31.518475 
L 168.653109 57.157353 
L 168.785269 56.388186 
L 168.917429 54.593465 
L 169.049588 51.004022 
L 169.313907 31.774864 
L 169.446067 38.184583 
L 169.578227 36.64625 
L 169.710386 38.697361 
L 169.974705 51.260411 
L 170.106865 46.132635 
L 170.371184 28.185422 
L 170.503344 29.723754 
L 170.899823 59.72124 
L 171.031983 59.464851 
L 171.296302 29.723754 
L 171.428461 30.749309 
L 171.82494 43.825136 
L 172.08926 36.902639 
L 172.221419 37.159028 
L 172.353579 38.95375 
L 172.485739 35.620696 
L 172.617898 39.210138 
L 172.882217 50.234856 
L 173.146537 40.492082 
L 173.410856 45.363469 
L 173.543016 46.132635 
L 173.675175 47.670968 
L 173.807335 46.389024 
L 174.203814 29.467365 
L 174.600293 48.440134 
L 174.732452 43.312359 
L 174.864612 45.876246 
L 174.996772 45.876246 
L 175.261091 36.64625 
L 175.52541 46.645413 
L 175.65757 47.15819 
L 176.186208 27.672643 
L 176.318368 29.210976 
L 176.582687 47.670968 
L 176.714847 46.901801 
L 176.847006 43.825136 
L 177.111326 54.593465 
L 177.243485 53.56791 
L 177.507805 39.979305 
L 177.639964 38.95375 
L 177.772124 41.261248 
L 177.904284 48.440134 
L 178.036443 46.132635 
L 178.300762 29.980142 
L 178.432922 32.031253 
L 178.697241 38.440972 
L 178.96156 33.569585 
L 179.22588 48.952912 
L 179.622359 44.337914 
L 179.886678 37.671806 
L 180.018838 39.466527 
L 180.150997 47.670968 
L 180.283157 47.414579 
L 180.415316 42.030415 
L 180.547476 45.10708 
L 181.076115 35.620696 
L 181.208274 37.671806 
L 181.604753 49.465689 
L 181.736913 49.722078 
L 181.869072 49.465689 
L 182.133392 43.568747 
L 182.397711 29.467365 
L 182.66203 33.056808 
L 182.92635 40.748471 
L 183.058509 41.517637 
L 183.190669 44.337914 
L 183.322828 49.978466 
L 183.454988 49.2093 
L 183.587148 47.15819 
L 183.719308 41.517637 
L 184.115786 51.260411 
L 184.512265 29.723754 
L 184.776584 32.54403 
L 184.908744 32.800419 
L 185.173063 48.183745 
L 185.305223 45.876246 
L 185.437383 46.389024 
L 185.701702 38.184583 
L 185.966021 48.696523 
L 186.098181 47.414579 
L 186.3625 36.64625 
L 186.49466 39.466527 
L 186.626819 32.031253 
L 186.758979 33.313196 
L 187.155458 48.952912 
L 187.419777 51.773188 
L 187.684096 36.389862 
L 187.948416 50.234856 
L 188.080575 46.132635 
L 188.212735 47.15819 
L 188.477054 35.620696 
L 188.609214 36.389862 
L 188.741374 27.672643 
L 189.137852 42.030415 
L 189.270012 41.261248 
L 189.534331 47.927356 
L 189.666491 47.670968 
L 189.93081 44.594302 
L 190.06297 46.645413 
L 190.327289 40.748471 
L 190.459449 38.697361 
L 190.591608 38.95375 
L 190.723768 42.543192 
L 190.988087 34.851529 
L 191.252407 41.261248 
L 191.516726 38.184583 
L 191.648885 40.235693 
L 191.913205 48.952912 
L 192.309684 39.210138 
L 192.441843 38.697361 
L 192.706163 46.645413 
L 192.838322 47.414579 
L 193.234801 34.59514 
L 193.366961 35.364307 
L 193.63128 45.619858 
L 193.895599 52.542354 
L 194.027759 41.00486 
L 194.159919 39.466527 
L 194.556397 53.31152 
L 194.820717 28.954587 
L 194.952876 29.980142 
L 195.217195 38.95375 
L 195.349355 46.132635 
L 195.745834 32.031253 
L 195.877994 35.877084 
L 196.142313 46.389024 
L 196.538792 36.133473 
L 196.935271 54.593465 
L 197.06743 51.260411 
L 197.33175 41.261248 
L 197.463909 43.825136 
L 197.728229 52.798743 
L 197.860388 53.824298 
L 198.124707 41.261248 
L 198.256867 38.95375 
L 198.389027 24.595978 
L 198.521186 23.057645 
L 198.785506 42.286804 
L 198.917665 40.748471 
L 199.049825 43.05597 
L 199.314144 39.722916 
L 199.578463 49.465689 
L 199.842783 43.825136 
L 199.974942 43.825136 
L 200.107102 41.00486 
L 200.239262 33.569585 
L 200.371421 35.107918 
L 200.635741 39.466527 
L 200.7679 39.210138 
L 200.90006 41.261248 
L 201.032219 46.389024 
L 201.164379 43.05597 
L 201.296539 42.543192 
L 201.560858 40.748471 
L 201.957337 45.619858 
L 202.089497 44.594302 
L 202.353816 50.491244 
L 202.618135 36.133473 
L 202.750295 40.748471 
L 203.014614 37.159028 
L 203.146773 37.159028 
L 203.278933 38.440972 
L 203.411093 42.799581 
L 203.543253 42.543192 
L 203.807572 38.95375 
L 203.939731 34.851529 
L 204.071891 35.877084 
L 204.46837 55.61902 
L 204.600529 53.824298 
L 204.997009 36.389862 
L 205.129168 31.005698 
L 205.393487 42.799581 
L 205.525647 42.799581 
L 205.789966 48.440134 
L 205.922126 43.05597 
L 206.186445 23.570424 
L 206.450764 38.95375 
L 206.582924 49.465689 
L 206.715084 48.952912 
L 206.847243 41.517637 
L 206.979403 47.670968 
L 207.111562 46.645413 
L 207.243722 44.594302 
L 207.375882 45.363469 
L 207.508042 47.670968 
L 207.640201 46.645413 
L 207.90452 28.185422 
L 208.433159 51.260411 
L 208.565318 46.901801 
L 208.697478 50.234856 
L 208.829638 47.414579 
L 208.961798 41.774026 
L 209.093957 41.517637 
L 209.226117 42.030415 
L 209.358276 41.774026 
L 209.490436 38.440972 
L 209.754755 39.466527 
L 210.019074 33.825974 
L 210.151234 33.313196 
L 210.679873 48.952912 
L 210.812032 47.670968 
L 210.944192 50.491244 
L 211.340671 40.492082 
L 211.47283 40.748471 
L 211.60499 44.337914 
L 211.869309 35.107918 
L 212.001469 36.64625 
L 212.133629 35.620696 
L 212.265788 37.159028 
L 212.397948 40.235693 
L 212.662267 51.004022 
L 213.058746 33.569585 
L 213.323065 44.081525 
L 213.455225 44.594302 
L 213.587385 40.492082 
L 213.719544 40.492082 
L 213.983864 44.337914 
L 214.248183 53.31152 
L 214.512502 44.594302 
L 214.644662 44.081525 
L 214.908981 28.954587 
L 215.041141 29.467365 
L 215.30546 42.286804 
L 215.43762 38.184583 
L 215.569779 37.671806 
L 215.834098 53.055132 
L 216.098418 47.927356 
L 216.230577 51.773188 
L 216.627056 34.59514 
L 216.759216 26.390699 
L 216.891376 27.929032 
L 217.155695 33.569585 
L 217.287854 36.133473 
L 217.552174 47.414579 
L 217.684333 47.670968 
L 217.948652 56.131797 
L 218.212972 40.748471 
L 218.477291 46.901801 
L 218.609451 46.901801 
L 218.87377 44.594302 
L 219.138089 35.364307 
L 219.270249 33.056808 
L 219.402408 35.107918 
L 219.666728 40.235693 
L 219.798887 42.799581 
L 220.063207 39.210138 
L 220.195366 41.517637 
L 220.327526 41.517637 
L 220.459686 39.466527 
L 220.591845 40.492082 
L 220.856165 48.952912 
L 220.988324 41.517637 
L 221.120484 43.312359 
L 221.252643 47.927356 
L 221.913442 32.800419 
L 222.045601 32.800419 
L 222.44208 44.594302 
L 222.57424 42.543192 
L 222.706399 43.312359 
L 222.970719 52.542354 
L 223.102878 50.491244 
L 223.499357 35.620696 
L 223.763677 49.465689 
L 223.895836 48.183745 
L 224.292315 32.800419 
L 224.424475 34.59514 
L 224.688794 44.081525 
L 224.820953 42.543192 
L 224.953113 42.799581 
L 225.085273 48.440134 
L 225.349592 42.799581 
L 225.481752 44.594302 
L 225.613911 42.286804 
L 225.746071 35.620696 
L 225.878231 34.851529 
L 226.01039 35.107918 
L 226.14255 39.979305 
L 226.274709 50.491244 
L 226.671188 39.722916 
L 226.803348 31.518475 
L 226.935508 33.056808 
L 227.199827 42.030415 
L 227.464146 38.697361 
L 227.596306 45.876246 
L 227.728465 45.876246 
L 227.860625 45.619858 
L 227.992785 45.876246 
L 228.124944 42.286804 
L 228.389263 50.747633 
L 228.521423 50.234856 
L 228.917902 34.338752 
L 229.050062 36.133473 
L 229.446541 54.593465 
L 229.843019 30.236532 
L 230.107339 42.799581 
L 230.239499 41.517637 
L 230.503818 32.287641 
L 230.635977 33.056808 
L 230.900297 45.10708 
L 231.164616 39.466527 
L 231.428935 52.798743 
L 231.561095 51.516799 
L 231.825414 29.980142 
L 231.957574 31.774864 
L 232.221893 41.774026 
L 232.354053 44.594302 
L 232.486212 37.928194 
L 232.618372 37.415417 
L 232.750531 40.492082 
L 233.014851 57.157353 
L 233.147011 56.131797 
L 233.27917 51.004022 
L 233.543489 35.620696 
L 233.807809 46.645413 
L 233.939968 49.2093 
L 234.072128 48.696523 
L 234.336447 25.365145 
L 234.468607 26.134311 
L 234.997245 49.722078 
L 235.129405 49.465689 
L 235.261565 51.516799 
L 235.393724 49.978466 
L 235.525884 46.645413 
L 235.922363 22.28848 
L 236.318842 47.15819 
L 236.451001 44.337914 
L 236.583161 38.440972 
L 236.71532 39.722916 
L 236.97964 47.414579 
L 237.243959 45.363469 
L 237.376119 48.696523 
L 237.640438 38.184583 
L 237.904757 41.774026 
L 238.036917 42.543192 
L 238.169076 41.261248 
L 238.301236 36.389862 
L 238.433396 36.133473 
L 238.565555 38.697361 
L 238.697715 44.081525 
L 238.829875 43.568747 
L 238.962034 43.568747 
L 239.094194 50.234856 
L 239.226354 50.234856 
L 239.358513 45.619858 
L 239.490673 46.901801 
L 239.754992 40.492082 
L 239.887152 49.722078 
L 240.019311 44.337914 
L 240.283631 27.416255 
L 240.812269 37.159028 
L 241.076588 50.234856 
L 241.208748 53.055132 
L 241.340908 49.465689 
L 241.605227 39.979305 
L 241.737387 39.722916 
L 241.869546 42.286804 
L 242.001706 40.748471 
L 242.133866 43.05597 
L 242.398185 41.517637 
L 242.530344 42.543192 
L 242.662504 42.286804 
L 242.926823 33.825974 
L 243.058983 34.59514 
L 243.455462 51.516799 
L 243.587622 51.516799 
L 243.719781 52.285965 
L 243.851941 47.670968 
L 244.11626 34.59514 
L 244.380579 36.64625 
L 244.644898 40.492082 
L 244.777058 40.235693 
L 245.041378 42.030415 
L 245.173537 36.902639 
L 245.305697 38.95375 
L 245.437856 44.594302 
L 245.570016 45.363469 
L 245.834335 41.774026 
L 245.966495 42.799581 
L 246.230814 38.184583 
L 246.495133 48.696523 
L 246.627293 44.081525 
L 246.891612 45.876246 
L 247.023772 49.722078 
L 247.155932 48.440134 
L 247.55241 24.595978 
L 247.948889 48.183745 
L 248.081049 50.234856 
L 248.477528 33.313196 
L 248.874007 47.414579 
L 249.006166 44.594302 
L 249.270486 48.952912 
L 249.402645 44.850691 
L 249.534805 47.927356 
L 249.666965 44.850691 
L 249.931284 32.287641 
L 250.592082 48.440134 
L 250.724242 46.389024 
L 250.988561 29.210976 
L 251.38504 55.36263 
L 251.5172 52.285965 
L 251.913678 26.647089 
L 252.045838 28.185422 
L 252.310157 52.542354 
L 252.442317 51.260411 
L 252.706636 37.671806 
L 252.838796 37.415417 
L 252.970955 41.00486 
L 253.103115 40.492082 
L 253.235275 38.184583 
L 253.367434 38.440972 
L 253.631754 48.440134 
L 253.763913 48.440134 
L 253.896073 52.029577 
L 254.028233 51.260411 
L 254.292552 31.262086 
L 254.424711 29.980142 
L 254.82119 40.492082 
L 255.08551 44.594302 
L 255.217669 42.286804 
L 255.349829 32.287641 
L 255.481989 35.877084 
L 255.614148 48.440134 
L 255.746308 48.952912 
L 256.010627 53.055132 
L 256.407106 33.569585 
L 256.539265 32.800419 
L 256.671425 33.313196 
L 256.803585 37.671806 
L 257.067904 48.952912 
L 257.332223 39.466527 
L 257.596543 55.36263 
L 257.728702 52.542354 
L 258.125181 35.107918 
L 258.257341 29.210976 
L 258.389501 28.44181 
L 258.52166 31.774864 
L 258.785979 42.286804 
L 259.182458 53.055132 
L 259.314618 49.978466 
L 259.578937 33.569585 
L 259.843257 44.594302 
L 259.975416 49.722078 
L 260.239735 38.440972 
L 260.504055 26.134311 
L 260.636214 30.236532 
L 260.900533 45.876246 
L 261.032693 45.619858 
L 261.164853 49.978466 
L 261.297012 49.978466 
L 261.561332 40.235693 
L 261.693491 43.312359 
L 261.957811 60.490407 
L 262.08997 61.515961 
L 262.486449 25.365145 
L 262.618609 22.544868 
L 263.015088 49.2093 
L 263.147247 47.670968 
L 263.411567 32.031253 
L 263.543726 34.338752 
L 263.808045 46.901801 
L 263.940205 46.901801 
L 264.204524 38.440972 
L 264.336684 37.928194 
L 264.468844 39.722916 
L 264.601003 45.10708 
L 264.865323 34.082363 
L 264.997482 33.313196 
L 265.129642 33.569585 
L 265.393961 45.363469 
L 265.526121 44.337914 
L 265.65828 41.774026 
L 265.922599 63.823461 
L 266.186919 58.439295 
L 266.319078 53.824298 
L 266.583398 32.031253 
L 266.847717 39.722916 
L 267.112036 31.005698 
L 267.376356 39.979305 
L 267.640675 31.774864 
L 267.904994 46.645413 
L 268.169313 37.928194 
L 268.301473 37.928194 
L 268.433633 41.774026 
L 268.697952 32.54403 
L 269.094431 45.363469 
L 269.22659 46.901801 
L 269.35875 46.645413 
L 269.49091 40.492082 
L 269.623069 41.00486 
L 269.755229 43.568747 
L 270.019548 61.515961 
L 270.151708 58.182907 
L 270.416027 34.59514 
L 270.548187 33.056808 
L 270.680346 34.082363 
L 271.208985 53.824298 
L 271.341144 47.15819 
L 271.605464 27.159866 
L 271.737624 26.903478 
L 272.001943 36.389862 
L 272.134102 37.159028 
L 272.266262 36.902639 
L 272.398422 41.774026 
L 272.7949 43.312359 
L 272.92706 45.363469 
L 273.05922 50.491244 
L 273.19138 50.491244 
L 273.323539 49.722078 
L 273.455699 43.05597 
L 273.720018 42.286804 
L 273.852178 42.030415 
L 274.116497 33.056808 
L 274.380816 41.517637 
L 274.645135 49.978466 
L 274.909455 36.133473 
L 275.173774 32.54403 
L 275.570253 49.978466 
L 275.702412 49.978466 
L 275.834572 41.517637 
L 275.966732 41.774026 
L 276.098891 45.363469 
L 276.231051 45.876246 
L 276.363211 44.081525 
L 276.62753 31.518475 
L 276.891849 57.413741 
L 277.288328 29.467365 
L 277.684807 41.774026 
L 277.816966 37.159028 
L 277.949126 36.64625 
L 278.213446 42.543192 
L 278.477765 44.081525 
L 278.742084 49.2093 
L 279.006403 42.543192 
L 279.270723 31.262086 
L 279.402882 34.082363 
L 279.667202 47.15819 
L 279.799361 46.389024 
L 280.06368 54.080687 
L 280.328 36.133473 
L 280.460159 36.64625 
L 280.724478 49.978466 
L 281.120957 34.338752 
L 281.253117 34.59514 
L 281.385277 38.440972 
L 281.517436 38.184583 
L 281.649596 37.671806 
L 281.781756 38.95375 
L 282.046075 35.364307 
L 282.310394 38.697361 
L 282.442554 36.902639 
L 282.706873 52.798743 
L 282.839033 54.080687 
L 282.971192 56.900963 
L 283.235511 40.235693 
L 283.367671 40.492082 
L 283.631991 45.876246 
L 283.76415 46.389024 
L 283.89631 44.337914 
L 284.292789 24.595978 
L 284.424948 24.852366 
L 284.821427 49.465689 
L 284.953587 51.004022 
L 285.085747 49.2093 
L 285.217906 43.05597 
L 285.350066 44.337914 
L 285.482225 48.952912 
L 285.746545 35.364307 
L 286.010864 38.440972 
L 286.143023 37.671806 
L 286.407343 41.00486 
L 286.539502 39.466527 
L 286.803822 30.749309 
L 287.200301 57.413741 
L 287.33246 51.516799 
L 287.46462 52.798743 
L 287.596779 47.670968 
L 287.861099 32.54403 
L 287.993258 33.313196 
L 288.257578 47.414579 
L 288.389737 46.389024 
L 288.521897 38.184583 
L 288.654057 39.210138 
L 288.918376 46.901801 
L 289.050535 45.10708 
L 289.314855 30.749309 
L 289.447014 30.49292 
L 289.711334 48.183745 
L 290.107813 35.620696 
L 290.372132 44.337914 
L 290.504291 49.978466 
L 290.636451 48.440134 
L 290.768611 43.05597 
L 290.90077 48.440134 
L 291.03293 46.389024 
L 291.16509 39.466527 
L 291.297249 40.748471 
L 291.561569 46.901801 
L 291.825888 31.774864 
L 291.958047 31.774864 
L 292.354526 39.210138 
L 292.486686 39.466527 
L 292.751005 46.901801 
L 292.883165 45.876246 
L 293.147484 54.080687 
L 293.279644 51.516799 
L 293.543963 37.928194 
L 293.676123 37.415417 
L 293.808282 37.671806 
L 293.940442 43.825136 
L 294.072601 42.543192 
L 294.204761 33.313196 
L 294.336921 32.287641 
L 294.469081 37.671806 
L 294.60124 34.851529 
L 294.7334 37.928194 
L 294.997719 46.901801 
L 295.129879 48.183745 
L 295.394198 39.466527 
L 295.526357 39.722916 
L 295.658517 44.850691 
L 295.790677 43.05597 
L 295.922836 38.184583 
L 296.054996 40.748471 
L 296.319315 51.004022 
L 296.451475 51.260411 
L 296.715794 28.698199 
L 296.847954 30.49292 
L 297.244433 50.747633 
L 297.376592 52.542354 
L 297.508752 48.183745 
L 297.773071 36.64625 
L 297.905231 38.697361 
L 298.037391 33.569585 
L 298.16955 40.492082 
L 298.30171 54.080687 
L 298.43387 52.285965 
L 298.698189 36.64625 
L 298.830348 30.49292 
L 298.962508 29.723754 
L 299.226827 41.261248 
L 299.491146 47.15819 
L 299.623306 39.722916 
L 299.887626 44.081525 
L 300.019785 41.261248 
L 300.151945 41.517637 
L 300.284104 42.286804 
L 300.416264 44.337914 
L 300.680583 37.159028 
L 301.077062 49.978466 
L 301.209222 49.2093 
L 301.473541 38.440972 
L 301.605701 40.492082 
L 301.73786 46.389024 
L 302.00218 43.05597 
L 302.266499 35.620696 
L 302.398658 38.184583 
L 302.530818 43.568747 
L 302.662978 43.568747 
L 302.795137 35.620696 
L 302.927297 34.59514 
L 303.059457 35.107918 
L 303.323776 41.517637 
L 303.588095 55.36263 
L 303.720255 49.978466 
L 303.984574 35.877084 
L 304.116734 33.313196 
L 304.248893 35.877084 
L 304.513213 50.747633 
L 304.645372 51.516799 
L 304.909692 42.030415 
L 305.174011 29.980142 
L 305.834809 48.440134 
L 305.966968 47.414579 
L 306.099128 49.465689 
L 306.231288 49.2093 
L 306.495607 43.825136 
L 306.627767 35.620696 
L 306.892086 39.979305 
L 307.024246 38.184583 
L 307.156405 41.774026 
L 307.420724 33.056808 
L 307.552884 37.415417 
L 307.685044 34.082363 
L 307.817204 35.364307 
L 308.081523 48.183745 
L 308.213682 49.978466 
L 308.345842 50.234856 
L 308.478002 49.2093 
L 308.742321 42.286804 
L 308.87448 45.876246 
L 309.1388 42.286804 
L 309.403119 36.133473 
L 309.535279 38.95375 
L 309.799598 33.313196 
L 310.063917 42.030415 
L 310.196077 37.671806 
L 310.328236 37.159028 
L 310.724715 61.515961 
L 310.856875 56.900963 
L 311.121194 36.389862 
L 311.253354 35.620696 
L 311.385514 35.620696 
L 311.517673 40.748471 
L 311.649833 40.492082 
L 311.914152 31.005698 
L 312.046312 31.005698 
L 312.442791 42.799581 
L 312.57495 43.05597 
L 312.70711 40.492082 
L 312.839269 34.338752 
L 312.971429 35.107918 
L 313.235748 51.773188 
L 313.367908 53.055132 
L 313.500068 45.10708 
L 313.632227 46.389024 
L 313.896547 53.31152 
L 314.160866 40.492082 
L 314.293025 41.00486 
L 314.425185 47.15819 
L 314.557345 44.337914 
L 314.821664 25.621534 
L 314.953824 29.467365 
L 315.218143 42.799581 
L 315.482462 44.594302 
L 315.614622 50.747633 
L 315.746781 49.2093 
L 316.011101 41.517637 
L 316.14326 36.902639 
L 316.40758 42.286804 
L 316.671899 32.54403 
L 317.200537 40.748471 
L 317.332697 37.928194 
L 317.464857 37.671806 
L 317.861336 55.61902 
L 318.257815 42.286804 
L 318.389974 43.05597 
L 318.522134 43.05597 
L 318.654293 46.901801 
L 319.050772 29.210976 
L 319.315092 50.491244 
L 319.711571 40.748471 
L 319.84373 40.235693 
L 319.97589 41.00486 
L 320.108049 37.928194 
L 320.372369 41.517637 
L 320.504528 35.364307 
L 320.901007 49.722078 
L 321.165327 32.031253 
L 321.297486 33.056808 
L 321.429646 33.056808 
L 321.693965 54.593465 
L 321.826125 52.542354 
L 321.958284 46.901801 
L 322.090444 46.901801 
L 322.354763 37.159028 
L 322.486923 35.877084 
L 322.751242 49.722078 
L 323.147721 34.59514 
L 323.5442 45.876246 
L 323.808519 39.979305 
L 323.940679 42.799581 
L 324.072838 48.440134 
L 324.204998 48.183745 
L 324.469317 35.364307 
L 324.601477 34.59514 
L 325.130115 45.363469 
L 325.526594 39.722916 
L 325.658754 39.979305 
L 325.790914 39.979305 
L 325.923073 40.748471 
L 326.055233 42.799581 
L 326.319552 56.131797 
L 326.583871 38.440972 
L 326.848191 28.44181 
L 326.98035 31.005698 
L 327.244669 47.15819 
L 327.376829 49.2093 
L 327.641149 55.61902 
L 327.905468 31.774864 
L 328.434106 47.927356 
L 328.566266 46.645413 
L 328.962745 34.082363 
L 329.094904 29.467365 
L 329.359224 35.107918 
L 329.623543 47.414579 
L 329.755703 46.901801 
L 329.887862 46.901801 
L 330.020022 48.952912 
L 330.152182 48.696523 
L 330.416501 43.568747 
L 330.54866 43.05597 
L 330.81298 47.414579 
L 331.077299 34.082363 
L 331.209459 36.64625 
L 331.341618 36.902639 
L 331.605938 32.800419 
L 331.738097 35.364307 
L 332.002416 49.2093 
L 332.134576 47.927356 
L 332.266736 42.030415 
L 332.398895 43.825136 
L 332.663214 56.644574 
L 333.059694 36.389862 
L 333.324013 32.800419 
L 333.456172 29.467365 
L 333.588332 32.031253 
L 333.852651 43.568747 
L 333.984811 44.337914 
L 334.24913 47.414579 
L 334.51345 44.081525 
L 334.645609 47.15819 
L 334.777769 45.10708 
L 334.909928 39.466527 
L 335.042088 41.00486 
L 335.174248 44.081525 
L 335.306407 44.337914 
L 335.438567 42.286804 
L 335.702886 31.262086 
L 335.835046 28.954587 
L 335.967205 31.005698 
L 336.231525 53.055132 
L 336.628004 43.312359 
L 336.892323 51.260411 
L 337.024482 49.465689 
L 337.288802 39.466527 
L 337.420961 38.440972 
L 337.553121 39.979305 
L 337.685281 48.696523 
L 338.213919 27.416255 
L 338.346079 32.800419 
L 338.610398 52.285965 
L 338.742558 52.542354 
L 339.006877 30.236532 
L 339.139037 32.031253 
L 339.535516 51.260411 
L 339.931994 49.978466 
L 340.196314 38.95375 
L 340.328473 37.928194 
L 340.460633 40.235693 
L 340.592793 39.722916 
L 340.724952 40.235693 
L 340.989272 42.799581 
L 341.121431 42.030415 
L 341.253591 44.081525 
L 341.38575 48.696523 
L 341.51791 44.594302 
L 341.65007 44.081525 
L 341.914389 40.492082 
L 342.178708 29.723754 
L 342.443027 35.107918 
L 342.839506 48.183745 
L 342.971666 45.876246 
L 343.103826 40.748471 
L 343.368145 49.722078 
L 343.632464 45.619858 
L 343.764624 51.260411 
L 343.896783 51.260411 
L 344.293262 28.44181 
L 344.425422 32.031253 
L 344.557582 30.49292 
L 344.821901 38.697361 
L 345.08622 46.389024 
L 345.21838 42.799581 
L 345.482699 43.568747 
L 345.614859 44.850691 
L 345.879178 64.336238 
L 346.011337 53.31152 
L 346.275657 24.339589 
L 346.804295 40.235693 
L 347.068615 55.36263 
L 347.200774 52.542354 
L 347.597253 27.929032 
L 348.125892 46.132635 
L 348.258051 43.05597 
L 348.390211 42.799581 
L 348.522371 40.748471 
L 348.918849 43.825136 
L 349.051009 46.389024 
L 349.315329 44.594302 
L 349.447488 46.132635 
L 349.843967 26.903478 
L 350.108286 44.337914 
L 350.372605 57.926518 
L 350.901244 39.466527 
L 351.033404 36.389862 
L 351.297723 42.030415 
L 351.429883 40.235693 
L 351.826361 25.621534 
L 352.090681 45.10708 
L 352.22284 46.645413 
L 352.355 42.799581 
L 352.619319 51.773188 
L 352.751479 49.722078 
L 353.015798 41.517637 
L 353.147958 43.568747 
L 353.280117 48.183745 
L 353.412277 43.05597 
L 353.544437 31.005698 
L 353.676596 32.031253 
L 354.073075 48.183745 
L 354.337395 43.05597 
L 354.469554 42.030415 
L 354.733873 33.825974 
L 354.866033 36.389862 
L 355.130352 51.260411 
L 355.262512 49.978466 
L 355.394671 40.492082 
L 355.526831 39.979305 
L 355.658991 43.825136 
L 355.791151 44.337914 
L 355.92331 44.337914 
L 356.187629 36.902639 
L 356.319789 35.107918 
L 356.584108 27.929032 
L 356.716268 28.698199 
L 357.112747 65.618182 
L 357.773545 35.620696 
L 357.905705 36.64625 
L 358.170024 47.414579 
L 358.434343 25.365145 
L 358.434343 25.365145 
" clip-path="url(#pbf3ef73cd1)" style="fill: none; stroke: #4c72b0; stroke-width: 0.65; stroke-linecap: round"/>
   </g>
   <g id="patch_3">
    <path d="M 38.852525 68.4 
L 38.852525 7.2 
" style="fill: none; stroke: #ffffff; stroke-width: 1.25; stroke-linejoin: miter; stroke-linecap: square"/>
   </g>
   <g id="patch_4">
    <path d="M 373.652525 68.4 
L 373.652525 7.2 
" style="fill: none; stroke: #ffffff; stroke-width: 1.25; stroke-linejoin: miter; stroke-linecap: square"/>
   </g>
   <g id="patch_5">
    <path d="M 38.852525 68.4 
L 373.652525 68.4 
" style="fill: none; stroke: #ffffff; stroke-width: 1.25; stroke-linejoin: miter; stroke-linecap: square"/>
   </g>
   <g id="patch_6">
    <path d="M 38.852525 7.2 
L 373.652525 7.2 
" style="fill: none; stroke: #ffffff; stroke-width: 1.25; stroke-linejoin: miter; stroke-linecap: square"/>
   </g>
  </g>
 </g>
 <defs>
  <clipPath id="pbf3ef73cd1">
   <rect x="38.852525" y="7.2" width="334.8" height="61.2"/>
  </clipPath>
 </defs>
</svg>
