<?xml version="1.0" encoding="utf-8" standalone="no"?>
<!DOCTYPE svg PUBLIC "-//W3C//DTD SVG 1.1//EN"
  "http://www.w3.org/Graphics/SVG/1.1/DTD/svg11.dtd">
<svg xmlns:xlink="http://www.w3.org/1999/xlink" width="719.225006pt" height="115.168092pt" viewBox="0 0 719.225006 115.168092" xmlns="http://www.w3.org/2000/svg" version="1.1">
 <metadata>
  <rdf:RDF xmlns:dc="http://purl.org/dc/elements/1.1/" xmlns:cc="http://creativecommons.org/ns#" xmlns:rdf="http://www.w3.org/1999/02/22-rdf-syntax-ns#">
   <cc:Work>
    <dc:type rdf:resource="http://purl.org/dc/dcmitype/StillImage"/>
    <dc:date>2024-12-09T20:19:18.609419</dc:date>
    <dc:format>image/svg+xml</dc:format>
    <dc:creator>
     <cc:Agent>
      <dc:title>Matplotlib v3.9.0, https://matplotlib.org/</dc:title>
     </cc:Agent>
    </dc:creator>
   </cc:Work>
  </rdf:RDF>
 </metadata>
 <defs>
  <style type="text/css">*{stroke-linejoin: round; stroke-linecap: butt}</style>
 </defs>
 <g id="figure_1">
  <g id="patch_1">
   <path d="M 0 115.168092 
L 719.225006 115.168092 
L 719.225006 0 
L 0 0 
z
" style="fill: #ffffff"/>
  </g>
  <g id="axes_1">
   <g id="patch_2">
    <path d="M 42.425006 80.64 
L 712.025006 80.64 
L 712.025006 7.2 
L 42.425006 7.2 
z
" style="fill: #eaeaf2"/>
   </g>
   <g id="matplotlib.axis_1">
    <g id="xtick_1">
     <g id="line2d_1">
      <path d="M 64.347701 80.64 
L 64.347701 7.2 
" clip-path="url(#p13b2afdbed)" style="fill: none; stroke: #ffffff; stroke-linecap: round"/>
     </g>
     <g id="text_1">
      <!-- 11:00:00 -->
      <g style="fill: #262626" transform="translate(41.866524 106.832083) rotate(-30) scale(0.066 -0.066)">
       <defs>
        <path id="ArialMT-31" d="M 2384 0 
L 1822 0 
L 1822 3584 
Q 1619 3391 1289 3197 
Q 959 3003 697 2906 
L 697 3450 
Q 1169 3672 1522 3987 
Q 1875 4303 2022 4600 
L 2384 4600 
L 2384 0 
z
" transform="scale(0.015625)"/>
        <path id="ArialMT-3a" d="M 578 2678 
L 578 3319 
L 1219 3319 
L 1219 2678 
L 578 2678 
z
M 578 0 
L 578 641 
L 1219 641 
L 1219 0 
L 578 0 
z
" transform="scale(0.015625)"/>
        <path id="ArialMT-30" d="M 266 2259 
Q 266 3072 433 3567 
Q 600 4063 929 4331 
Q 1259 4600 1759 4600 
Q 2128 4600 2406 4451 
Q 2684 4303 2865 4023 
Q 3047 3744 3150 3342 
Q 3253 2941 3253 2259 
Q 3253 1453 3087 958 
Q 2922 463 2592 192 
Q 2263 -78 1759 -78 
Q 1097 -78 719 397 
Q 266 969 266 2259 
z
M 844 2259 
Q 844 1131 1108 757 
Q 1372 384 1759 384 
Q 2147 384 2411 759 
Q 2675 1134 2675 2259 
Q 2675 3391 2411 3762 
Q 2147 4134 1753 4134 
Q 1366 4134 1134 3806 
Q 844 3388 844 2259 
z
" transform="scale(0.015625)"/>
       </defs>
       <use xlink:href="#ArialMT-31"/>
       <use xlink:href="#ArialMT-31" x="48.240234"/>
       <use xlink:href="#ArialMT-3a" x="103.855469"/>
       <use xlink:href="#ArialMT-30" x="131.638672"/>
       <use xlink:href="#ArialMT-30" x="187.253906"/>
       <use xlink:href="#ArialMT-3a" x="242.869141"/>
       <use xlink:href="#ArialMT-30" x="270.652344"/>
       <use xlink:href="#ArialMT-30" x="326.267578"/>
      </g>
     </g>
    </g>
    <g id="xtick_2">
     <g id="line2d_2">
      <path d="M 146.078916 80.64 
L 146.078916 7.2 
" clip-path="url(#p13b2afdbed)" style="fill: none; stroke: #ffffff; stroke-linecap: round"/>
     </g>
     <g id="text_2">
      <!-- 11:00:15 -->
      <g style="fill: #262626" transform="translate(123.597739 106.832083) rotate(-30) scale(0.066 -0.066)">
       <defs>
        <path id="ArialMT-35" d="M 266 1200 
L 856 1250 
Q 922 819 1161 601 
Q 1400 384 1738 384 
Q 2144 384 2425 690 
Q 2706 997 2706 1503 
Q 2706 1984 2436 2262 
Q 2166 2541 1728 2541 
Q 1456 2541 1237 2417 
Q 1019 2294 894 2097 
L 366 2166 
L 809 4519 
L 3088 4519 
L 3088 3981 
L 1259 3981 
L 1013 2750 
Q 1425 3038 1878 3038 
Q 2478 3038 2890 2622 
Q 3303 2206 3303 1553 
Q 3303 931 2941 478 
Q 2500 -78 1738 -78 
Q 1113 -78 717 272 
Q 322 622 266 1200 
z
" transform="scale(0.015625)"/>
       </defs>
       <use xlink:href="#ArialMT-31"/>
       <use xlink:href="#ArialMT-31" x="48.240234"/>
       <use xlink:href="#ArialMT-3a" x="103.855469"/>
       <use xlink:href="#ArialMT-30" x="131.638672"/>
       <use xlink:href="#ArialMT-30" x="187.253906"/>
       <use xlink:href="#ArialMT-3a" x="242.869141"/>
       <use xlink:href="#ArialMT-31" x="270.652344"/>
       <use xlink:href="#ArialMT-35" x="326.267578"/>
      </g>
     </g>
    </g>
    <g id="xtick_3">
     <g id="line2d_3">
      <path d="M 227.81013 80.64 
L 227.81013 7.2 
" clip-path="url(#p13b2afdbed)" style="fill: none; stroke: #ffffff; stroke-linecap: round"/>
     </g>
     <g id="text_3">
      <!-- 11:00:30 -->
      <g style="fill: #262626" transform="translate(205.328954 106.832083) rotate(-30) scale(0.066 -0.066)">
       <defs>
        <path id="ArialMT-33" d="M 269 1209 
L 831 1284 
Q 928 806 1161 595 
Q 1394 384 1728 384 
Q 2125 384 2398 659 
Q 2672 934 2672 1341 
Q 2672 1728 2419 1979 
Q 2166 2231 1775 2231 
Q 1616 2231 1378 2169 
L 1441 2663 
Q 1497 2656 1531 2656 
Q 1891 2656 2178 2843 
Q 2466 3031 2466 3422 
Q 2466 3731 2256 3934 
Q 2047 4138 1716 4138 
Q 1388 4138 1169 3931 
Q 950 3725 888 3313 
L 325 3413 
Q 428 3978 793 4289 
Q 1159 4600 1703 4600 
Q 2078 4600 2393 4439 
Q 2709 4278 2876 4000 
Q 3044 3722 3044 3409 
Q 3044 3113 2884 2869 
Q 2725 2625 2413 2481 
Q 2819 2388 3044 2092 
Q 3269 1797 3269 1353 
Q 3269 753 2831 336 
Q 2394 -81 1725 -81 
Q 1122 -81 723 278 
Q 325 638 269 1209 
z
" transform="scale(0.015625)"/>
       </defs>
       <use xlink:href="#ArialMT-31"/>
       <use xlink:href="#ArialMT-31" x="48.240234"/>
       <use xlink:href="#ArialMT-3a" x="103.855469"/>
       <use xlink:href="#ArialMT-30" x="131.638672"/>
       <use xlink:href="#ArialMT-30" x="187.253906"/>
       <use xlink:href="#ArialMT-3a" x="242.869141"/>
       <use xlink:href="#ArialMT-33" x="270.652344"/>
       <use xlink:href="#ArialMT-30" x="326.267578"/>
      </g>
     </g>
    </g>
    <g id="xtick_4">
     <g id="line2d_4">
      <path d="M 309.541345 80.64 
L 309.541345 7.2 
" clip-path="url(#p13b2afdbed)" style="fill: none; stroke: #ffffff; stroke-linecap: round"/>
     </g>
     <g id="text_4">
      <!-- 11:00:45 -->
      <g style="fill: #262626" transform="translate(287.060168 106.832083) rotate(-30) scale(0.066 -0.066)">
       <defs>
        <path id="ArialMT-34" d="M 2069 0 
L 2069 1097 
L 81 1097 
L 81 1613 
L 2172 4581 
L 2631 4581 
L 2631 1613 
L 3250 1613 
L 3250 1097 
L 2631 1097 
L 2631 0 
L 2069 0 
z
M 2069 1613 
L 2069 3678 
L 634 1613 
L 2069 1613 
z
" transform="scale(0.015625)"/>
       </defs>
       <use xlink:href="#ArialMT-31"/>
       <use xlink:href="#ArialMT-31" x="48.240234"/>
       <use xlink:href="#ArialMT-3a" x="103.855469"/>
       <use xlink:href="#ArialMT-30" x="131.638672"/>
       <use xlink:href="#ArialMT-30" x="187.253906"/>
       <use xlink:href="#ArialMT-3a" x="242.869141"/>
       <use xlink:href="#ArialMT-34" x="270.652344"/>
       <use xlink:href="#ArialMT-35" x="326.267578"/>
      </g>
     </g>
    </g>
    <g id="xtick_5">
     <g id="line2d_5">
      <path d="M 391.272559 80.64 
L 391.272559 7.2 
" clip-path="url(#p13b2afdbed)" style="fill: none; stroke: #ffffff; stroke-linecap: round"/>
     </g>
     <g id="text_5">
      <!-- 11:01:00 -->
      <g style="fill: #262626" transform="translate(368.791383 106.832083) rotate(-30) scale(0.066 -0.066)">
       <use xlink:href="#ArialMT-31"/>
       <use xlink:href="#ArialMT-31" x="48.240234"/>
       <use xlink:href="#ArialMT-3a" x="103.855469"/>
       <use xlink:href="#ArialMT-30" x="131.638672"/>
       <use xlink:href="#ArialMT-31" x="187.253906"/>
       <use xlink:href="#ArialMT-3a" x="242.869141"/>
       <use xlink:href="#ArialMT-30" x="270.652344"/>
       <use xlink:href="#ArialMT-30" x="326.267578"/>
      </g>
     </g>
    </g>
    <g id="xtick_6">
     <g id="line2d_6">
      <path d="M 473.003775 80.64 
L 473.003775 7.2 
" clip-path="url(#p13b2afdbed)" style="fill: none; stroke: #ffffff; stroke-linecap: round"/>
     </g>
     <g id="text_6">
      <!-- 11:01:15 -->
      <g style="fill: #262626" transform="translate(450.522598 106.832083) rotate(-30) scale(0.066 -0.066)">
       <use xlink:href="#ArialMT-31"/>
       <use xlink:href="#ArialMT-31" x="48.240234"/>
       <use xlink:href="#ArialMT-3a" x="103.855469"/>
       <use xlink:href="#ArialMT-30" x="131.638672"/>
       <use xlink:href="#ArialMT-31" x="187.253906"/>
       <use xlink:href="#ArialMT-3a" x="242.869141"/>
       <use xlink:href="#ArialMT-31" x="270.652344"/>
       <use xlink:href="#ArialMT-35" x="326.267578"/>
      </g>
     </g>
    </g>
    <g id="xtick_7">
     <g id="line2d_7">
      <path d="M 554.734987 80.64 
L 554.734987 7.2 
" clip-path="url(#p13b2afdbed)" style="fill: none; stroke: #ffffff; stroke-linecap: round"/>
     </g>
     <g id="text_7">
      <!-- 11:01:30 -->
      <g style="fill: #262626" transform="translate(532.253811 106.832083) rotate(-30) scale(0.066 -0.066)">
       <use xlink:href="#ArialMT-31"/>
       <use xlink:href="#ArialMT-31" x="48.240234"/>
       <use xlink:href="#ArialMT-3a" x="103.855469"/>
       <use xlink:href="#ArialMT-30" x="131.638672"/>
       <use xlink:href="#ArialMT-31" x="187.253906"/>
       <use xlink:href="#ArialMT-3a" x="242.869141"/>
       <use xlink:href="#ArialMT-33" x="270.652344"/>
       <use xlink:href="#ArialMT-30" x="326.267578"/>
      </g>
     </g>
    </g>
    <g id="xtick_8">
     <g id="line2d_8">
      <path d="M 636.466202 80.64 
L 636.466202 7.2 
" clip-path="url(#p13b2afdbed)" style="fill: none; stroke: #ffffff; stroke-linecap: round"/>
     </g>
     <g id="text_8">
      <!-- 11:01:45 -->
      <g style="fill: #262626" transform="translate(613.985025 106.832083) rotate(-30) scale(0.066 -0.066)">
       <use xlink:href="#ArialMT-31"/>
       <use xlink:href="#ArialMT-31" x="48.240234"/>
       <use xlink:href="#ArialMT-3a" x="103.855469"/>
       <use xlink:href="#ArialMT-30" x="131.638672"/>
       <use xlink:href="#ArialMT-31" x="187.253906"/>
       <use xlink:href="#ArialMT-3a" x="242.869141"/>
       <use xlink:href="#ArialMT-34" x="270.652344"/>
       <use xlink:href="#ArialMT-35" x="326.267578"/>
      </g>
     </g>
    </g>
   </g>
   <g id="matplotlib.axis_2">
    <g id="ytick_1">
     <g id="line2d_9">
      <path d="M 42.425006 69.402305 
L 712.025006 69.402305 
" clip-path="url(#p13b2afdbed)" style="fill: none; stroke: #ffffff; stroke-linecap: round"/>
     </g>
     <g id="text_9">
      <!-- −1 -->
      <g style="fill: #262626" transform="translate(25.399975 71.764383) scale(0.066 -0.066)">
       <defs>
        <path id="ArialMT-2212" d="M 3381 1997 
L 356 1997 
L 356 2522 
L 3381 2522 
L 3381 1997 
z
" transform="scale(0.015625)"/>
       </defs>
       <use xlink:href="#ArialMT-2212"/>
       <use xlink:href="#ArialMT-31" x="58.398438"/>
      </g>
     </g>
    </g>
    <g id="ytick_2">
     <g id="line2d_10">
      <path d="M 42.425006 43.92 
L 712.025006 43.92 
" clip-path="url(#p13b2afdbed)" style="fill: none; stroke: #ffffff; stroke-linecap: round"/>
     </g>
     <g id="text_10">
      <!-- 0 -->
      <g style="fill: #262626" transform="translate(29.254787 46.282078) scale(0.066 -0.066)">
       <use xlink:href="#ArialMT-30"/>
      </g>
     </g>
    </g>
    <g id="ytick_3">
     <g id="line2d_11">
      <path d="M 42.425006 18.437695 
L 712.025006 18.437695 
" clip-path="url(#p13b2afdbed)" style="fill: none; stroke: #ffffff; stroke-linecap: round"/>
     </g>
     <g id="text_11">
      <!-- 1 -->
      <g style="fill: #262626" transform="translate(29.254787 20.799773) scale(0.066 -0.066)">
       <use xlink:href="#ArialMT-31"/>
      </g>
     </g>
    </g>
    <g id="text_12">
     <!-- North/South -->
     <g style="fill: #262626" transform="translate(12.353625 63.129938) rotate(-90) scale(0.072 -0.072)">
      <defs>
       <path id="ArialMT-4e" d="M 488 0 
L 488 4581 
L 1109 4581 
L 3516 984 
L 3516 4581 
L 4097 4581 
L 4097 0 
L 3475 0 
L 1069 3600 
L 1069 0 
L 488 0 
z
" transform="scale(0.015625)"/>
       <path id="ArialMT-6f" d="M 213 1659 
Q 213 2581 725 3025 
Q 1153 3394 1769 3394 
Q 2453 3394 2887 2945 
Q 3322 2497 3322 1706 
Q 3322 1066 3130 698 
Q 2938 331 2570 128 
Q 2203 -75 1769 -75 
Q 1072 -75 642 372 
Q 213 819 213 1659 
z
M 791 1659 
Q 791 1022 1069 705 
Q 1347 388 1769 388 
Q 2188 388 2466 706 
Q 2744 1025 2744 1678 
Q 2744 2294 2464 2611 
Q 2184 2928 1769 2928 
Q 1347 2928 1069 2612 
Q 791 2297 791 1659 
z
" transform="scale(0.015625)"/>
       <path id="ArialMT-72" d="M 416 0 
L 416 3319 
L 922 3319 
L 922 2816 
Q 1116 3169 1280 3281 
Q 1444 3394 1641 3394 
Q 1925 3394 2219 3213 
L 2025 2691 
Q 1819 2813 1613 2813 
Q 1428 2813 1281 2702 
Q 1134 2591 1072 2394 
Q 978 2094 978 1738 
L 978 0 
L 416 0 
z
" transform="scale(0.015625)"/>
       <path id="ArialMT-74" d="M 1650 503 
L 1731 6 
Q 1494 -44 1306 -44 
Q 1000 -44 831 53 
Q 663 150 594 308 
Q 525 466 525 972 
L 525 2881 
L 113 2881 
L 113 3319 
L 525 3319 
L 525 4141 
L 1084 4478 
L 1084 3319 
L 1650 3319 
L 1650 2881 
L 1084 2881 
L 1084 941 
Q 1084 700 1114 631 
Q 1144 563 1211 522 
Q 1278 481 1403 481 
Q 1497 481 1650 503 
z
" transform="scale(0.015625)"/>
       <path id="ArialMT-68" d="M 422 0 
L 422 4581 
L 984 4581 
L 984 2938 
Q 1378 3394 1978 3394 
Q 2347 3394 2619 3248 
Q 2891 3103 3008 2847 
Q 3125 2591 3125 2103 
L 3125 0 
L 2563 0 
L 2563 2103 
Q 2563 2525 2380 2717 
Q 2197 2909 1863 2909 
Q 1613 2909 1392 2779 
Q 1172 2650 1078 2428 
Q 984 2206 984 1816 
L 984 0 
L 422 0 
z
" transform="scale(0.015625)"/>
       <path id="ArialMT-2f" d="M 0 -78 
L 1328 4659 
L 1778 4659 
L 453 -78 
L 0 -78 
z
" transform="scale(0.015625)"/>
       <path id="ArialMT-53" d="M 288 1472 
L 859 1522 
Q 900 1178 1048 958 
Q 1197 738 1509 602 
Q 1822 466 2213 466 
Q 2559 466 2825 569 
Q 3091 672 3220 851 
Q 3350 1031 3350 1244 
Q 3350 1459 3225 1620 
Q 3100 1781 2813 1891 
Q 2628 1963 1997 2114 
Q 1366 2266 1113 2400 
Q 784 2572 623 2826 
Q 463 3081 463 3397 
Q 463 3744 659 4045 
Q 856 4347 1234 4503 
Q 1613 4659 2075 4659 
Q 2584 4659 2973 4495 
Q 3363 4331 3572 4012 
Q 3781 3694 3797 3291 
L 3216 3247 
Q 3169 3681 2898 3903 
Q 2628 4125 2100 4125 
Q 1550 4125 1298 3923 
Q 1047 3722 1047 3438 
Q 1047 3191 1225 3031 
Q 1400 2872 2139 2705 
Q 2878 2538 3153 2413 
Q 3553 2228 3743 1945 
Q 3934 1663 3934 1294 
Q 3934 928 3725 604 
Q 3516 281 3123 101 
Q 2731 -78 2241 -78 
Q 1619 -78 1198 103 
Q 778 284 539 648 
Q 300 1013 288 1472 
z
" transform="scale(0.015625)"/>
       <path id="ArialMT-75" d="M 2597 0 
L 2597 488 
Q 2209 -75 1544 -75 
Q 1250 -75 995 37 
Q 741 150 617 320 
Q 494 491 444 738 
Q 409 903 409 1263 
L 409 3319 
L 972 3319 
L 972 1478 
Q 972 1038 1006 884 
Q 1059 663 1231 536 
Q 1403 409 1656 409 
Q 1909 409 2131 539 
Q 2353 669 2445 892 
Q 2538 1116 2538 1541 
L 2538 3319 
L 3100 3319 
L 3100 0 
L 2597 0 
z
" transform="scale(0.015625)"/>
      </defs>
      <use xlink:href="#ArialMT-4e"/>
      <use xlink:href="#ArialMT-6f" x="72.216797"/>
      <use xlink:href="#ArialMT-72" x="127.832031"/>
      <use xlink:href="#ArialMT-74" x="161.132812"/>
      <use xlink:href="#ArialMT-68" x="188.916016"/>
      <use xlink:href="#ArialMT-2f" x="244.53125"/>
      <use xlink:href="#ArialMT-53" x="272.314453"/>
      <use xlink:href="#ArialMT-6f" x="339.013672"/>
      <use xlink:href="#ArialMT-75" x="394.628906"/>
      <use xlink:href="#ArialMT-74" x="450.244141"/>
      <use xlink:href="#ArialMT-68" x="478.027344"/>
     </g>
     <!-- Displacement [m] -->
     <g style="fill: #262626" transform="translate(19.968975 71.727188) rotate(-90) scale(0.072 -0.072)">
      <defs>
       <path id="ArialMT-44" d="M 494 0 
L 494 4581 
L 2072 4581 
Q 2606 4581 2888 4516 
Q 3281 4425 3559 4188 
Q 3922 3881 4101 3404 
Q 4281 2928 4281 2316 
Q 4281 1794 4159 1391 
Q 4038 988 3847 723 
Q 3656 459 3429 307 
Q 3203 156 2883 78 
Q 2563 0 2147 0 
L 494 0 
z
M 1100 541 
L 2078 541 
Q 2531 541 2789 625 
Q 3047 709 3200 863 
Q 3416 1078 3536 1442 
Q 3656 1806 3656 2325 
Q 3656 3044 3420 3430 
Q 3184 3816 2847 3947 
Q 2603 4041 2063 4041 
L 1100 4041 
L 1100 541 
z
" transform="scale(0.015625)"/>
       <path id="ArialMT-69" d="M 425 3934 
L 425 4581 
L 988 4581 
L 988 3934 
L 425 3934 
z
M 425 0 
L 425 3319 
L 988 3319 
L 988 0 
L 425 0 
z
" transform="scale(0.015625)"/>
       <path id="ArialMT-73" d="M 197 991 
L 753 1078 
Q 800 744 1014 566 
Q 1228 388 1613 388 
Q 2000 388 2187 545 
Q 2375 703 2375 916 
Q 2375 1106 2209 1216 
Q 2094 1291 1634 1406 
Q 1016 1563 777 1677 
Q 538 1791 414 1992 
Q 291 2194 291 2438 
Q 291 2659 392 2848 
Q 494 3038 669 3163 
Q 800 3259 1026 3326 
Q 1253 3394 1513 3394 
Q 1903 3394 2198 3281 
Q 2494 3169 2634 2976 
Q 2775 2784 2828 2463 
L 2278 2388 
Q 2241 2644 2061 2787 
Q 1881 2931 1553 2931 
Q 1166 2931 1000 2803 
Q 834 2675 834 2503 
Q 834 2394 903 2306 
Q 972 2216 1119 2156 
Q 1203 2125 1616 2013 
Q 2213 1853 2448 1751 
Q 2684 1650 2818 1456 
Q 2953 1263 2953 975 
Q 2953 694 2789 445 
Q 2625 197 2315 61 
Q 2006 -75 1616 -75 
Q 969 -75 630 194 
Q 291 463 197 991 
z
" transform="scale(0.015625)"/>
       <path id="ArialMT-70" d="M 422 -1272 
L 422 3319 
L 934 3319 
L 934 2888 
Q 1116 3141 1344 3267 
Q 1572 3394 1897 3394 
Q 2322 3394 2647 3175 
Q 2972 2956 3137 2557 
Q 3303 2159 3303 1684 
Q 3303 1175 3120 767 
Q 2938 359 2589 142 
Q 2241 -75 1856 -75 
Q 1575 -75 1351 44 
Q 1128 163 984 344 
L 984 -1272 
L 422 -1272 
z
M 931 1641 
Q 931 1000 1190 694 
Q 1450 388 1819 388 
Q 2194 388 2461 705 
Q 2728 1022 2728 1688 
Q 2728 2322 2467 2637 
Q 2206 2953 1844 2953 
Q 1484 2953 1207 2617 
Q 931 2281 931 1641 
z
" transform="scale(0.015625)"/>
       <path id="ArialMT-6c" d="M 409 0 
L 409 4581 
L 972 4581 
L 972 0 
L 409 0 
z
" transform="scale(0.015625)"/>
       <path id="ArialMT-61" d="M 2588 409 
Q 2275 144 1986 34 
Q 1697 -75 1366 -75 
Q 819 -75 525 192 
Q 231 459 231 875 
Q 231 1119 342 1320 
Q 453 1522 633 1644 
Q 813 1766 1038 1828 
Q 1203 1872 1538 1913 
Q 2219 1994 2541 2106 
Q 2544 2222 2544 2253 
Q 2544 2597 2384 2738 
Q 2169 2928 1744 2928 
Q 1347 2928 1158 2789 
Q 969 2650 878 2297 
L 328 2372 
Q 403 2725 575 2942 
Q 747 3159 1072 3276 
Q 1397 3394 1825 3394 
Q 2250 3394 2515 3294 
Q 2781 3194 2906 3042 
Q 3031 2891 3081 2659 
Q 3109 2516 3109 2141 
L 3109 1391 
Q 3109 606 3145 398 
Q 3181 191 3288 0 
L 2700 0 
Q 2613 175 2588 409 
z
M 2541 1666 
Q 2234 1541 1622 1453 
Q 1275 1403 1131 1340 
Q 988 1278 909 1158 
Q 831 1038 831 891 
Q 831 666 1001 516 
Q 1172 366 1500 366 
Q 1825 366 2078 508 
Q 2331 650 2450 897 
Q 2541 1088 2541 1459 
L 2541 1666 
z
" transform="scale(0.015625)"/>
       <path id="ArialMT-63" d="M 2588 1216 
L 3141 1144 
Q 3050 572 2676 248 
Q 2303 -75 1759 -75 
Q 1078 -75 664 370 
Q 250 816 250 1647 
Q 250 2184 428 2587 
Q 606 2991 970 3192 
Q 1334 3394 1763 3394 
Q 2303 3394 2647 3120 
Q 2991 2847 3088 2344 
L 2541 2259 
Q 2463 2594 2264 2762 
Q 2066 2931 1784 2931 
Q 1359 2931 1093 2626 
Q 828 2322 828 1663 
Q 828 994 1084 691 
Q 1341 388 1753 388 
Q 2084 388 2306 591 
Q 2528 794 2588 1216 
z
" transform="scale(0.015625)"/>
       <path id="ArialMT-65" d="M 2694 1069 
L 3275 997 
Q 3138 488 2766 206 
Q 2394 -75 1816 -75 
Q 1088 -75 661 373 
Q 234 822 234 1631 
Q 234 2469 665 2931 
Q 1097 3394 1784 3394 
Q 2450 3394 2872 2941 
Q 3294 2488 3294 1666 
Q 3294 1616 3291 1516 
L 816 1516 
Q 847 969 1125 678 
Q 1403 388 1819 388 
Q 2128 388 2347 550 
Q 2566 713 2694 1069 
z
M 847 1978 
L 2700 1978 
Q 2663 2397 2488 2606 
Q 2219 2931 1791 2931 
Q 1403 2931 1139 2672 
Q 875 2413 847 1978 
z
" transform="scale(0.015625)"/>
       <path id="ArialMT-6d" d="M 422 0 
L 422 3319 
L 925 3319 
L 925 2853 
Q 1081 3097 1340 3245 
Q 1600 3394 1931 3394 
Q 2300 3394 2536 3241 
Q 2772 3088 2869 2813 
Q 3263 3394 3894 3394 
Q 4388 3394 4653 3120 
Q 4919 2847 4919 2278 
L 4919 0 
L 4359 0 
L 4359 2091 
Q 4359 2428 4304 2576 
Q 4250 2725 4106 2815 
Q 3963 2906 3769 2906 
Q 3419 2906 3187 2673 
Q 2956 2441 2956 1928 
L 2956 0 
L 2394 0 
L 2394 2156 
Q 2394 2531 2256 2718 
Q 2119 2906 1806 2906 
Q 1569 2906 1367 2781 
Q 1166 2656 1075 2415 
Q 984 2175 984 1722 
L 984 0 
L 422 0 
z
" transform="scale(0.015625)"/>
       <path id="ArialMT-6e" d="M 422 0 
L 422 3319 
L 928 3319 
L 928 2847 
Q 1294 3394 1984 3394 
Q 2284 3394 2536 3286 
Q 2788 3178 2913 3003 
Q 3038 2828 3088 2588 
Q 3119 2431 3119 2041 
L 3119 0 
L 2556 0 
L 2556 2019 
Q 2556 2363 2490 2533 
Q 2425 2703 2258 2804 
Q 2091 2906 1866 2906 
Q 1506 2906 1245 2678 
Q 984 2450 984 1813 
L 984 0 
L 422 0 
z
" transform="scale(0.015625)"/>
       <path id="ArialMT-20" transform="scale(0.015625)"/>
       <path id="ArialMT-5b" d="M 434 -1272 
L 434 4581 
L 1675 4581 
L 1675 4116 
L 997 4116 
L 997 -806 
L 1675 -806 
L 1675 -1272 
L 434 -1272 
z
" transform="scale(0.015625)"/>
       <path id="ArialMT-5d" d="M 1363 -1272 
L 122 -1272 
L 122 -806 
L 800 -806 
L 800 4116 
L 122 4116 
L 122 4581 
L 1363 4581 
L 1363 -1272 
z
" transform="scale(0.015625)"/>
      </defs>
      <use xlink:href="#ArialMT-44"/>
      <use xlink:href="#ArialMT-69" x="72.216797"/>
      <use xlink:href="#ArialMT-73" x="94.433594"/>
      <use xlink:href="#ArialMT-70" x="144.433594"/>
      <use xlink:href="#ArialMT-6c" x="200.048828"/>
      <use xlink:href="#ArialMT-61" x="222.265625"/>
      <use xlink:href="#ArialMT-63" x="277.880859"/>
      <use xlink:href="#ArialMT-65" x="327.880859"/>
      <use xlink:href="#ArialMT-6d" x="383.496094"/>
      <use xlink:href="#ArialMT-65" x="466.796875"/>
      <use xlink:href="#ArialMT-6e" x="522.412109"/>
      <use xlink:href="#ArialMT-74" x="578.027344"/>
      <use xlink:href="#ArialMT-20" x="605.810547"/>
      <use xlink:href="#ArialMT-5b" x="633.59375"/>
      <use xlink:href="#ArialMT-6d" x="661.376953"/>
      <use xlink:href="#ArialMT-5d" x="744.677734"/>
     </g>
    </g>
   </g>
   <g id="line2d_12">
    <path d="M 72.861369 51.055045 
L 77.118199 30.159555 
L 81.375032 25.57274 
L 85.631867 18.947341 
L 89.888706 10.538182 
L 94.145541 14.870173 
L 98.402369 23.279333 
L 102.659204 36.784955 
L 106.916037 53.858099 
L 111.172877 57.935268 
L 115.42971 54.877391 
L 119.686545 62.522083 
L 128.200209 74.243944 
L 132.457047 77.301818 
L 136.713881 65.070313 
L 140.970716 51.309868 
L 145.227543 35.256016 
L 149.484378 25.063094 
L 153.741212 24.808271 
L 157.998052 21.750394 
L 162.254885 19.456988 
L 166.51172 13.596056 
L 170.768548 13.341233 
L 175.025383 19.456988 
L 179.282221 34.236724 
L 183.539056 47.487523 
L 187.79589 59.719029 
L 192.052719 69.147482 
L 196.309552 64.051022 
L 200.566393 64.560667 
L 204.823226 59.973852 
L 209.080061 54.367745 
L 213.336889 55.132214 
L 217.593724 50.035753 
L 221.850557 44.429646 
L 226.107397 40.097654 
L 230.364231 31.178847 
L 234.62106 29.140263 
L 238.877893 36.784955 
L 243.134728 38.568716 
L 247.391567 40.6073 
L 251.648402 44.684469 
L 255.905235 48.251992 
L 260.162064 49.526107 
L 264.418899 56.40633 
L 268.675736 61.757613 
L 272.932571 50.545399 
L 277.189405 41.116946 
L 281.446235 37.039777 
L 285.703068 33.727078 
L 289.959903 32.707786 
L 294.216742 36.530132 
L 298.473577 35.765663 
L 302.73041 32.198139 
L 306.98724 36.020485 
L 311.244073 42.645885 
L 315.500913 45.703761 
L 319.757746 41.626592 
L 324.014581 43.410354 
L 328.271409 49.016461 
L 332.528244 52.583984 
L 336.785083 50.545399 
L 341.041918 42.645885 
L 345.298751 38.05907 
L 349.555581 39.588008 
L 353.812414 47.2327 
L 358.069249 55.387037 
L 362.326087 59.209384 
L 370.83975 55.641861 
L 375.096583 56.151506 
L 379.353418 50.290576 
L 383.610257 37.804247 
L 387.867092 30.669202 
L 392.123925 25.063094 
L 396.380755 24.043803 
L 400.637589 33.217432 
L 404.894428 40.097654 
L 409.151261 38.823539 
L 413.408096 37.804247 
L 417.664925 48.506815 
L 421.92176 59.719029 
L 426.178593 62.012436 
L 430.435433 58.699737 
L 434.692266 51.564692 
L 438.949101 48.506815 
L 443.20593 46.723054 
L 447.462765 33.727078 
L 451.719603 28.375794 
L 455.976438 27.101678 
L 460.233271 24.043803 
L 464.490101 30.159555 
L 468.746934 31.943317 
L 473.003775 38.568716 
L 477.260608 49.78093 
L 481.517443 54.367745 
L 485.774271 53.858099 
L 490.031104 57.680445 
L 494.287939 58.954559 
L 498.544777 57.170798 
L 502.801612 57.680445 
L 511.315275 44.429646 
L 515.572108 38.568716 
L 519.828949 35.001193 
L 524.085782 37.039777 
L 528.342617 43.410354 
L 532.599445 44.939292 
L 536.85628 39.842831 
L 545.369953 44.429646 
L 549.626786 45.194115 
L 553.883616 46.468231 
L 558.14045 47.2327 
L 562.397285 49.78093 
L 566.654123 43.92 
L 570.910958 33.217432 
L 575.167791 27.611325 
L 579.424622 32.452963 
L 583.681455 44.174823 
L 587.938294 47.997169 
L 592.195127 40.352477 
L 596.451962 40.097654 
L 600.708791 42.136239 
L 604.965624 45.958584 
L 609.222465 45.194115 
L 613.479298 38.823539 
L 617.736133 47.487523 
L 621.992961 53.09363 
L 626.249796 49.78093 
L 630.506629 45.194115 
L 634.763469 44.684469 
L 639.020302 45.194115 
L 643.277132 49.78093 
L 647.533965 51.819515 
L 651.7908 46.468231 
L 656.047639 48.506815 
L 660.304474 49.271284 
L 664.561307 49.271284 
L 668.818136 46.468231 
L 673.07497 33.981901 
L 677.33181 24.298626 
L 681.588643 25.57274 
L 681.588643 25.57274 
" clip-path="url(#p13b2afdbed)" style="fill: none; stroke: #4c72b0; stroke-width: 0.5; stroke-linecap: round"/>
    <defs>
     <path id="mb5f042e648" d="M 0 0.75 
C 0.198902 0.75 0.389685 0.670975 0.53033 0.53033 
C 0.670975 0.389685 0.75 0.198902 0.75 0 
C 0.75 -0.198902 0.670975 -0.389685 0.53033 -0.53033 
C 0.389685 -0.670975 0.198902 -0.75 0 -0.75 
C -0.198902 -0.75 -0.389685 -0.670975 -0.53033 -0.53033 
C -0.670975 -0.389685 -0.75 -0.198902 -0.75 0 
C -0.75 0.198902 -0.670975 0.389685 -0.53033 0.53033 
C -0.389685 0.670975 -0.198902 0.75 0 0.75 
z
" style="stroke: #4c72b0"/>
    </defs>
    <g clip-path="url(#p13b2afdbed)">
     <use xlink:href="#mb5f042e648" x="72.861369" y="51.055045" style="fill: #4c72b0; stroke: #4c72b0"/>
     <use xlink:href="#mb5f042e648" x="77.118199" y="30.159555" style="fill: #4c72b0; stroke: #4c72b0"/>
     <use xlink:href="#mb5f042e648" x="81.375032" y="25.57274" style="fill: #4c72b0; stroke: #4c72b0"/>
     <use xlink:href="#mb5f042e648" x="85.631867" y="18.947341" style="fill: #4c72b0; stroke: #4c72b0"/>
     <use xlink:href="#mb5f042e648" x="89.888706" y="10.538182" style="fill: #4c72b0; stroke: #4c72b0"/>
     <use xlink:href="#mb5f042e648" x="94.145541" y="14.870173" style="fill: #4c72b0; stroke: #4c72b0"/>
     <use xlink:href="#mb5f042e648" x="98.402369" y="23.279333" style="fill: #4c72b0; stroke: #4c72b0"/>
     <use xlink:href="#mb5f042e648" x="102.659204" y="36.784955" style="fill: #4c72b0; stroke: #4c72b0"/>
     <use xlink:href="#mb5f042e648" x="106.916037" y="53.858099" style="fill: #4c72b0; stroke: #4c72b0"/>
     <use xlink:href="#mb5f042e648" x="111.172877" y="57.935268" style="fill: #4c72b0; stroke: #4c72b0"/>
     <use xlink:href="#mb5f042e648" x="115.42971" y="54.877391" style="fill: #4c72b0; stroke: #4c72b0"/>
     <use xlink:href="#mb5f042e648" x="119.686545" y="62.522083" style="fill: #4c72b0; stroke: #4c72b0"/>
     <use xlink:href="#mb5f042e648" x="123.943374" y="68.383012" style="fill: #4c72b0; stroke: #4c72b0"/>
     <use xlink:href="#mb5f042e648" x="128.200209" y="74.243944" style="fill: #4c72b0; stroke: #4c72b0"/>
     <use xlink:href="#mb5f042e648" x="132.457047" y="77.301818" style="fill: #4c72b0; stroke: #4c72b0"/>
     <use xlink:href="#mb5f042e648" x="136.713881" y="65.070313" style="fill: #4c72b0; stroke: #4c72b0"/>
     <use xlink:href="#mb5f042e648" x="140.970716" y="51.309868" style="fill: #4c72b0; stroke: #4c72b0"/>
     <use xlink:href="#mb5f042e648" x="145.227543" y="35.256016" style="fill: #4c72b0; stroke: #4c72b0"/>
     <use xlink:href="#mb5f042e648" x="149.484378" y="25.063094" style="fill: #4c72b0; stroke: #4c72b0"/>
     <use xlink:href="#mb5f042e648" x="153.741212" y="24.808271" style="fill: #4c72b0; stroke: #4c72b0"/>
     <use xlink:href="#mb5f042e648" x="157.998052" y="21.750394" style="fill: #4c72b0; stroke: #4c72b0"/>
     <use xlink:href="#mb5f042e648" x="162.254885" y="19.456988" style="fill: #4c72b0; stroke: #4c72b0"/>
     <use xlink:href="#mb5f042e648" x="166.51172" y="13.596056" style="fill: #4c72b0; stroke: #4c72b0"/>
     <use xlink:href="#mb5f042e648" x="170.768548" y="13.341233" style="fill: #4c72b0; stroke: #4c72b0"/>
     <use xlink:href="#mb5f042e648" x="175.025383" y="19.456988" style="fill: #4c72b0; stroke: #4c72b0"/>
     <use xlink:href="#mb5f042e648" x="179.282221" y="34.236724" style="fill: #4c72b0; stroke: #4c72b0"/>
     <use xlink:href="#mb5f042e648" x="183.539056" y="47.487523" style="fill: #4c72b0; stroke: #4c72b0"/>
     <use xlink:href="#mb5f042e648" x="187.79589" y="59.719029" style="fill: #4c72b0; stroke: #4c72b0"/>
     <use xlink:href="#mb5f042e648" x="192.052719" y="69.147482" style="fill: #4c72b0; stroke: #4c72b0"/>
     <use xlink:href="#mb5f042e648" x="196.309552" y="64.051022" style="fill: #4c72b0; stroke: #4c72b0"/>
     <use xlink:href="#mb5f042e648" x="200.566393" y="64.560667" style="fill: #4c72b0; stroke: #4c72b0"/>
     <use xlink:href="#mb5f042e648" x="204.823226" y="59.973852" style="fill: #4c72b0; stroke: #4c72b0"/>
     <use xlink:href="#mb5f042e648" x="209.080061" y="54.367745" style="fill: #4c72b0; stroke: #4c72b0"/>
     <use xlink:href="#mb5f042e648" x="213.336889" y="55.132214" style="fill: #4c72b0; stroke: #4c72b0"/>
     <use xlink:href="#mb5f042e648" x="217.593724" y="50.035753" style="fill: #4c72b0; stroke: #4c72b0"/>
     <use xlink:href="#mb5f042e648" x="221.850557" y="44.429646" style="fill: #4c72b0; stroke: #4c72b0"/>
     <use xlink:href="#mb5f042e648" x="226.107397" y="40.097654" style="fill: #4c72b0; stroke: #4c72b0"/>
     <use xlink:href="#mb5f042e648" x="230.364231" y="31.178847" style="fill: #4c72b0; stroke: #4c72b0"/>
     <use xlink:href="#mb5f042e648" x="234.62106" y="29.140263" style="fill: #4c72b0; stroke: #4c72b0"/>
     <use xlink:href="#mb5f042e648" x="238.877893" y="36.784955" style="fill: #4c72b0; stroke: #4c72b0"/>
     <use xlink:href="#mb5f042e648" x="243.134728" y="38.568716" style="fill: #4c72b0; stroke: #4c72b0"/>
     <use xlink:href="#mb5f042e648" x="247.391567" y="40.6073" style="fill: #4c72b0; stroke: #4c72b0"/>
     <use xlink:href="#mb5f042e648" x="251.648402" y="44.684469" style="fill: #4c72b0; stroke: #4c72b0"/>
     <use xlink:href="#mb5f042e648" x="255.905235" y="48.251992" style="fill: #4c72b0; stroke: #4c72b0"/>
     <use xlink:href="#mb5f042e648" x="260.162064" y="49.526107" style="fill: #4c72b0; stroke: #4c72b0"/>
     <use xlink:href="#mb5f042e648" x="264.418899" y="56.40633" style="fill: #4c72b0; stroke: #4c72b0"/>
     <use xlink:href="#mb5f042e648" x="268.675736" y="61.757613" style="fill: #4c72b0; stroke: #4c72b0"/>
     <use xlink:href="#mb5f042e648" x="272.932571" y="50.545399" style="fill: #4c72b0; stroke: #4c72b0"/>
     <use xlink:href="#mb5f042e648" x="277.189405" y="41.116946" style="fill: #4c72b0; stroke: #4c72b0"/>
     <use xlink:href="#mb5f042e648" x="281.446235" y="37.039777" style="fill: #4c72b0; stroke: #4c72b0"/>
     <use xlink:href="#mb5f042e648" x="285.703068" y="33.727078" style="fill: #4c72b0; stroke: #4c72b0"/>
     <use xlink:href="#mb5f042e648" x="289.959903" y="32.707786" style="fill: #4c72b0; stroke: #4c72b0"/>
     <use xlink:href="#mb5f042e648" x="294.216742" y="36.530132" style="fill: #4c72b0; stroke: #4c72b0"/>
     <use xlink:href="#mb5f042e648" x="298.473577" y="35.765663" style="fill: #4c72b0; stroke: #4c72b0"/>
     <use xlink:href="#mb5f042e648" x="302.73041" y="32.198139" style="fill: #4c72b0; stroke: #4c72b0"/>
     <use xlink:href="#mb5f042e648" x="306.98724" y="36.020485" style="fill: #4c72b0; stroke: #4c72b0"/>
     <use xlink:href="#mb5f042e648" x="311.244073" y="42.645885" style="fill: #4c72b0; stroke: #4c72b0"/>
     <use xlink:href="#mb5f042e648" x="315.500913" y="45.703761" style="fill: #4c72b0; stroke: #4c72b0"/>
     <use xlink:href="#mb5f042e648" x="319.757746" y="41.626592" style="fill: #4c72b0; stroke: #4c72b0"/>
     <use xlink:href="#mb5f042e648" x="324.014581" y="43.410354" style="fill: #4c72b0; stroke: #4c72b0"/>
     <use xlink:href="#mb5f042e648" x="328.271409" y="49.016461" style="fill: #4c72b0; stroke: #4c72b0"/>
     <use xlink:href="#mb5f042e648" x="332.528244" y="52.583984" style="fill: #4c72b0; stroke: #4c72b0"/>
     <use xlink:href="#mb5f042e648" x="336.785083" y="50.545399" style="fill: #4c72b0; stroke: #4c72b0"/>
     <use xlink:href="#mb5f042e648" x="341.041918" y="42.645885" style="fill: #4c72b0; stroke: #4c72b0"/>
     <use xlink:href="#mb5f042e648" x="345.298751" y="38.05907" style="fill: #4c72b0; stroke: #4c72b0"/>
     <use xlink:href="#mb5f042e648" x="349.555581" y="39.588008" style="fill: #4c72b0; stroke: #4c72b0"/>
     <use xlink:href="#mb5f042e648" x="353.812414" y="47.2327" style="fill: #4c72b0; stroke: #4c72b0"/>
     <use xlink:href="#mb5f042e648" x="358.069249" y="55.387037" style="fill: #4c72b0; stroke: #4c72b0"/>
     <use xlink:href="#mb5f042e648" x="362.326087" y="59.209384" style="fill: #4c72b0; stroke: #4c72b0"/>
     <use xlink:href="#mb5f042e648" x="366.582922" y="57.425621" style="fill: #4c72b0; stroke: #4c72b0"/>
     <use xlink:href="#mb5f042e648" x="370.83975" y="55.641861" style="fill: #4c72b0; stroke: #4c72b0"/>
     <use xlink:href="#mb5f042e648" x="375.096583" y="56.151506" style="fill: #4c72b0; stroke: #4c72b0"/>
     <use xlink:href="#mb5f042e648" x="379.353418" y="50.290576" style="fill: #4c72b0; stroke: #4c72b0"/>
     <use xlink:href="#mb5f042e648" x="383.610257" y="37.804247" style="fill: #4c72b0; stroke: #4c72b0"/>
     <use xlink:href="#mb5f042e648" x="387.867092" y="30.669202" style="fill: #4c72b0; stroke: #4c72b0"/>
     <use xlink:href="#mb5f042e648" x="392.123925" y="25.063094" style="fill: #4c72b0; stroke: #4c72b0"/>
     <use xlink:href="#mb5f042e648" x="396.380755" y="24.043803" style="fill: #4c72b0; stroke: #4c72b0"/>
     <use xlink:href="#mb5f042e648" x="400.637589" y="33.217432" style="fill: #4c72b0; stroke: #4c72b0"/>
     <use xlink:href="#mb5f042e648" x="404.894428" y="40.097654" style="fill: #4c72b0; stroke: #4c72b0"/>
     <use xlink:href="#mb5f042e648" x="409.151261" y="38.823539" style="fill: #4c72b0; stroke: #4c72b0"/>
     <use xlink:href="#mb5f042e648" x="413.408096" y="37.804247" style="fill: #4c72b0; stroke: #4c72b0"/>
     <use xlink:href="#mb5f042e648" x="417.664925" y="48.506815" style="fill: #4c72b0; stroke: #4c72b0"/>
     <use xlink:href="#mb5f042e648" x="421.92176" y="59.719029" style="fill: #4c72b0; stroke: #4c72b0"/>
     <use xlink:href="#mb5f042e648" x="426.178593" y="62.012436" style="fill: #4c72b0; stroke: #4c72b0"/>
     <use xlink:href="#mb5f042e648" x="430.435433" y="58.699737" style="fill: #4c72b0; stroke: #4c72b0"/>
     <use xlink:href="#mb5f042e648" x="434.692266" y="51.564692" style="fill: #4c72b0; stroke: #4c72b0"/>
     <use xlink:href="#mb5f042e648" x="438.949101" y="48.506815" style="fill: #4c72b0; stroke: #4c72b0"/>
     <use xlink:href="#mb5f042e648" x="443.20593" y="46.723054" style="fill: #4c72b0; stroke: #4c72b0"/>
     <use xlink:href="#mb5f042e648" x="447.462765" y="33.727078" style="fill: #4c72b0; stroke: #4c72b0"/>
     <use xlink:href="#mb5f042e648" x="451.719603" y="28.375794" style="fill: #4c72b0; stroke: #4c72b0"/>
     <use xlink:href="#mb5f042e648" x="455.976438" y="27.101678" style="fill: #4c72b0; stroke: #4c72b0"/>
     <use xlink:href="#mb5f042e648" x="460.233271" y="24.043803" style="fill: #4c72b0; stroke: #4c72b0"/>
     <use xlink:href="#mb5f042e648" x="464.490101" y="30.159555" style="fill: #4c72b0; stroke: #4c72b0"/>
     <use xlink:href="#mb5f042e648" x="468.746934" y="31.943317" style="fill: #4c72b0; stroke: #4c72b0"/>
     <use xlink:href="#mb5f042e648" x="473.003775" y="38.568716" style="fill: #4c72b0; stroke: #4c72b0"/>
     <use xlink:href="#mb5f042e648" x="477.260608" y="49.78093" style="fill: #4c72b0; stroke: #4c72b0"/>
     <use xlink:href="#mb5f042e648" x="481.517443" y="54.367745" style="fill: #4c72b0; stroke: #4c72b0"/>
     <use xlink:href="#mb5f042e648" x="485.774271" y="53.858099" style="fill: #4c72b0; stroke: #4c72b0"/>
     <use xlink:href="#mb5f042e648" x="490.031104" y="57.680445" style="fill: #4c72b0; stroke: #4c72b0"/>
     <use xlink:href="#mb5f042e648" x="494.287939" y="58.954559" style="fill: #4c72b0; stroke: #4c72b0"/>
     <use xlink:href="#mb5f042e648" x="498.544777" y="57.170798" style="fill: #4c72b0; stroke: #4c72b0"/>
     <use xlink:href="#mb5f042e648" x="502.801612" y="57.680445" style="fill: #4c72b0; stroke: #4c72b0"/>
     <use xlink:href="#mb5f042e648" x="507.05844" y="51.055045" style="fill: #4c72b0; stroke: #4c72b0"/>
     <use xlink:href="#mb5f042e648" x="511.315275" y="44.429646" style="fill: #4c72b0; stroke: #4c72b0"/>
     <use xlink:href="#mb5f042e648" x="515.572108" y="38.568716" style="fill: #4c72b0; stroke: #4c72b0"/>
     <use xlink:href="#mb5f042e648" x="519.828949" y="35.001193" style="fill: #4c72b0; stroke: #4c72b0"/>
     <use xlink:href="#mb5f042e648" x="524.085782" y="37.039777" style="fill: #4c72b0; stroke: #4c72b0"/>
     <use xlink:href="#mb5f042e648" x="528.342617" y="43.410354" style="fill: #4c72b0; stroke: #4c72b0"/>
     <use xlink:href="#mb5f042e648" x="532.599445" y="44.939292" style="fill: #4c72b0; stroke: #4c72b0"/>
     <use xlink:href="#mb5f042e648" x="536.85628" y="39.842831" style="fill: #4c72b0; stroke: #4c72b0"/>
     <use xlink:href="#mb5f042e648" x="541.113118" y="42.136239" style="fill: #4c72b0; stroke: #4c72b0"/>
     <use xlink:href="#mb5f042e648" x="545.369953" y="44.429646" style="fill: #4c72b0; stroke: #4c72b0"/>
     <use xlink:href="#mb5f042e648" x="549.626786" y="45.194115" style="fill: #4c72b0; stroke: #4c72b0"/>
     <use xlink:href="#mb5f042e648" x="553.883616" y="46.468231" style="fill: #4c72b0; stroke: #4c72b0"/>
     <use xlink:href="#mb5f042e648" x="558.14045" y="47.2327" style="fill: #4c72b0; stroke: #4c72b0"/>
     <use xlink:href="#mb5f042e648" x="562.397285" y="49.78093" style="fill: #4c72b0; stroke: #4c72b0"/>
     <use xlink:href="#mb5f042e648" x="566.654123" y="43.92" style="fill: #4c72b0; stroke: #4c72b0"/>
     <use xlink:href="#mb5f042e648" x="570.910958" y="33.217432" style="fill: #4c72b0; stroke: #4c72b0"/>
     <use xlink:href="#mb5f042e648" x="575.167791" y="27.611325" style="fill: #4c72b0; stroke: #4c72b0"/>
     <use xlink:href="#mb5f042e648" x="579.424622" y="32.452963" style="fill: #4c72b0; stroke: #4c72b0"/>
     <use xlink:href="#mb5f042e648" x="583.681455" y="44.174823" style="fill: #4c72b0; stroke: #4c72b0"/>
     <use xlink:href="#mb5f042e648" x="587.938294" y="47.997169" style="fill: #4c72b0; stroke: #4c72b0"/>
     <use xlink:href="#mb5f042e648" x="592.195127" y="40.352477" style="fill: #4c72b0; stroke: #4c72b0"/>
     <use xlink:href="#mb5f042e648" x="596.451962" y="40.097654" style="fill: #4c72b0; stroke: #4c72b0"/>
     <use xlink:href="#mb5f042e648" x="600.708791" y="42.136239" style="fill: #4c72b0; stroke: #4c72b0"/>
     <use xlink:href="#mb5f042e648" x="604.965624" y="45.958584" style="fill: #4c72b0; stroke: #4c72b0"/>
     <use xlink:href="#mb5f042e648" x="609.222465" y="45.194115" style="fill: #4c72b0; stroke: #4c72b0"/>
     <use xlink:href="#mb5f042e648" x="613.479298" y="38.823539" style="fill: #4c72b0; stroke: #4c72b0"/>
     <use xlink:href="#mb5f042e648" x="617.736133" y="47.487523" style="fill: #4c72b0; stroke: #4c72b0"/>
     <use xlink:href="#mb5f042e648" x="621.992961" y="53.09363" style="fill: #4c72b0; stroke: #4c72b0"/>
     <use xlink:href="#mb5f042e648" x="626.249796" y="49.78093" style="fill: #4c72b0; stroke: #4c72b0"/>
     <use xlink:href="#mb5f042e648" x="630.506629" y="45.194115" style="fill: #4c72b0; stroke: #4c72b0"/>
     <use xlink:href="#mb5f042e648" x="634.763469" y="44.684469" style="fill: #4c72b0; stroke: #4c72b0"/>
     <use xlink:href="#mb5f042e648" x="639.020302" y="45.194115" style="fill: #4c72b0; stroke: #4c72b0"/>
     <use xlink:href="#mb5f042e648" x="643.277132" y="49.78093" style="fill: #4c72b0; stroke: #4c72b0"/>
     <use xlink:href="#mb5f042e648" x="647.533965" y="51.819515" style="fill: #4c72b0; stroke: #4c72b0"/>
     <use xlink:href="#mb5f042e648" x="651.7908" y="46.468231" style="fill: #4c72b0; stroke: #4c72b0"/>
     <use xlink:href="#mb5f042e648" x="656.047639" y="48.506815" style="fill: #4c72b0; stroke: #4c72b0"/>
     <use xlink:href="#mb5f042e648" x="660.304474" y="49.271284" style="fill: #4c72b0; stroke: #4c72b0"/>
     <use xlink:href="#mb5f042e648" x="664.561307" y="49.271284" style="fill: #4c72b0; stroke: #4c72b0"/>
     <use xlink:href="#mb5f042e648" x="668.818136" y="46.468231" style="fill: #4c72b0; stroke: #4c72b0"/>
     <use xlink:href="#mb5f042e648" x="673.07497" y="33.981901" style="fill: #4c72b0; stroke: #4c72b0"/>
     <use xlink:href="#mb5f042e648" x="677.33181" y="24.298626" style="fill: #4c72b0; stroke: #4c72b0"/>
     <use xlink:href="#mb5f042e648" x="681.588643" y="25.57274" style="fill: #4c72b0; stroke: #4c72b0"/>
    </g>
   </g>
   <g id="patch_3">
    <path d="M 42.425006 80.64 
L 42.425006 7.2 
" style="fill: none; stroke: #ffffff; stroke-width: 1.25; stroke-linejoin: miter; stroke-linecap: square"/>
   </g>
   <g id="patch_4">
    <path d="M 712.025006 80.64 
L 712.025006 7.2 
" style="fill: none; stroke: #ffffff; stroke-width: 1.25; stroke-linejoin: miter; stroke-linecap: square"/>
   </g>
   <g id="patch_5">
    <path d="M 42.425006 80.64 
L 712.025006 80.64 
" style="fill: none; stroke: #ffffff; stroke-width: 1.25; stroke-linejoin: miter; stroke-linecap: square"/>
   </g>
   <g id="patch_6">
    <path d="M 42.425006 7.2 
L 712.025006 7.2 
" style="fill: none; stroke: #ffffff; stroke-width: 1.25; stroke-linejoin: miter; stroke-linecap: square"/>
   </g>
  </g>
 </g>
 <defs>
  <clipPath id="p13b2afdbed">
   <rect x="42.425006" y="7.2" width="669.6" height="73.44"/>
  </clipPath>
 </defs>
</svg>
